<?xml version="1.0" encoding="UTF-8"?><svg viewBox="0 0 450 131" preserveAspectRatio="xMidYMid meet" xmlns="http://www.w3.org/2000/svg" xmlns:xlink="http://www.w3.org/1999/xlink"><defs><path id="a" d="M0 .6h450v20.6H0z"/></defs><g fill="none" fill-rule="evenodd"><path d="M139 105.3c.5-2 .8-4 1.4-6 .3-1 1.4-2.7.8-3.8a15.2 15.2 0 01-5 3.3c-1.3.6-5 .7-5.4-1 3.6 0 6.4-1.3 8.8-4 1.7-2 4.6-3.7 3.8-6.6a15.1 15.1 0 01-8.8 3c-3.3.4-7.5.2-9.4-3.2 4.4 3.4 13.7 0 16.3-1.8 1.2-.9 2.6-2 3-3.6.7-2 .2-4 1.2-5.9.8-1.7 2-3.1 2.1-5 .1-.7.3-1.5 0-2.2-.1-.7-.7-1.1-.5-2 .2-.7 1.1-1.3 1.6-1.8l1.4-2c.7-1.3 1.3-3 1.8-4.4.5-1.4.8-3.2 2-4.3 1.8-1.8 4.6-1.8 6.6-.8 1.8 1 3.8 1.6 5.8 2 2.1.2 3.8-.6 5.8-.9a92 92 0 014.6-.5c1.7-.2 3.4 0 5.1.2 1.3 0 2.3.4 3.6.8.5 0 1 .2 1.6.4 1.7.4 3.3.7 5 .9 1.8.2 3.5.7 5.2.5 4-.3 7.8-1.2 11.9-1.1 3.6 0 8 2.2 10.7 4.5 3.8 3.2 7 6.4 9.3 10.7 1 1.6 1.6 3.4 2 5.2.3 1.4.9 3.5.6 5-.1.6-.4 1.2-.7 1.7l.2 4.7c0 1.7 0 3.4-.3 5-.3 1.7-1.1 3-1.9 4.5-.7 1.4-1 3-1.7 4.2-.5.9-1.2 1-1.3-.2 0-.7.6-1.3 1-1.9 1.8-2.7 2.5-6 2.4-9.3 0-.7-.4-1.4-.4-2.2-.3.8-.7 1.6-1.2 2.3a15 15 0 00-2.1 5.8l-.2 2.8v.5c0 1.7-.6 3-.8 4.7 0 1.7-.2 3.4-.3 5l.1 5.1c0 .8 0 1.7.2 2.5 0 .8.5 1.6.4 2.4-.1 1.1-.3 1.2.2 2.4.3.6.7 1.4.5 2.2-.5 1.5-3.2.5-4.4.5-1.5 0-2.9 1-4.6.6-1.1-.2-3.4-1-2.3-2.5.4-.7 1-1 1.5-1.6.4-1.4 1.2-2.6 1.6-4v-2.5-3.8a230.6 230.6 0 00-.3-3.7c-.1-.4-.3-.6-.7-1.1l-.3-.4c-1 .2-1.6 3.7-1.9 4.5-.5 1.5-1.3 3-2 4.5l-.7 1.8c-.3.7-.3 1.5-.8 2.1l-.7.7a4 4 0 00-.5 1l-.6 2.4c-.3 1.6-1 3.5-3.1 2.9-1.3-.4-2.8-1.4-3.9-2.2-.9-.7-3.2-1.5-3-3 .2-1 .9-.6 1.6-1 .2 0 .6-.5.8-.6l.9-.6c1-.9 1.5-2.4 2.2-3.6.7-1.4 1.6-2.7 2.3-4.2 1-2.1 1.8-4.5 2-6.8h-.1c-.4.4-1.3.7-1.9.8-1 .2-1.1-.3-2-.7l-.9-.2h-1.4l-.7-.1c-.7 0-1.4 0-2-.2l-1.5-.6a28 28 0 00-2.2-.5c-.7 1.5-.4 3.5-.7 5-.3 1.8-.6 3.4-.5 5.1 0 1.7.1 3.2.5 4.8.4 1.3.4 3.1 1.2 4.4.7 1.3 2 1.9 2.4 3.3.4 1.4.3 3.2-1.4 3.6h-1.2c-.5.2-.7.6-1.1.7-.6.3-1.7.3-2.4.1-.9-.2-1.4-.6-2.3-.7-1-.1-1.5-.3-2.2-1-1.5-1.7.3-2.3 1.2-3.5.5-.8.6-.9.1-1.8-.4-.7-.7-1.1-.8-1.9-.8-3.1-2.1-6.2-2.5-9.5-.4-3.4-1.5-6.6-2.2-10-.2-.9-.2-2-.5-3a5 5 0 00-1.7-2l-1.3-.4h-.1l-.2.4c-.8 0-1-.5-1.1-1h-.2c-.5-.5-1-1-1.6-1.3h-.3c-.8.9-1.4 2-1.8 3l-.2 1-.3.6c-.4 1.3-.8 2.7-1.5 4-.8 1.4-.7 3-1.3 4.6-.6 1.6-1.3 3.2-2.1 4.7-.5.7-1.2 1.3-1.5 2.1-.3.7-.4 1.6-.5 2.4-.4 1.6-.4 3.3-.7 5-.3 1.6 0 2.8.3 4.5.1 2-1.1 2-2.7 2.5-1.8.5-3 1-4.8 0-1.2-.6-3-.3-3.9-1.5-.8-1.2 1-2.5 1.8-3.2 1-1 1.7-2.1 2-3.5.5-1.5.8-3.2 1-4.8.1-1.7.7-3.3 1-5 .5-3.3 1.1-6.5 1.3-10 .2-2.8 1-5.5 2-8 1.1-2.5 2.4-4.8 1.7-7.4H166a9 9 0 01-1.1.1l-1 .2c-1.3.1-2.5.4-3.7.8-1.4.3-1.8 1-3 1.7-.5.5-1.2 1.1-2 1.3-1 .1-.7-1-2-.3-1.6 1-2.3 5.5-3.3 7.1-.9 1.3-1.2 2.6-2 4-.9 1.4-2.4 3-3 4.6-.4 1.4-.3 3.2-.5 4.6-.2 2 .2 3 2.2 2.1 1.7-.7 2-1 2.3-2.8.3-1.3 1.1-3.3.1-4.3.7-1.1 1.3 0 2.2 0 1 0 1-1.2 2.2-.6-1 .6-.5.9-.7 1.9l-.6 2.2c-.1.8-.5 1.6-.7 2.4-.2.8-.1 1.7-.4 2.5-.4 1.5-1.9 2.7-3.4 3-1.3.3-3.5.6-4.7 0-1.6-1-2.2-2.8-3.2-4-1.2-1.5-1-2.8-.6-4.5M9.2 108.8l-.6.9c-.2-1.4-.4-2.9.2-4.2l.3.2c.2-2.3-.3-4.4-.5-6.7-.1-1.3 0-2.3.4-3.2h.2c0 1.5 0 3 .5 4.4.4 1.5 1.2 2.8 1.2 4.3 0 1.6-.8 3-1.7 4.3zM8 109l.4.8-.4.4v-1.2zm-.7 12.6v.1l.1.4.2-.2h.2v-.1H8c.4.7-.1 1.2.4 1.8h-.1c-.1.1 0 .3.1.3h.3l1.5.5c.4-.4 1-.1 1.3 0v-.3c-.2-.6-1-1.1-1.4-1.6-.4-.7-.3-1.4-.3-2.3 0-1.7-.3-3.6 0-5.2.2-1.7 1-2.8 2-4.2.8-1.4 1.5-3 2.8-3.9-.3.5-.4 1.7-.5 2.3-.2.8-.3 1.3-.8 2-.6.7-.8.6-.3 1.5l1 1.8c.8 1.1 1.4 2.3 2 3.5.6 1 1.2 3.2 2 4v-.3h.2V121.5c.3 0 1 .9 1 1.5H20.4l1.7.2-.7-.7a16.1 16.1 0 01-5.3-8c-.4-2 .1-3.4 1-5.2.5-.8 1.4-3.8 2.4-3.9 1.5 2 4.3 2.9 6.7 2.7 2.6-.3 5-2.5 7.8-1.7-.9 1-1 2.7-1.3 3.9-.4 1.3-.8 2.4-1 3.6-.1 1.2-1 2.7-1.3 4-.3.7-1.5 2.5-1 3.3h.2l.1-.2.1-.1v-.1c1 .5.4 1.6.5 2.5l3 .3c0-1-1.4-1.6-1.7-2.8-.2-1.4.2-2.8.6-4 .7-2.3 2.8-3.9 3.1-6.3.6 1.5.8 3.8 1.5 5.6.7 2-.2 4.2.6 6.3h.2c-.4 2.7 3.6 1.3 3.8 1.9-.3-.8-1-1-1.4-1.6-.5-.5-.8-1-1-1.7-.6-1.4-.6-3.1-.6-4.6 0-1.5.4-2.7 0-4.1-.4-1.5-.6-2.8-.5-4.3.3.1.7.2 1 .1 1.6-.3 3-2.5 4.1-3.4l.5.3v-.5c.1 0 .4 0 .6.2l.3-.6c0 .4 0 1 .5 1.1 0-.6-.2-1.5.4-1.9l.4.5c0-.3.2-.5.3-.8l.3 1c0-.4.2-.6.3-.9 0 .9.3 2.4.8 3 0-.7 0-1.4.2-2.1.3.3.4.8.6 1.2v-1.6l.5 1c0-.4.2-.7.3-1 .5.8.5 2 1 3-.2-.6-.2-1.8.2-2.2 0 .3 0 .7.3 1v-1.9l.2.2.4.4.4-.6.5.8.1.1.2.2.2.2c0 .3 0 .5.7.4.4 0 .6-.1.8-.5l.4-.2c.1-.1 0-.4-.2-.3v-.2c.4.7.7.4 1.1 0h.1c.7-.4.7-.5.8-1l-.2-1-.1-.9.2-1.6c-.1-2.5-1-5-1-7.5h.2l1-.7c.2-.1.3-.2.3-.4h.2c.1 0 .2-.2.1-.3l.8-.9c-1.4-.4-2.6.9-3.7.4H54l-1.3-1.5c.1-.6.7-.6 1-1 .3-.5.4-1.2.2-1.7-.1-.9-1.4-2.3-2.3-2 .7.4 1.7 1.8 1.2 2.7-.4 1-1.9-.6-2.4.6l-1.6-.3c-1 0-1.8 1-2.7 1.2-.3 0-.5 0-.7-.2-.3-1 .3-3.1.9-3.7-1 .1-2 1.8-2.3 3.2.1-.5-1.8-.1-.7-1.4-.5 0-1.1 0-1.5.5v-.9l-.8.6-.2-.8-.2.8c-.3-.2-.6-.5-1-.6.2.2.2.5.3.7l-1.1-.5.3.6c-1.5-.5-3-.6-4.7-.5l.7.4c-2 .2-3.3.2-5.2 1.4l-2.5 1.7c-.8 0-1.6 0-2.4.2-1.7.2-3.5.4-5.3.4-1.7-.1-3.4-.3-5 .4-1.2.5-2.5 1.6-3.7 2.3l-.9.8H10l-1 1.3c-1.3.7-1 3.3-1 4.6 0 1.8-.2 3.2-.7 4.8a20.9 20.9 0 00.5 11.9l.2 1.1-.1 2.6c0 .4-.4 1.2-.5 1.8v.1zM41 28.2h.1v.2-.2M24 37.7h-.1c-.1.1-.1.1 0 0M41 28.4v.2-.2M29 31.5h-.1" fill="#000"/><path d="M141.5 70.2c-.4-.1-.7-.4-1-.6l-.3-.2h1.6c0 .3-.2.5-.3.8zm-2-1.2l-.9-.6h1c-.1.1-.2.4 0 .6zm-2.4 8.4h.2v.1c0 1.4 0 1.2-.4.5l-.1-.4c.1 0 .2 0 .3-.2zm-1.4-1l-.7.1.1-.3.4-.4.7.4c-.1.1-.2.2-.5.2zm-1.9-13.8v-.2l.8-.5v.3.3h-.8zm-1.2 18h-.1c0-.3-.4-.5-.5-.2v.2l-.2-.6h1.2l.1.2v.4h-.5zm-3.8-32.4c-.1 0-.3 0-.4.2l1.4-1 .4.8h-1.4zm-2-5.5l-.5-.2c.7-.5 1.1-1 .5.2zM125 80.5c-.2-.2-.5-.2-.7-.3l-.3-.3c.3-.2.7-.3 1-.3v.9zm-2 .5c-.1 0-.3.1-.2.3-.5.4-.7 0-.9-.5.4 0 .8 0 1.1-.2v.4zm-1.3-1.6l-.2-.3h1.5l-.6.3h-.7zm-.6-16.6l-1.4 1c-.2 0-.2.2-.2.3l-.2.2v.2h-.2l-.1-.3c0-.2-.3-.2-.5 0 0 0-.8.8-1 1.2l-.4.1c-.2.1-.2.4 0 .5h.3v-.1a5 5 0 011-.4c-.2.3-.3.6-.2.9l-4 3.1-.3.6-1.2.5c-.2 0-.2.3-.2.5l-3.6 1.6a35 35 0 002.3-5.3l3.5-4c2.7-.6 5.5-1.3 8-2.3 0 .6-.5 1.4-1.2 2.2V63c0-.2-.2-.3-.4-.2zm-4 7.1l.6-.5.3-.3 1.6-.8.5.6h1.2v.1c-1.4.4-2.8.7-4.3.9zm2 .6c-.1 0-.3 0-.3.2-1 .3-1.7.7-1.5.8H115c.5-.3 1-.6 1.3-1l2.7-.4.2.1.6.1-.7.2zM116 73c-.1 0-.2.2-.1.3v.3a8 8 0 00-1.2 1.1l-.2.2v-.3c.1-.3-.2-.5-.4-.2-.2.4 0 .4 0 1l-.4.4-.1-1c0-.3-.3-.4-.5-.2v.4l.5.9c-.4.2-.7.2-1-.3-.2-.2-.4-.1-.5 0 0 .4-.2.6-.4.7-.1.1-.1.3 0 .4l.3 1.1c-2.1.3-4.4 0-6.6 0 2.8-2 6-3.6 8.8-5.6h2.9c-.1.8-.1.6-1 .8zm.6 6.6v.3l-.7.3c-.6-.3-1.3-.4-2-.4v-.1l-.1-.1h2.9zm-7.1-.1c-2.6 1-4.6.6-6.7.3l1.8-1.4c2.2-.2 4.5.2 6.7 0-.6.5-1.2.8-1.8 1zm-10.2.3c-.8.2-1.5.5-2 .8-1.8-.1-3.5 0-5.2.3a.6.6 0 00-.4-.2h-2c1.1-2.5 5.5-6.2 6.6-7.3 3.2-2.8 7-6.4 10.8-8.4l4-1c-1.1 3.4-2.3 6.7-4.2 9.6-1.3.7-2.3 1.7-3.3 2.8-1 .7-1.8 1.5-2.7 2.3l-1.6 1zm-15.8.7c-2.6-.3-2.5-6.6-2.2-8.7.6-4 2.4-4.6 4.5-7.2l-.2.3c-.1.2.2.4.4.3l.7-.3-.2.5-.1.2v.3c-.1.2.1.4.3.3l1.4-1c.3-.2.4-.5.5-.7v.1c.9 2 1.2 4.3 1.6 6.5L88.9 74c-.6 1.2-3.9 6.7-5.5 6.5zM79 64.8c-3.2-4.5 4.5-11.9 7.6-14l2.6-1.3c0 .2.2.3.3.4-.3 0-.6.5-.8.7-.1.3 0 .4.2.4 0 .2.2.3.3.2l.9-.1h.2l-.8.7c-.2.2 0 .5.2.4h.4l-.2.2c-.1.2.1.4.3.3.4 0 .7-.2 1-.4l-.3.6c0 .1 0 .3.2.3l-.3.4-2.4-.1c-.3 0-.3.3-.1.5l.5.3h-.3c-.3-.1-.5.3-.2.4.4.3.7.7.8 1.1-1 .9-2.1 2.9-3.3 4.8h-.6-.3l-.3.4h-.2s0-.3.3-.8c0-.2-.3-.3-.5-.1l-.7.4-.4-.4c-.1-.1-.4-.1-.4 0-.2.9-.2 1.2 0 1.7h-.1-.3l-1.8 1v.3l-.3.2c-.2.2 0 .5.3.4l.9-.3.1.4c-.2.2 0 .5.2.4l.6-.2h.2c.1 0 0 .3-.3.8-.1.2 0 .4.2.4-1.1 1-2.3 1-3.4-.4zm-9.5 14.8c-1.3-2-3.2-3.6-4.5-5.5-1.7-2.6-1-4.1-1.6-6.7l-.6-1.7v-12h.3v.1c.2.3.5.2.5 0v-.3c.2 0 .4-.2.3-.4-.6-1 .3.2 1.4.6.3.1.4-.2.3-.4l-.4-.3c.2 0 .2-.2.2-.4v-1l1.5.1c.3 0 .3-.4 0-.4l-.1-.1c.1-.1.2-.4 0-.4-1.5-.3-1.1 0 0-.6.2-.1.1-.5-.2-.5-1 0-1 .2 0-.5.2-.1 0-.5-.3-.4l-.2-.2c.1 0 .2 0 .3-.2l.8-.6c0 .2.2.3.4.1.9-1-.1.3-.2 1.1 0 .3.3.3.5.1.7-.9.3-.7.3.4 0 .3.4.3.5 0l.2-.7c0 .3.4.3.5 0a31 31 0 017 11h.1c-.5 3.9 1 7.1 1.6 11.1.5 3.7-2 11.8.5 14.3-2.3 7.1-7.9-3.8-9-5.6zm-6.8-50l1-1.2.2.2-.4.3-.2.1-.1.2-.5.4zm2.5 21.7l-.2.4v.3a1 1 0 00-.5-.3l.3-.5h.3v.1zm-1-5v-1l.2-.2.8.6-.5 1.2c-.1.2.1.4.3.3l.5.2-.1.2v.2a58 58 0 01-2.2-.7V47c0-.9-.3-1.4.5-.6.2.2.4 0 .5-.2zm6.2 2c.1.2.3.3.4.1.2.4.3 1 .3 1.4l-1.5-1.7c.2-.2.5-.3.8.3zm2.9-2c0 .1 0 .3.2.3.4 0 .6.1.6.3v.1l-.8.5c-.6.6.3 1.5.9 1v1c0 .2.2.3.4.2l.5-.7.2.2.1 1c0 .3.4.4.5.1v-.8l.3-.1c.1.1.3.1.4 0l2 2v3a12.2 12.2 0 00-1.9 4.2 28 28 0 00-4.8-8v-.1l-.5-2.8a7 7 0 011.9-1.4zM71.7 34c.4 0 .6-.1.9-.3.2-.2.2-.5.1-.7l.5-.5-1 2-.6-.5h.1zm5-4.5l.6-.2.4.1-.1.5-.9-.2v-.2zM78 48.3l.2-.6h.2l.1.4c0 .1.2.2.4.1l-.2 2.6-1.8-2 .2-.4v-.2c0-.3.2-.3.4.2.1.2.4.1.5 0zm3.7-.5l.6-.3c0 .2.2.3.3.2l.7-.4c.2 0 .3 0 .5-.2 0 .1.2.2.3.1l.6-.4-.2.6c0 .2.2.4.4.3l.6-.5v.5c0 .2.2.4.4.3l.3-.2-.8 1.4c-2 1-3.9 2-5.4 3.7v-1c.4-1.4 1-2.7 1.7-4zm-1.5 0c.4-.1.8-.2.8 0l-1 2 .2-2zM81 27v.3l.4.7-.6-.1c0-.4 0-.7.2-.9zm1.4-3.5l.3-.1-.1.4a.7.7 0 00-1-.1c-.3-.9-.4-.6.8-.2zm-.2 3.1v-.3l.2-.7H82.7V27c-.1 0-.2 0-.3.2v.2l-.2-.5v-.2zM85 22l.1.3h-.5L84 22v-.2c.3 0 .7.2.8.3zm1 24.2h1l-.2.6-.7.5v-.8l-.1-.2h1-1zm1.5.5l-.1.5c-.1.2.1.4.3.3.8-.5 1.2-.7 1.1.2l-2.3 1 1-2zm2-27.1h-1c.5-.7 1-1 1 0zm1.4.4c.2-.1.2-.2.2-.3.2-.1.3 0 .5.4l-.3.3H91c0-.2-.2-.2-.3-.3V20zm-1.5 34h1.2l-.5.6-.7-.6zm-1 10.2c-.8 1-1.2 1.5-1.3 1.1l.1-.1h.4l.4-1 .2-.1.2.1zm2.7 1.4v-.1c.3-.2.4-.5.5-.7l.6.3-1 .5zm-.8 2.4l.6-1.8 1.5-.7v.2c-.8 1.4-1.3 2.8-1.8 4.2l-.3-1.9zm0-2.5l.1.2-.4 1.2-.3-1.2.5-.2zm-1.4-2.1l-.2-.3c.6 0 1.1 0 1.7.2-.4 0-.7.2-1 .4v-.1c0-.3-.4-.5-.5-.2zm6-8.4l.3-.2.4 1c.2.3.5.2.5 0v-1c.3-.3.5-.8.8-.2 0 .2.2.2.3.1.8-.3.7-1.1.7 0 0 .3.3.4.4.2l.3-.5.2-.2v.1c0 .2.4.3.5.1.3-.3.4-.9.6-1l.8.9c.5.5 1 1.1 1.4 1.8.2.4.5.6.8.7l-1.4 1-.1.1h-.3l.2-.2c.1-.2 0-.4-.2-.4v-.6c0-.2-.4-.3-.5 0v.2c-.1-.1-.3-.2-.4-.1-1 .7-1 .5-1.1-.4 0-.2-.4-.2-.5 0-.3.4-.2.3-.3-.5 0-.2-.3-.2-.4 0-.7.7-.2.7-.6-.2 0-.2-.3-.3-.4 0-.3.5-.4.7-1 .3l-.3.1c-.5 1-.5 1-1.3.2-.1-.1-.3 0-.4 0-.5.8-1.5 1.3-2.4 1.9-.7.3-1.4.7-1.7 1l.1.1-.2.3c-.1.1-.1.3 0 .4.4 0 .5.1.6.2a9 9 0 01-2 .4c.7-1.1 1.5-2.2 3-3.4a18 18 0 013.6-2.2zm-.3-35.1l.1.3c-.2.2-.3.5-.1.8a5 5 0 00-1-.3c.3-.2.9-.5 1-.8zM99 25l.7.1-.8.7h-.3l.4-.8zm2.3 27.8h.3c.6 0 1.2-.3 2-.4l.1.2.2 2.2h-.2c-.1-.2-.3-.2-.4 0-.2.2 0 .4.1.4l.1.1a1 1 0 01-.6-.1c-.3-.2-.5.2-.3.4l.2.2h-.1l-.1-.1-1-1.5-1-1c.3-.5.4-1 .7-.4zm2.2-26.3l-.1.7a7 7 0 00-.9-.4l1-.3zm-.3 34.1v.2l-.2.1h-.3v-.3h.2l1-.4-.1.6v-.3c-.2-.2-.6-.1-.5.1zm0-1.5l.2.2-.7.7h-.3l.8-.9zm-.2-1l-.9-.3 1.1-.6-.2.9zm-2.7.4v-.3l.1-.1v.1h.1v.4c0 .2.2.4.4.3l.3-.3v.3L99.8 60h-.4l.2-.4.8-.2-.2-1zm-3 9c.2-1.2.5-2.4 1-3.6l1-.6 1.3-.4v-.1h.1c.3-.5.8-.6 1.3-.7.2 0 .4-.2.2-.4l-.3-.2h.4s0 .2.2.1c.2 0 .5 0 .7-.2h.2l.1.5v.2c0 .4 0 .7-.2 1-1.9 2.1-4.3 4.2-6.5 5.6l.4-1.3zm-3.7-.1l1-2.4 1 .4-2 2zm2.5-1.9l.7.1c.2 0 .3-.2.1-.4l-.2-.2.5-.6h.3l-.5 1.8c-.2.9-.4 2-.8 3-1 .5-2 1-2.8 1.1v-2l2.7-2.8zm8.4-5.6l.5-.3h.1l-.3.7c-.1.2.1.4.3.3h.1l-.9 1 .2-1.7zm.1-28.6l.2-.3.2.1c1 0 .5.2-.3.7l-.3-.1.2-.4zm1.5 21.5h.1l-.4.4c-.1.2 0 .5.2.4.8 0 .6 0 1.3-.2l-1.3 1v-.3c0-.2-.3-.3-.4-.1l-.6.5v-.4c0-.2-.2-.2-.4-.2l-.1.2v-.7c.6-.2 1.1-.3 1.6-.6zm-.1-1l.6.3c-1.1.6-1.8 1-.6-.3zm4.7 9.8l1-.7-.6 2.4-2.8.6c1-.5 1.8-1.3 2.4-2.3zm-.4-23.3c.6-.3.6-.3.5.5l-.7-.2.2-.3zm3 21.8l3.1-.9-3 3.6-.9.2.9-3zm3.2-20.6l-.7-.5c.7-.6.8-.3.7.5zm1.8 19.6l1 .1a13 13 0 01-2 2.7l-2 .5 3-3.3zm1.7.2l.9.2-.1.3c-.1.2.1.4.3.3l.8-.2.6.5a31 31 0 01-4 1.3 16 16 0 001.5-2.4zm.5-19.9h-1c.6-.9 1-1.9 1 0zm-58.1 5.4l-1.6.2.8-.4.8-.1v.3zm-.1 19.3c-1.4-2.6-3.3-5-4.8-7.7 0-.2-.2-.4-.3-.5v-.1l.4-1.2h.1v-.2l.7.2-.1 1.3c0 .3.3.3.4.1l.2-1.3.1.3.3.3c.2.2.5 0 .5-.2-.2-.2-.3-.3-.3-.5v-.1l.3.5c0 .2.3.2.4 0 .5-1-.2-1.2.6-.4.2.1.5 0 .5-.2l-.1-1 .6.7c.2.1.5 0 .5-.2v-.3 10.5zm-1.5 3.6c-4-1.3-7-6.8-10.4-9.9l-.9-2.4 1.6-.5c-.3.4-.5.7-.6 1.2 0 .1 0 .3.2.3.3 0 .5 0 .7-.2.5-.4.4.4.6.8.1.2.4.2.5 0a35 35 0 016.6 4.7 10 10 0 011.7 6zM47.5 56.2l.6-.5h.8l.4 1.4c-.5-.4-1.1-.7-1.8-1zm-6 .9c.2-.7 0-1.7.3-.5 0 .1.2.2.3.1l.4-.2c0 .2.3.3.4.2.3-.7.6-.8 1-.3h.3c.2-.3.6-.4 1-.5l-.3.4.5.7a15 15 0 002.9 3.1c-2.5-.4-4.7-1.6-6.8-3zm-.6-27l1.4-.3-.8.6-.6-.3zm9.4-5.4v.2l-1.1.1-.3-.2h-.1c.4-.3 1.5-1 1.5 0zM53 56.2l.1-.2v.2c0 .2.2.3.4.3.4-.1.5-.4.7 0 .2.2.5-.1.4-.4l-.2-.5c0-.3 0-.7-.3-.8l-.2-.6c.5 1 1 1.9 1.8 2.9l2.4 3.2a36.9 36.9 0 00-5.4-3.7l.3-.4zm.6-33.1c0-.7.2-.8.6-.5.1.2.4.1.4 0l.3.1v.2l-.2-.1c-.4 0-.8.2-1 .3h-.1zm3.7 1l-.3.5h-.2l-1-.1 1.5-.4zm-.1 29.4l-.5 1.5-.4-1.4h.9zm-.7-.4c.1-.2.2-.3.1-.5l1.2-.7-.4 1.1a4 4 0 01-.9 0zm.7-31.2l1.3-.1v.4c-.1 0 0 .1 0 .2H58l-.1-.1a2 2 0 00-.6-.2v-.2zm3.2 5l.4-.1.3.8H60l.5-.8zM39 56.6l.4-.1.3.1c-.1.5-.3.6-.7 0zm-.5-25.6c-.3-.3-.3-.4.6-.4h.2l.3.2-1.1.2zM38 57.7c0-.2-.4-.3-.5 0v-.1-.3l1-.3c-.3.7-.5 2-.5.7zm-2.3-10.6c-.1.7-.5 1.1-1 1.5v-.3l.5-.8.5-.4zm-1.8-1.7l.4-.5 1 .7-1.4-.2zm-1.8-13.2V32l.4-.4c.3 0 .7.3 1 .5l-1.4.1zm.6 25.5c0-.2-.2-.3-.4-.1l.4-.5c0-.1 0-.4-.3-.3l-.7.3v-.2l1.2-1v.7c0 .2 0 .3.2.4l-.4.7zM29.5 43V43c0-.2 0-.5-.3-.4h.4c.2-.1.2-.4 0-.5l-.2-.1 1.3.1c.1.2.4.2.6 0h.2c.2 0 .2-.1.2-.3l.6-.4v.5c-1 .5-1.8.9-2.8 1.2zm1 2h-.1c-.6.6-.6.5 0-.4.2-.2 0-.4-.2-.3-.7.3-1 .3-.8 0h.4l1.4-.2-.7.8zm-1.4-1.2c-1.3.4-1.3.2 0-.4v.4zm.2-11.7c-1-.2-1.9-.4-2.6-1-.3-.2-.5-.3-.8-.2.4-1.1 1.2.1 1.7.5.1.2.4 0 .4-.2 0-.3.8.2 1 .3 0 .3.5.3.5 0V31v.2c.2.1.4 0 .5-.1.1-.5.3-.6.5-.4-.4.3-.8.7-1.2 1.4zm-.4 4.7c-.4-.3-.7-.4-1-.4l.2-.2V36l1.2.5c-.1 0-.3 0-.4.2zM24 33h-.2l.3-.5c.8 0 1.3 0 2-.3l.7.4c-1 0-1.9.2-2.8.4zm-.3 3c.1-.1 0-.3-.1-.3 0-.1 0-.2.2-.3h.6c-.6.7-1.7 2.2-.7.6zm1.3-4.8c.1-.9 0-.9.6-.3h.2l-.8.3zm7.3 7.1l-.1.5c-.3.5-.7.8-1.2 1l-.3-.2h-.1l.3-.3c.2-.1 0-.4-.1-.4l-.8.1c.8-.4 1.5-.5 2.3-.7zm-2.3 19c-.3.8-.3 1.8-.5.8 0-.2-.2-.2-.3-.2v-.3c.2 0 .5-.1.6-.3l.1-.2.1.2zm-1.5-1.9c-.4.2-.2.1 0-.1.1-.3-.2-.5-.4-.3-.8.8-1 .6-.3-.4h.3l.7-.3v.1l-.3 1zm103.5-5c1 0 1.6-.4.7.3h-.2l-.5-.3zm2.2 1.5c.3-.2.1.1-.6.8v.1h-.6l.1-.5h.2c.4.2.8 0 1-.4zM146 63.8c-.5 0-1 .1-1.5.4.2-.1 0-.4-.2-.5l-2.3-.2.3-.3c.2-.2 0-.5-.3-.4l-1.5.6-.4-.1.9-.6c.2-.1.1-.5-.2-.5-1.6.2-1.6.4 0-.2.1-.1 0-.5-.2-.5l-1.5.2c0-.4-.4-.6-.8-.5l-.5.2c0-.1-.2-.2-.3-.1 1.3-.7.4-.4-.8.2.3-.4.5-.8.6-1.4.1-.3-.2-.5-.4-.3l-.4.7v-.1c.2-.3-.2-.5-.4-.3-1.1 1.6-.7 1-.3-.5.1-.3-.3-.4-.4-.2l-.7 1-.6.1.2-1c.1-.2-.3-.4-.4-.1-1 1.9-1.2 2-.6.4.1-.3-.3-.4-.4-.2l-1 1.8-.2.1v-.2l.9-1.7c0-.2 0-.3-.3-.4 0-.1-.1-.2-.3-.2-1.5.6-1.4.5.2-.3.2-.1.1-.5-.2-.4l-.3.2.7-.7c.1.3.4.2.4 0v-1.3l-.1-.2c0-.8.2-.9.4-.2.1.2.4.2.5 0l.2-.6H134c.2.1.3.6.5 1.1.1.3.5.1.5-.1V56h.2c.3-.4.3-.7.2-1l1 .7c.1.2.4 0 .3-.3-.5-1-.3-1 .8-1.2.2 0 .3-.3.1-.4 0 0-1-.4-.5-.6.2 0 .2-.5-.1-.5-1 0-1.9.5-1-.5 0-.2-.1-.6-.4-.4-1.2.8-1.2.7-.2-.4.2-.2 0-.5-.3-.4-.7.6-.5.3.6-.8.2-.2 0-.5-.3-.4-2.2 1.3-2.5 1.4-1 .4.2-.1 0-.5-.2-.4h-1l-.5-.3h-.2l-.3-.4-.8-.2.2-.3.5-.1c.1 0 .2-.2.1-.3h.2c.3.2.4-.3.2-.4-1.7-1.3-.1-.7 1.2-.6.2 0 .3-.3 0-.4l-1.4-.7.4-.3-.4-.5h.2c.2-.1.2-.5 0-.5l-.9-.6V44l-2.4-1.3c-.5 0-.8.3-1 .4l.2-.5c0-.3-.2-.4-.4-.3-1 .5-.3-.6-.1-1 0-.2-.3-.4-.4-.2l-1.1.8-.1-.3 1-1.2c.2-.2 0-.5-.3-.4-1.6.8-1.6 1.2-.4-.3.1-.2 0-.6-.3-.4H125.5l.2-.4c.1-.2 0-.5-.3-.4-.9.8-1.1.7-.7-.2.1-.2-.2-.4-.4-.2-1 1.2-.6 1.1-.3-.3 0-.3-.3-.4-.5-.2-.8 1.3-.8 1.6-1-.1 0-.3-.4-.4-.5 0v.1h-.5c-.7 1.3-.5 1-.5-.4 0-.2-.3-.3-.5 0-.3.7-1.4 3.5-.8.9.1-.3-.3-.5-.4-.2-.8 1.3-.6 1.8-.5.1 0-.2-.3-.4-.5-.2-.8 1.6-1.1 1.5-1-.2 0-.3-.3-.5-.5-.3-.8 1-1.2 2-.8.3 0-.3-.3-.5-.4-.3-1.1 1.2-.7 1.1-.4-.2.1-.3-.3-.5-.4-.2l-.5.8-.2-.2h-.1V37c0-.3-.4-.3-.5 0 0-.3-.4-.4-.5 0-.3 1.2-.3 2.6-.3.2 0-.2-.4-.3-.4 0l-.2.4c0-.1-.2-.2-.3 0l-.3.7a1 1 0 00-.3.2l.3-1.4c0-.2 0-.3-.2-.3l.1-.1c.2-.3 0-.6-.3-.4l-.3.3-.3.2.2-.5c.1-.2-.2-.3-.3-.3l-.2.1.2-.2c.2-.2 0-.5-.3-.4l-.7.5v-.2l.3-.7c0-.1 0-.4-.3-.3h-.2l.5-.4c.2-.3-.1-.5-.3-.4a2 2 0 01-.7.3h-.1c0-.2.2-.5.6-1 .1-.1-.1-.4-.3-.3-1 .8-.8.3-.7-.8 0-.2-.2-.3-.4-.1-.1 0-.3-.1-.4 0a6 6 0 00-.6.3 4 4 0 00-.6-.2c0-.1 0-.2-.3-.2h-.7l1.4-.8c.3-.1.1-.5-.1-.5-1.1.1-.9 0 .8-.5.2 0 .3-.4 0-.4l-.8-.2v-.3h.1c.3-.2.1-.5-.1-.6h-.3-.3c.1-.1.1-.4 0-.4h-.3l.1-.7c.1-.2 0-.4-.3-.3h-.7c0-.2.3-.4.7-.6.2-.2 0-.5-.2-.4h-.4V26c0-.3.6-.9.7-1 0-.1 0-.4-.3-.4h-1.5a1 1 0 00-.4.3c0-.2-.3-.3-.4-.2l-.9.2.7-.6c.2-.2-.1-.5-.4-.3l-.6.6c-.1-.2-.2-.3-.4-.3l-.4-.1 1-.3c.2-.1.1-.6-.2-.5l-1.3.5c.2-.1.2-.5-.2-.5-1.4.1 0-.3.4-.5.3-.2.1-.4 0-.5l.1-.4-.1-.3c-.9-.1-.8-.3.3-.6.2-.1 0-.5-.2-.5-.6 0-.9.2-1 .3 0 0 0-.2.2-.3.2-.2 0-.5-.2-.4l-.8-.1c.2-.2 0-.5-.2-.4-1 .2-2 1-.8-.1.2-.2 0-.5-.2-.5-1.3.2-2.6.6-2.5.1.1-.2-.2-.4-.4-.2l-.3.3c.1-.3-.3-.5-.4-.3l-1 1.2-.1-.4.2-.5c.1-.2-.1-.5-.3-.4-.5.3-1 1.1-1.2 0 0-.2-.2-.4-.4-.2l-.8.7c-.5-.1-.7-1-.8-1.3 0-.2-.2-.2-.3-.2-.4.2-1.7.8-1.9 1.1l-.2.7-.7.1-.1-.3c-.2-.2-.5-.1-.5.1v.5s-.2.1-.2.3v-.1c-.2-.2-.5-.2-.5 0l-1.4.6-.4.1-.1.2a1 1 0 00-.5.2l-.1.2-1.9.4c-.2-.2-.5 0-.4.3l.4 1c-.2-.3-.5 0-.4.2l.7.7s0-.1.2 0v.2l-.2-.2v.3l-.5.4c-.2.2-.3.5-.1.7v.3l-.1.2c.1 1.2-.1 1.4-.8.4h-.3c-.2-.2-.4 0-.4.2l.1.7-.4.3-.3.2v-.1-.3c.2-.3 0-.4-.3-.3l-.2.4c-.1.3-.3.5-.5.5-.3 0-.3.5 0 .5h.6v.1l-.1.2-.5-.2H77l-.4.2-.2-1c0-.2-.3-.4-.5-.1l-.7 1.2c-.2.3.3.6.4.3l.4-.7.1.5-.1.5h-.2l-.2.2c-.2-.1-.2-.4-.5-.4-.1 0-.2 0-.2.2-.1-.2-.4-.3-.5 0l-.2.3c0-.3 0-.5-.2-.5-.1-.2-.3-.2-.6-.3l-.3.3c0 .5.2.9.3 1.3v.1h.1l-.6.6c0-.2-.2-.3-.3-.2-.3 0-.4.2-.6.3l-.3-.3v-.6c0-.1-.2-.3-.4-.2a1 1 0 00-.5.4l-.2-.3c-.2-.2-.4 0-.5.1v1L70 31c-.1-.2-.5-.1-.5 0l-.5 1.5h-.3a2 2 0 00-.6-.6H68l.7-.8c.2-.3-.2-.6-.4-.4l-.2.3h-.3l-.5.6-.2.2v-.4l.4-.9c0-.2-.1-.3-.3-.3V30c0-.2 0-.2-.2-.2l.2-.4V29l1.2-1.2c.2-.1 0-.5-.2-.4l-1 .3h.1c.3-.1.2-.6 0-.6h-.1l-.9.2.4-.5-.1-.4-.8.1c-.3.3 0-.3 0-.7-.1-.1-.3-.2-.5 0-.1-.2-.5-.2-.5.1l-.2.8c-.2-.3-.3-.6-.7-.8-.2 0-.4 0-.4.2v1.1l-.6 1.1c.1-.4.3-.9.6-1.3.1-.2-.2-.4-.4-.3l-.5.4a5 5 0 00-.3-.8l-.2-.2c.3-.4.4-.8.6-1.5l.5-.5c.1-.2 0-.5-.3-.4l-1 .4h-.6l.7-1.3c0-.2-.2-.5-.4-.4h-.3c-1.1 1.2-.8-.7-.8-1.3 0-.2-.3-.3-.4-.1-.7.5-.3.5-.6-.4 0-.3-.4-.3-.5 0l-.1.3c-.6.4-1.1.3-1.7-.2-.2-.1-.5 0-.5.2v.3c-.5 0-.1.7-1.3-.5-.1-.1-.4 0-.4.1.2 1.2.2 1.4 0 .5 0-.2-.4-.2-.5 0-.4 1.2 0 .6-.3.2-.1-.2-.4-.1-.4 0-.2.5-.2 1.2-.7 1h-.3l-.1.5c-.2-.1-.4-.1-.4 0-.3.8-.4.6-.9 0-.1-.2-.4 0-.4.1l.1.8-.2-.2h-.3l.1-.3c0-.2-.2-.3-.4-.2l-.8.6c0-.2-.3-.2-.4 0-.6.4-.4.5-.6 0 0-.2-.3-.2-.5 0l-.3.5-.2-.5c-.1-.2-.4-.2-.5 0l-.3.3h-.2c-.1 0-.3-.2-.5-.6-.1-.1-.5-.2-.5 0 0 1-.1 1-.3.3 0-.2-.4-.2-.4 0-.3 1-.7 1.2-1.4.4-.2-.1-.4 0-.4.2V25.4l.6 1.1c-.1 0-.3.1-.2.3l.1 1v.1l-.9-.6c-.1-.1-.3 0-.3.1v.2h-.1c-.2-.1-.3-.1-.4 0v-.1c0-.2-.3-.3-.4-.2-.2 0-.4.1-.3.3v.5l.1-.1-.1.2v.5a4 4 0 01-.5 0c-.1-.2-.2-.5-.5-.7-.1 0-.4.1-.3.3v.2c-.2 0-.3-.1-.4 0l-.4-.6c-.1-.2-.3-.2-.4 0l-.3.2v.3l.7.7c-.3.2-.5.5-.4.8l-.9.1c-.2 0-.2.2-.2.4v.3c.8.6.6.6-.4-.2-.2-.1-.4.1-.3.3-.5-.3-.7-.8-.5-1.3 0-.2-.4-.3-.5-.1-.5.9-.3.9-.3-.2 0-.2-.4-.3-.5 0v.8c0-.2-.3-.3-.4-.2-.3.5-.5.3-.6-.4-.1-.2-.4-.2-.5 0-.4.2-.5 0-.5-.5-.1-.3-.5-.1-.5.1v.4c0-.2-.5-.2-.5.1h-.6c-.1 0-.4 0-.4.2.1.9-.1.8-.8 0-.1-.2-.4-.3-.4 0-.2.8 0 1-.6.4-.2-.2-.5 0-.4.2l.1.2-.1.2c0 .6-.2.4-.6-.4h-.4c-.6.8-.8 0-1.6-.7-.2-.1-.4-.1-.4 0-.2.8-.3.6-1 .2-.1-.2-.3 0-.3.3.2 1 .2.8-.6.2-.2-.1-.5 0-.4.3l.3.7h-.2l-.8-.3-.3.1-.1.3v.3c.6.8.1 0-1-.2l-.4.1-.2.6.1.3c.8.1.8-.2.5.2l-1.5.8c-.3.2-.1.6.2.5 1-.5 1.3-.4.5.6-.2.2 0 .5.3.4l-.3.3c-.2.2 0 .5.3.4l1-.1c-.3.2 0 .5.2.4 1.2-.7 1.2-.5.2.6-.1.2 0 .5.3.4l.2-.1-.5.5c-.2.2.2.5.4.3 1.1-1 1.5-2 .8-.3 0 .3.2.4.4.3l.5-.6c.2.3.6.4.8.2l.9-.5v.6l-.1.3-1.1.8c-.3.2-.1.5.2.5 1.1-.2 1.4-.5.5.6-.2.2 0 .5.3.3.7-.3 1.2-.7 1.4-1.4 0 .2 0 .3.3.2 1.4-.4 1.3-.7.2.4-.1.1 0 .4.2.4l.8-.2.2.2c-.2 0-.4.4 0 .5h.1c-.2.2 0 .6.2.5h.2l.1.2.3.2v.3h-.7V41l-.1-.3c-1.3-.3-.8-.3-2.1-.3-.2 0-.4.4-.1.5l1.6.7v.2c.8.7.3.3-.6.9-.2.1-.2.4 0 .4v.1c-.2.1-.1.3 0 .4-.3.1-.6.4-.9.7-.1.2.1.4.3.3.4 0 1.7-.8 1.5 0 0 .1 0 .3.2.3 1 0 .6 0 0 .9 0 .2.1.4.3.3l-.3.4c-.1.2.2.5.4.4.2-.2 1.4-1.4 1.1-.6 0 .2 0 .3.2.3l1.3.5h-.1l-1 .3c-.2 0-.2.3 0 .4l.1.4c-.2.2-.2.4-.2.5a2 2 0 01-1.5.2c-.2 0-.4.2-.3.4h-.6c-.2-.2-.4 0-.4.2v.3l-.1-.1c-.3-.2-.5.2-.3.4l.3.4-.1.3v.3c.6.7-.3.5-1.2 1v.5c1 .2-.3 1-1 1.6-.2.2 0 .5.3.4 1.8-.8.7-.5-.3.6-.2.2 0 .6.3.4 1.5-1 1.3-.6.4.7-.2.2.1.4.3.3.7-.4 1.2-1.3 1-.5-.2.2.1.4.3.3l.6-.4.1 1.1-.5.6c-.2.2 0 .5.1.4 1.3-.1.4 0 0 1.2 0 .3.4.5.5.2.4-1 .5-1 .6 0 0 .2.4.2.4 0 .3-.5.4-1 .6-1.6 0 .2.2.4.4.2l.3-.7h.1l.2.1c0 .1.2.2.3.1.6-.3.4-.5.4.3v.5c0 .2.3.3.4.2.8-1 1-1.7.6-.3 0 .3.3.5.5.2.5-.3.8-.6.8-.9h.2l.1-.4c.1.3.3.4.7.4h.6c.1.4.1 1-.1 1.5 0 .3.4.4.4.1l.3-1.7v.1c0 .2.1.3.3.3.6 0 0 .4 0 1.2 0 .3.3.4.4.2.3-1.2.4-1.4.3-.4 0 .2.4.4.5.1.4-1 .7-2 1.6-1 0 .2.3.1.4 0l.3-1c2.7 1.9 5.6 3.5 9 3.7 2.6 2.2 5.8 4.3 7.8 7 3.8 5.7 7.6 11.3 11.2 17 2.9 4.4 2.9 8.1 3.8 13 .3 1.6.9 3.1 1.4 4.7 1.2 3.7 2.3 7.3 0 11-3.1 5-8 9.3-11.3 14.2 3.8 3.6 12.3 2.1 16.8 1 .4-4.8 3.7-8.8 5.8-13 3.7-7.8-.9-9.3-3-16.3-2-6 2.3-11 8-13 6-2 13.2-2.2 19.1-4.6l2.6-1.3c.2 0 .5 0 .5.2 0 .3.3.4.4.2l.2-.1v.1c-.1.3.2.5.4.2h.8l.2.5c.1.1.3.2.4.1l.6-.4.5.1h.2v.2c.2.2.4.2.5 0l.1-.2.5-.2h.4l.1-.2h.2v.6c0 .2.4.2.5 0 .3-.9.5-.8.5.2 0 .3.4.2.5 0 0 .2.2.3.3.4 0 .3.4.4.4.1.2-1.1.2-1 .3.2 0 .3.4.3.5 0 .4-1.3.4-1.5.8-.2 0 .3.5.2.5 0-.1-1.3 0-1.2.2.3 0 .1.3.2.4 0l.5-.5.1.5c0 .3.5.2.5-.1v-.3h.1c.3.2.6.2.8.2.2 0 .4 0 .5-.2l.4.5c.2.2.5 0 .4-.3l-.2-.8v-.1c.2 0 .3-.1.3-.3l-.1-.4.3.6c.1.2.5.1.5 0 .3-1.6.1-.7.3.3 0 .3.3.4.4.1l.2-.3c.1 0 .3 0 .3-.2.2-.5 0-.8.3.5 0 .2.4.3.5 0 .2-.3.2-.7.3-.3 0 .2 0 .2.2.2 0 .3.4.4.5.1v-.4h.3c0 .3.1.4.3.3 0 .4 0 .7.2 1.1 0 .3.5.2.4 0 0-1.2 0-1.3-.2-1.7.4-.9.8-1.7 1.2.1l-.2.4c-.1.3.2.5.4.3.7-.7.9-.7 1.3-.6v.7c0 .2.4.4.5.1l.1-.2c.1.1.4.2.4 0v-.4c.2 0 .3 0 .3-.2.2.3.6.2.5-.1l.3-.2.2-.1.2-.3c0 .2.2.3.4.6.1.1.4 0 .4-.2 0-.3 0-.6-.2-.8h.1l.1.2c.1.2.5 0 .5-.2l-.1-.4c.2 0 .4-.2.3-.4v-.2.2c.2.2.6.1.6-.2l-.1-1.3v.2c.2.3.6.1.5-.2v-.2l.4.3c.3 0 .6-.2.3-.4-1-1-1.3-.9 0-.4.3.1.4-.1.3-.3h.2c.3.2.5-.2.2-.4l-.4-.8.2-.2h1.1c.3 0 .3-.5 0-.5h-1.1l1-.5c.3-.2 0-.5-.2-.5a8 8 0 01-2 .4h-.3c0-.1 0-.4.5-.7.2-.2 0-.5-.2-.4l-1 .4-.1-.2c.2-.1.2-.5 0-.5h-.8l.8-.3c.2 0 .2-.4 0-.4-.4 0-.6-.1-.7-.2h.1l1-.4c.3 0 .3-.4 0-.4-.5-.2 0-.4.5-1.2V69.8l.2-.1h.1c0 .2 0 .6.2 1.1 0 .2.4.3.5 0 .5-1 0-.2 0 .7 0 .2.4.4.5.1v-.1.2c0 .3.3.4.5.2l.1-.3v.3c-.2.3.2.5.4.2.5-1 .2-.6.5.5 0 .2.4.2.5 0 .2-.8.1-.4.5.3.2.2.5.1.5-.2-.1-1.2-.1-1.8 1.1-1 .3.2.5-.1.4-.3l-.5-1c.1.2.4.1.5 0v-.6l.4.2c.2 0 .4 0 .3-.3 0-.3-.2-.5-.3-.7.9 0 .9-1.3 0-1.3h-.1c-.2-.3-.1-.4.2-.5 0 .3.3.4.5.2v-.2h.7c.2 0 .4-.2.2-.4l-.4-.8-.2-.2.2-.3c.1 0 .3 0 .3-.8l-.4-.2.7-.3c.3-.1.1-.5-.2-.4zM363.5 67.8c-.1 0-.1 0 0 0M437 82c-1.5 0-3-.1-4.5-.4a56 56 0 014-1.7l.5 1.3v.9zm-6.3-.8l-.4.2-3.8 2 2.1-3.5c1.8-.5 3.7-1.2 5.1-2.3.5.6 1.6.7 2.4.6l.2.6a62 62 0 00-5.6 2.4zm-9.4 5.4c-4 2.2-8.6 2.5-12.8 3.8 1.5-2.4 3.1-4.8 4.8-7.1 1.2-1.9 3.3-3.2 5.1-4.6 2.4-.2 4.4-1.4 6.3-2.8.9.3 2 .7 2.8.7.4 0 .5-.2.5-.5l.5.2c.3.1.6 0 .6-.4v-.5l.5.5c-3.2 3.2-4.2 8.4-8.3 10.7zM405 90.9c-.4.7-1.6 3-2.9 4.3-.1.4-.5.6-.8.7a2 2 0 01-.5.2 25.8 25.8 0 01-2.3 7.2c0 1.6-.5 3.1-1.5 4.5l-2-2-.2-.1c0-1.7.2-3.3.4-5a65 65 0 011.6-3.8l1.4-3.5v.5l.2-.3v-.8l.1-1.4.4-2 .4-1.7.6-5.4c.8-1.2 1.8-2.2 2.5-3.3.3 0 .4-.2.3-.4l.1-.2c.1 0 .2-.1.2-.3v-.2l.2-.3.2.1c.2 0 .5-.1.3-.3a12 12 0 01-.3-.4l.5-1.2h.4c.2 0 .3-.4 0-.5 0-.1 0-.2-.2-.3l.7-2h.2c.1 0 .3-.1.3-.3l.5.2-.8.7c-.1.2.2.5.4.4 1.4-.7.8-.2.1.9-.1.2.2.5.4.3 1.1-1 1.3-1.5.4.2-.2.3.2.5.4.2l.6-.7-.3 1.5c0 .3.3.5.5.2.5-1 .5-1.9.5-.1 0 .2.3.4.4.2 0 0 .9-1.5.9-.5l.1.3v5.4l-.3 1.1c-.4 1.7 0 2.7-1 4.3-1 1.3-2.2 2.4-3 3.6zm-13.2 10.8l-2-5.3-1.5-3.9a56 56 0 01-5.1-12l-.2-.2a10 10 0 01-.3-1v-.1l.6.5c.3.2.5 0 .4-.3l-.2-.5c.1.2.4.4.9.6.2 0 .5-.2.3-.4l-1-1 2 1.4c.2.1.5-.2.2-.4l-1-.8c.3 0 .3-.3.1-.4l-.1-.2-.2-.1-.4-.3c.2-.3.5-.5.8-.6.2 0 .2-.4-.1-.5h-.2.1l1-.8h.4l.2 1.2c0 .2.4.2.5 0v-.1c.2 0 .3-.1.2-.3V76c.3-.7.4.2.8 1.1.1.2.5.2.5 0l.1-1c0 .2 0 .4.2.7 0 .3.4.2.4 0 .1-1-.1-1.8.6-.4 0 .2.4.1.4 0 0-.4-.2-1.8 0-1.3.2.2.4.2.5 0l.2-.2 1.6 2.9.2.3 1 1.6-.4 1.2c-.1.3.3.5.4.2l.4-.7 1.3 1.8.9 3.8v3.5l.1.2c-.6 2-1.4 3.8-2.2 5.7-.8 1.8-1.9 4-2.4 6.3zm-6.7-10.1v-.1a41.8 41.8 0 00-4.5-2.2h-.1v-.1a70.5 70.5 0 01-4.2-2.2c-1-.6-1.7-1.3-2.4-2a23 23 0 01-2.8-5.8l.3-.6-.1.6c-.1.3.3.4.4.2.4-.5.3-1 .3-.4 0 .2.3.3.4.2.7-.7.5-.7.4.2 0 .3.2.5.4.3.7-.7.6-.9.8.1 0 .2.4.2.5 0 .3-.6.4-.6.3.2l.1.2c.7.3.6.2 1.2-.2l.1-.2h.3c.8 1.1 1.7 2.1 2.6 3l3 3.3c.5.5 1 1 1.6 1.3l2 4.6-.6-.4zm-4.6-1.5zm-11.6-10.9c.5-.8.7-.8.6 0 0 .2.3.4.4.2l.5-.6.1.4v.2a32 32 0 001.4 3.4l-3-3.6zm2-1.6h.3c.1 0 .3 0 .5.2h-.1c-.7.8-.6 1-.6 0v-.2zm6.8 2.5c.2 0 .5-.2.3-.4l-.2-.3.6.2c.3.5.8.9 1.3 1.1l-1-.2.2.5 1.4.3a44 44 0 013 5.2l-1.1-1.1-2.9-3-2-2.4h.4zm18.8-23.5v-1h.2v.5l.1.2-.3 1-.2-.4c.1 0 .2-.1.2-.3zm4.9-1.3l.5.4c-.2 0-.2 0-.3.2v-.2h-.5l-.2-.4h.5zm3.8 2.4l.1.2.6 1.2a4 4 0 01-.4 0 5 5 0 00-.5-1.4h.2zm2.1-2.2l-.2.1-1.2-.6h-.1a2 2 0 00-.3-.2c.5-.1 1.3.3 1.8.7zm6.5 18.3l-.4 1-.2-.7.3-.7c0 .1 0 .3.3.4zm-4 2.3c.6-1 .5-1 .7.2 0 .2.3.3.4.1.8-1 1-2.6.9-1 0 .3.2.5.4.2l.7-1 .2.8-.1.5c-1 1.7-2.3 3.3-3.1 5V76zm-1.3-1.6l.2.2.4.2c-.6.8-.8.7-.6-.4zm-5.5-.7v-1.5l1.3.5-.6 1.8-.7-.8zm-1.6 5.7c-.7-1.4-.6-1.4.5-.8l-.5.8zm-1.3.2h.4l.1-.5.5.7-1.1 1.4v-1.6zm-3.9 1.9l.1-.4.4-.1c.4-1 .6-.6 1 0 0 2-.2 4-.6 5.9 0-.4-.2-.7-.3-1 0-1.5-.3-2.9-.7-4.3l.1-.1zm-3.1-5a3 3 0 00.7 1v1.2l-.7-1.2v-1zm14.2-7.4c.2-.1.2-.2.2-.4l.3.2c2.2-.4.9 0-.2.5h-.1l-.2-.3zm.6 2.7l-.2-.3-.5-.8h-.3l-.2-.5.4.3c.1 0 .3.1.4 0 0 .2 0 .3.2.3l.3.1c-.2.1-.2.3-.2.5l.1.4zm2.8-2.7v.3c-.4 0-.7 0-1 .2h-.6c0-.3.2-.5.5-.7l1 .2zm-16 9v.2c-.1-.2-.3-.2-.4 0l-.3.7-.1-.2.2-1 .5.3zm7.8-5.1a7.7 7.7 0 01-.6-1c-.1-.3-.2-.5 0-.6l.6.5v1zm-10.3 1.6h.2l.1.2v1.8l-1-1.9h.8zm-10 4.3a16 16 0 01-.4-.4v-.5h.4v.9zm0-4.7v.2l-.2-.2a3 3 0 00-.4-.5v-.3h.3l.3.8zm1.6.4v.2l-.3.5-.6.4c0-.1 0-.2-.2-.3.2-.1.2-.3.1-.4l-.2-.2v-.5c.5-.3 1-.2 1.1.3zm.8 1.5h-1.5l.7-.6.5-.6c.6 0 .6-.1.2 1l.1.2zm30.7-2h.5l.4.2-.9.3c-.5 0-.5.9 0 .8.7 0 1.3-.3 1.9-.6l1 .3-.6 1.6c-2.2 2-4.1 5.6-6.8 6.5-.3-2.7 1.8-5.1 3.3-7.1a9 9 0 001.2-2zm3.3 1l.5.1.4.3-1.2.6.3-1zm2.3 1l.3-.5-.3-.4 1-.1h.3l2 .5a12.3 12.3 0 01-5.2 2.5c.8-.6 1.4-1.3 2-2zm10.4.4h.2c0 .3.3.4.5.4l.9.5c-1.1.7-2.5 1.2-3.8 1.6.7-.9 1.4-1.8 2.2-2.5zm-63-.5c-.2.1-.2.3-.2.4h-.3l-.2.3a16.8 16.8 0 01-1-1.4.3.3 0 00-.4 0l-.2.2a11 11 0 01-.4-.7h.1a4 4 0 011.7 1h.2l.7.2zm-3-5.7l.3-.5 1 .6-.3-.1h-1zm-1.4 1.7l-.4.1h-.2c-.7.2-.9.4.7-.5l.2.2-.3.2zM433.5 60c.5.2.8.2 1.3.2l.2.3h-.1l-1.8-.3.4-.2zm12 17.5c0-.6-.6-.9-1.1-1-.2-.1-.3-.1-.4 0l-.5-.8.5-.6.2-.4a2.3 2.3 0 00-.5-1.4s0-.3 0 0c-.1-.7-1.3-.8-1.2 0l.1.4c-.2-.4-.5-.9-.9-1.3.2-.5.3-1.1.1-1.6-.2-.6-.7-.7-1.2-.7-.2-.4-.4-1-1-1-.5 0-.7.7-1 1h-.4c.3 0 .7 0 .6-.5 0-.4-.1-.7-.3-1 .1-.3 0-.5-.3-.7v-.1c.4-.5-.1-1.3-.7-1l-.4.3c-.3.3-.3.5-.2.8a7 7 0 01-.5-.4.6.6 0 00-.5-.2c.2-.2.2-.6 0-1v-1c0-.4-.2-.5-.4-.6l-.8-.2c-.4-.2-.8.3-.7.7l.1.4-.8-.5-.4-.3c.2-.2.2-.5.2-.9.3 0 .6-.3.5-.6l-.2-.4.7.4c.3.2.7-.2.6-.5l-.2-.6 1.2-.2h.3l.1-.1c.3 0 .4-.3.3-.5h.1v-.1l-.2-.1c.2-.2.2-.4 0-.6-.2-.2-.5-.8-.8-.5.2-.3 0-.8-.3-.8-.7 0-1 .2-1.5-.2h-.5c-.5.5-1.2.6-1.8.8-.5-1-1.2-1.4-1.9-1.3-.8-.4-1.7 0-2.6.6-.3 0-.6 0-.9.2l-1.3-.3.6-.5c.2-.1 0-.6-.2-.7l-2.8-.5a6 6 0 00-.3-.5c0-.2-.2-.4-.4-.4v-.1-.6c-.5-.4-.9-1-1.4-1-.5-.2-1.2.2-1.6.3l-.2.1-1.8-.1c0-.2 0-.4-.2-.5l-.7-.3c0-.2-.1-.3-.3-.3-.2-.1-.4-.3-.6-.2h-.2c0-.1 0-.3-.2-.4-.5-.2-1.2-.2-1.7 0v.1l-1-.1c-.2-.1-.5.2-.5.4 0 .3 0 .6.2.9H410c.5.6 1 1.7 1.3 2.2h-.2c-.4-.7-1-1.2-1.7-1.5h-.3a1.6 1.6 0 00-1.2-.1c-.6-.7-1.5-1.3-2.4-1-.3 0-.6.2-.8.5h-.4c-.5-.6-1.3-.8-2.4-.8-.2 0-.3.2-.2.4l.2.5h-.3c-.6-.3-1.2-.5-1.9-.6-.2 0-.4 0-.3.3l.1.5c-.5.2-1 .6-1.2 1.3l-.1.7h-.4c-.4.4-.5.9-.7 1.3l-.3-.4.3-.1c.2-.2.2-.4.2-.6l.2-.6.4-1-.1-.5a1 1 0 00-.4-.2v-.2l-.1-.4a.4.4 0 00-.8 0V54v-.3h-.1v-.1-.6c-.3-.2-.7-.1-.8.2l-.3.4h-.3c0-.2 0-.5-.2-.6l-.4-.2c.2-.3 0-.6-.2-.7-1-.3-2.4-.7-3.2.2l-.3-.2c-.2-.1-.3-.3-.5-.3-.3 0-.5.1-.5.4l-.1.2c-.3 0-.6.2-.8.3.1-.3-.1-.6-.4-.6-1 0-2 .3-3 .6-.3 0-.4.4-.2.7l.4.4c-.1.2-.1.4 0 .8-.5 0-.9.2-1.3.3-.4.1-.4.6-.1.8l.6.4h-.2a4 4 0 00-2.2-.6c-.2 0-.4.2-.4.4 0 .6 0 1.1.2 1.6v.2h-1c-.5 0-.5.9 0 .9.7 0 .7.5 1 .9v.2l-.3.2c-.9 0-1.8.4-2.2 1.2-.6.7-.8 1.5-.8 2.5 0 .2.2.4.4.4l-1.4.5c0-.3-.3-.5-.6-.5s-.4.2-.4.4l-.3.2v-.8c0-.3-.4-.5-.6-.3 0-.2 0-.4-.3-.4l-1.4-.2c-.1 0-.3 0-.3.2 0 .7.1 1 .4 1.1v.1l.2.4h-.1l-1-.7v-.4c0-.1 0-.2-.2-.2-.4-.1-.6 0-1 .2v.4l.5.6v.2h-1.2-.2v-.1c.3-.4-.3-1-.6-.6l-.3.3a10 10 0 00-1-.3c-.1 0-.3.2-.2.4l-.2-.1c-.2-.1-.4 0-.3.3h-1.1l1.2 1-.7.2c-.8.6-2.4.6-3.3 1-.1 0-.2.3 0 .4l.5.3-.3.1h-.3c-.2-.2-.4.1-.2.3h-.1l-1-.1c-.1 0-.3 0-.2.3.3 1 .5.9-.7 1.4-.2.1 0 .5.1.5h1v.3l.3.2c.9 0-.8.1-1.1.3-.2 0-.2.4 0 .4 1.1.3.2.6-1 1.3-.3.2-.1.6.2.5 1.2-.4 1.2-.3 0 .3-.2.1 0 .5.2.4 1.1-.3 1.2-.1.3.6-.2.2 0 .5.2.4l.4-.1c0 .2-.3.5-.9 1.2-.1.2 0 .6.3.4 1-.5.8-.9.4.2 0 .3.3.4.4.3.9-.7.7-.9.1.5 0 .2.3.4.4.2.7-1 .8-1 .4 0-.1.2.2.5.4.3.8-1 1-1 .6 0-.1.2.2.4.4.2.8-.7.5-.2.3.8 0 .2.3.4.4.2l.7-1 .1.2-.2.6c0 .2.2.4.4.3l.3-.3.1.1.5.6c-.1.3.1.4.3.3a175.7 175.7 0 005.6 6.6c3.2 3.6 8.1 4.8 11.9 7.7v.1l.7.5c2.4 6.4 4.5 13 8.4 18.5l.4 2.3c1.7 2.6 2.9 5.4 4.2 8.1 1.2-1.2 2.5-2.3 4-3.4l.3-.2a19.5 19.5 0 001.5-1.4l.3-.6c-1 0-1.9.2-2.8.3l-.9-3.2v-2.2c-1.1-2.3-.4-4.6.3-6.9l.9-3c.6-3.2.6-5.7 2.5-8.6l1-1.6c5-2 10.8-2 15.5-4.8 1-.7 2-1.5 2.7-2.5l6.6-3.3c1.8.3 3.6.5 5.5.5 0 .2.3.3.5.3h.6c.2 0 .4-.1.5-.4v-.2l.2-.1h.1l.1.1v.7l.8 1c.4.2.8.2 1.2 0 .3 0 .5-.3.5-.5 0-.5-.1-1-.4-1.3l-.6-.7v-.2l.4-.2h.3c.3.7.6 1.5 1.3 1.2.3 0 .6-.2.8-.4l.4-.1h.3c.6-.4 1.1-1 1-1.6 0-.4-.2-.7-.4-1l-.1-.7c.4-.1.9-.5.8-1zM281.1 115.5V115.4l.1.2M245.3 117.9h.2v.1l-.3-.1h.1M244.9 116.5h-.7.7M226 112.6h.1l-.2.2v-.2M218.2 96h.6-.7M208.8 106.2h.1-.1M192.6 108.7l-.1.1.1-.1" fill="#000"/><g transform="translate(0 108.2)"><mask id="b" fill="#fff"><use xlink:href="#a"/></mask><path fill="#000" mask="url(#b)" d="M192 1l-.2.1h-.1.2M208.3 7.9l.2 1-.2-1zm250.7.4c-.8.4-1.3 1.5-2.3 1.3-.3-1-.1-2-.4-3l-.5 1.6c-.7-1-1.2-2.5-2-3.7 0 1.3.4 2.6.2 4-.5-1.2-1.1-2.7-2-3.6.2 1.6.3 3.4.2 5.1-.6-.5-1-1.6-1.3-2.4v4.8c-1.3-2.6-1.1-6.5-1.7-9.5-.8 2.4.4 6-.6 8.1-.3-1.3-.3-2.7-.8-3.9 0 1-.2 2.3-.4 3.1-.1-.8-.4-1.7-.8-2.1l-.2 1.7c0-.5-.3-.9-.4-1.3v2c-.5-1.7-.8-3.5-1.4-5.2-.2 1.6.5 3 .5 4.7-.3-1.1-.9-2.2-1.4-3l.3 2.6-1-1.7c0 .7 0 1.4-.2 2-.2-.7-.4-1.5-.8-2 0 .6-.2 1.4-.4 2l-.2-4.6c-.4 1-.6 2.4-.8 3.5l-.1-2.5c0 1-.2 2.2-.5 3 0-.7-.2-1.4-.4-2l-.2 2.7c-.2-.6-.5-1.1-.6-1.7l-.2 1.5-1.5-1.5v1.3c-.7-1.2-1-2.6-1.7-3.7.2.6.1 1.3.2 1.9l-1-4c0 1.5.2 3.3 0 4.8-.2-1-.4-2.3-.8-3.1l-.6 4c-.3-.7-.4-1.7-.5-2.6-.3 1-.6 2.6-1.2 3.5 0-.7-.1-1.4-.4-2l-.5 2.6c0-1.2-.2-2.3-.5-3.3 0 1 0 2.2-.3 3l-.7-2.6c-.1.8-.1 1.6-.4 2.3-.5-1.2-.8-2.7-1.2-3.9V9c-.2-1.2-.4-2.4-.8-3.5 0 .7.1 2-.3 2.7-.3.4-.8.2-1 .5-.2.2-.7 0-1 .4-.2.3 0 1.4-.5 1.8l-.7-3.2c.1 1 0 1.9-.4 2.7-.7-1.4-.7-5.2.2-6.5a11 11 0 00-1.8 6.3c0-.5-.4-1-.5-1.4l-.7.8-.5-.5v.5c-.3-.2-.9-.2-1.1-.5v.5c-.3 0-.8-.3-1-.4 0-.5-.2-1-.1-1.5l-.2 1.1c-.3-.6-.4-1.4-.6-2 0 .6 0 1.2-.3 1.8l-.4-.5v.5l-.8-.7v1l-.7-.6c-.2 0 0 .3-.2.4l-.9-.8v1c-.2-.3-.6-.4-.8-.6v.5c-.5-.5-1-.6-1.2.4-.2-.4-.4-.7-.3-1.5 0 .6-.2 1-.4 1.5l-.2-1.3c-.1.4-.5.8-.6 1.1l-.2-.9-.2 1c-.1-.3-.6-.6-.7-.8l-.2 1c-.2-.3-.5-.4-.7-.8v.7l-.7-.1-.1.7-.7-1.7c0 .8-.1 1.2-.3 1.7l-.5-2.5v2c-.2-.4-.4-1.6-.4-1.7-.1.6-.3 1-.5 1.4l-.2-1-.4 1.2c0-.3-.4-.6-.5-.9l-.3 1c0-.3-.5-1-.6-1.2l-.2 1c0-.3-.5-.6-.7-.8l-.2.7-.7-.7V9c-.3-.3-.7-.9-.8-1.5v1.7c-.5-.7-.7-1.7-1.2-2.3l.3 2c-.4-.6-.6-1.5-1-2.2v2.1l-.3-1.7c-.3 1-.7 1.9-1.3 2.5l-.2-1.4a3 3 0 01-1 1.8V8.5c-.1.6-.4 1-.6 1.4l-.4-1-.1 1c-.3-.5-.7-.8-1-1.4.2.5.1 1 .2 1.5-.4-.6-.7-1.6-1-2.5l.1 2c-.6-.6-1-1.5-1.3-2.4l.2 2c-.5-.6-.8-1.5-1.3-2.2.1.7.4 1.4.4 2l-1-1.6v2.3l-.7-1.5c0 .6-.2 1.2-.3 1.7l-.6-.4c-.3-1-.2-2-.4-2.9 0 1.3-.4 2.4-.9 3.3 0-.8-.1-1.7-.3-2.5l-.3 3-.6-2c0 .8-.2 1.6-.5 2.3l-.6-1.7-.1 2-1-2.4V10c-.2-.3-.7-.7-.8-1.1v.7l-1.2-1.9v1c-.4-.5-.6-1.1-.9-1.8v1.5c-.3-.2-.7 0-1-.3 0 .4-.3.8-.3 1.1l-.6-.3v.5c-.4-.4-.6-1.2-1-1.7l-.2 1.5-.5-2c0 .6-.2 1-.4 1.6l-.7-1.5v1.9l-.7-1.3.1 1.7c-.1-.5-.4-1-.6-1.3l.1 1.1c-.4-.4-1-1.1-1.5-1.3.2.3.2.8.3 1.1l-.9-.7v.3c-.8-.3-1-1.3-1.5-2l.1.4h-.1l.1 1.4c-.2-.2-.6-.4-.9-.9.3.5.2 1 .3 1.5-.2 0-.4-.2-.5-.3l-.1.4c-.3-.5-.6-.5-1-.5v-.5c-.8.4-1.3 1.5-2.4 1.3-.3-1 0-2-.4-3 0 .5-.3 1-.4 1.6-.8-1-1.2-2.5-2-3.7 0 1.3.3 2.6.2 4-.6-1.2-1.2-2.7-2-3.6.1 1.6.2 3.4.1 5.1-.6-.5-1-1.6-1.3-2.4v4.8c-1.3-2.6-1-6.5-1.7-9.5-.8 2.4.5 6-.6 8.1-.2-1.3-.3-2.7-.7-3.9-.1 1-.2 2.3-.5 3.1 0-.8-.3-1.7-.8-2.1 0 .6-.2 1-.1 1.7l-.5-1.3v2l-1.3-5.2c-.2 1.6.5 3 .4 4.7-.3-1.1-.8-2.2-1.4-3l.3 2.6-1-1.7c0 .7 0 1.4-.2 2-.1-.7-.3-1.5-.7-2l-.5 2-.2-4.6c-.3 1-.6 2.4-.7 3.5 0-.9 0-1.7-.2-2.5 0 1-.2 2.2-.4 3 0-.7-.2-1.4-.5-2L349 10c-.1-.6-.4-1.1-.6-1.7l-.1 1.5-1.5-1.5v1.3c-.7-1.2-1-2.6-1.7-3.7l.1 1.9c-.4-1.3-.6-2.8-.9-4 0 1.5.2 3.3-.1 4.8-.2-1-.3-2.3-.8-3.1-.1 1.3-.3 2.7-.6 4l-.5-2.6c-.2 1-.6 2.6-1.1 3.5 0-.7-.2-1.4-.4-2l-.6 2.6c0-1.2-.1-2.3-.5-3.3.1 1 0 2.2-.2 3l-.8-2.6c0 .8 0 1.6-.4 2.3l-1.1-3.9V9c-.2-1.2-.4-2.4-.8-3.5 0 .7 0 2-.3 2.7-.4.4-.9.2-1.1.5-.2.2-.6 0-.9.4-.3.3-.1 1.4-.6 1.8l-.6-3.2c0 1-.1 1.9-.5 2.7-.6-1.4-.6-5.2.2-6.5a11 11 0 00-1.7 6.3c-.1-.5-.5-1-.6-1.4-.1.3-.5.5-.6.8l-.6-.5v.5c-.3-.2-.8-.2-1-.5l-.1.5-.9-.4-.2-1.5-.1 1.1c-.3-.6-.5-1.4-.6-2 0 .6-.1 1.2-.4 1.8-.1-.1-.3-.3-.3-.5-.2 0 0 .4-.1.5l-.7-.7v1l-.8-.6c-.1 0 .1.3-.1.4l-1-.8v1l-.7-.6v.5c-.6-.5-1.1-.6-1.3.4-.2-.4-.3-.7-.3-1.5 0 .6-.2 1-.4 1.5l-.2-1.3c0 .4-.4.8-.5 1.1l-.2-.9-.2 1-.8-.8-.1 1c-.2-.3-.6-.4-.8-.8v.7l-.7-.1v.7l-.8-1.7c0 .8 0 1.2-.3 1.7-.2-.8-.2-1.7-.5-2.5v2l-.4-1.7c0 .6-.3 1-.4 1.4l-.2-1c0 .3-.4.8-.4 1.2l-.5-.9-.3 1-.6-1.2-.2 1c-.1-.3-.6-.6-.7-.8l-.2.7-.8-.7V9c-.3-.3-.6-.9-.7-1.5v1.7c-.5-.7-.8-1.7-1.2-2.3l.2 2c-.4-.6-.6-1.5-.9-2.2v2.1c-.1-.4-.3-1.1-.3-1.7-.3 1-.8 1.9-1.3 2.5l-.2-1.4a3 3 0 01-1 1.8V8.5l-.7 1.4c0-.3-.4-.8-.4-1v1c-.3-.5-.7-.8-1-1.4.1.5 0 1 .2 1.5-.5-.6-.8-1.6-1-2.5v2c-.5-.6-1-1.5-1.3-2.4.2.6.3 1.3.3 2-.6-.6-.8-1.5-1.3-2.2 0 .7.3 1.4.4 2-.4-.4-.7-1-1-1.6v2.3c-.2-.6-.6-1-.8-1.5l-.2 1.7-.7-.4v-.3l-.2-.8-.1-1.8c0 .8-.2 1.5-.4 2.2l-.6.5c0-.6-.1-1.3-.3-1.9a7 7 0 01-.1 2.2l-.4.1c0-.4-.2-.9-.4-1.3v1c-.2-.9-.1-1.8-.4-2.6 0 .4-.4 1-.4 1.5-.8-1-1.3-2.5-2-3.7 0 1.3.3 2.6.1 4-.5-1.2-1.1-2.7-1.9-3.6l.1 3.3a6 6 0 01-.5-1.3v1.5l-.5-.1-.3-.7v.6l-.3-.1c0 .4-.2.8-.3 1.1l-.4-.2c-.3-2-.3-4.2-.7-6-.5 1.4-.2 3.3-.2 5.1l-.2-.4-.3 1.5a25.4 25.4 0 01-.5-1.6l-.1-.5-.2 1.7c-.2-.4-.6-1-.7-1.5v1.3l-.4-.5v.4l-.4-.6.2 1.5-.4-.9v.3l-.2-.5v1.1l-.2-.2c-.3-1.3-.5-2.7-1-3.9 0 1 .2 2.1.4 3.2l-.6-.4v.2l-.7-1.4.1 1.6v.3l-.4-.2-.4-.7V8l-.8-1.4.2.5h-.2l.2 1.2-.3-.5-.1.4c-.2-.1-.4-.3-.5-.6.2.5.2 1 .2 1.5h-.1l-.2-3.9c-.4 1-.6 2.4-.7 3.5l-.2-2.5c0 .8-.1 1.8-.3 2.5l-.2.1c0-.6-.2-1.1-.4-1.6l-.2 2-.2.1-.4-1-.2 1.4-1.4-1.5v1.3c-.7-1.2-1-2.6-1.7-3.7v1.9l-.8-4c0 1.5.2 3.3-.1 4.8-.2-1-.3-2.3-.8-3.1-.2 1.3-.3 2.7-.6 4-.3-.7-.4-1.7-.5-2.6-.2 1-.6 2.6-1.2 3.5 0-.7-.1-1.4-.3-2l-.6 2.6a8 8 0 00-.5-3.3c.1 1 0 2.2-.2 3l-.8-2.6c-.1.8-.1 1.6-.4 2.3l-1.2-3.9V9c-.1-1.2-.3-2.4-.7-3.5 0 .7 0 2-.4 2.7-.3.4-.8.2-1 .5-.2.2-.7 0-.9.4-.3.3-.2 1.4-.6 1.8-.3-1-.4-2.1-.6-3.2 0 1-.1 1.9-.5 2.7-.6-1.4-.7-5.2.2-6.5a11 11 0 00-1.7 6.3c-.1-.5-.5-1-.6-1.4-.2.3-.5.5-.6.8l-.6-.5v.5c-.3-.2-.8-.2-1-.5-.2.1-.1.3-.1.5l-.9-.4-.2-1.5-.2 1.1c-.3-.6-.4-1.4-.6-2 0 .6 0 1.2-.3 1.8l-.4-.5v.5l-.7-.7v1l-.8-.6c-.1 0 0 .3-.2.4l-.9-.8v1l-.7-.6v.5l-.6-.3v-.2l-.8.6c-.2-.3-.2-.6-.2-1.2 0 .6-.2 1-.4 1.5l-.2-1.3c0 .4-.4.8-.6 1.1l-.2-.9-.1.8c0-.8 0-1.5-.3-2.2 0 .4-.3 1-.4 1.5-.8-1-1.2-2.5-2-3.7 0 1.3.3 2.6.2 4-.6-1.2-1.2-2.7-2-3.6a67.7 67.7 0 010 2.7c0 .6-.2 1-.4 1.4l-.1-1-.3.6-.4-1v1.2l-.3-.5-.3 1c0-.3-.3-.7-.4-1-.2-1.8-.3-3.7-.7-5.4-.5 1.6-.1 3.8-.1 5.6l-.3-.2-.1.7-.4-.4-.4-1.5-.2 1.7c-.2-.4-.5-.8-.6-1.3V9c0-.3-.2-.6-.4-.8v.1l-.8-1.3c.2.6.3 1.3.3 2l-.1-.2v-.2c-.3-.4-.5-1.2-.8-1.8v1l-.6-2.4a7 7 0 00.1 2.2c0 .3-.2.5-.3.8l-.8-1.4c0 .8.2 1.6.3 2.3l-.1.1-.4-.7v-.4l-.1.3a8 8 0 00-.4-.6v1.6l-.2.2-.4-1.2-.3-.6-.4 1.7v-.2c-.2-1.3-.3-2.7-.2-4-.4 1-.7 2.3-.8 3.4 0-.9 0-1.7-.2-2.5 0 1-.1 2-.4 3V9l-.5-1.8v.4-.2.4l-.1 1.3-.6-.8-.6-1.3c.2.6.3 1.3.3 2-.6-.6-.9-1.5-1.4-2.2l.4 1.8-.4-.4-.6-1v1.2c-.3-1-.6-1.8-1.1-2.6l.1 1.9c-.4-1.3-.6-2.8-.9-4v2.7l-.2 1.4c-.1-.8-.3-1.8-.6-2.4l-.4 2.3v-.5l-.1 1.2-.2 1-.5-2.6c-.2.8-.5 2.1-.9 3l-.3-1v.5c0-.4-.2-.7-.3-1l-.3 1.4-.5-1.1-.2-1-.1 2c-.2-.3-.5-.5-.6-.8v.7l-.4-1.5v.8l-.7-1.2v1l-.3-.4-.5-1.8v.7l-.1-.3v1.3l-.7-2.7c0 .7 0 2-.3 2.6l-.1.1c-.3.4-.8.2-1 .5l-.3.1-.5-1.1-.3 1.5-.5-2c0 .6-.2 1-.3 1.5a48.7 48.7 0 00-.2-.2l-.6-1.2v1.9l-.3-.6c-.1-1.7 0-3.8.6-4.7a11 11 0 00-1.7 5.2c-.3-.4-.7-.9-1.1-1l.2 1v.1l-.8-.7v.3c-.9-.3-1-1.3-1.6-2l.1.4h-.1l.1 1.4-.8-.8v-.1.1l-.1 1c-.3-.6-.4-1.3-.6-2l-.3 1.8-.4-.5c-.2 0 0 .4-.1.5l-.7-.7v1l-.8-.6c-.1 0 .1.3-.1.4-.2-.3-.7-.5-1-.8v1l-.7-.6v.5c-.6-.5-1.1-.6-1.3.4-.2-.4-.3-.7-.3-1.5 0 .6-.2 1-.4 1.5l-.2-1.3c0 .4-.4.8-.5 1.1l-.2-.9-.2 1-.7-.8-.2 1c-.2-.3-.6-.4-.8-.8v.7l-.7-.1v.7l-.8-1.7c0 .8 0 1.2-.2 1.7-.3-.8-.3-1.7-.6-2.5v2l-.4-1.7c0 .6-.3 1-.4 1.4l-.2-1c0 .3-.4.8-.4 1.2l-.5-.9-.3 1-.6-1.2-.2 1c-.1-.3-.6-.6-.7-.8l-.2.7c-.2-.2-.6-.4-.7-.7l-.1.7c-.3-.3-.6-.9-.7-1.5v1.7c-.5-.7-.8-1.7-1.2-2.3l.2 2c-.4-.6-.6-1.5-.9-2.2v2.1c-.1-.4-.3-1.1-.3-1.7-.3 1-.8 1.9-1.3 2.5l-.2-1.4a3 3 0 01-1 1.8V8.5l-.7 1.4c0-.3-.4-.8-.4-1v1c-.3-.5-.7-.8-1-1.4l.2 1.5c-.5-.6-.8-1.6-1-2.5v2c-.5-.6-1-1.5-1.3-2.4.2.6.3 1.3.3 2-.6-.6-.8-1.5-1.3-2.2 0 .7.3 1.4.4 2-.4-.4-.7-1-1-1.6v2.3c-.2-.6-.6-1-.8-1.5l-.2 1.7-.7-.4c-.3-1-.1-2-.3-2.9 0 1.3-.5 2.4-1 3.3 0-.8 0-1.7-.3-2.5.1 1 0 2-.3 3-.2-.6-.3-1.4-.6-2 0 .8-.1 1.6-.5 2.3l-.5-1.7c0 .6 0 1.5-.2 2l-1-2.4V10l-.8-1.1.1.7-1.2-1.9v1c-.4-.5-.7-1.1-1-1.8.2.5 0 1 0 1.5-.2-.2-.6 0-1-.3 0 .4-.2.8-.3 1.1l-.6-.3v.5l-.9-1.7-.3 1.5-.5-2c0 .6-.1 1-.3 1.6-.2-.4-.6-1-.7-1.5v1.9l-.8-1.3.2 1.7-.6-1.3v1.1c-.4-.4-.9-1.1-1.4-1.3l.3 1.1c-.3-.2-.7-.4-.9-.7v.3c-.8-.3-1-1.3-1.6-2l.2.4h-.2l.2 1.4c-.3-.2-.6-.4-.9-.9l.3 1.5-.6-.3v.4c-.3-.5-.7-.5-1-.5v-.5c-.9.4-1.4 1.5-2.4 1.3-.3-1-.1-2-.4-3l-.5 1.6c-.7-1-1.2-2.5-2-3.7 0 1.3.4 2.6.2 4-.5-1.2-1.1-2.7-1.9-3.6 0 1.6.2 3.4 0 5.1-.5-.5-.9-1.6-1.2-2.4v4.8c-1.3-2.6-1.1-6.5-1.7-9.5-.8 2.4.4 6-.6 8.1-.3-1.3-.3-2.7-.8-3.9 0 1-.2 2.3-.4 3.1-.1-.8-.3-1.7-.8-2.1l-.2 1.7c0-.5-.3-.9-.4-1.3v2c-.5-1.7-.8-3.5-1.4-5.2-.2 1.6.5 3 .5 4.7-.3-1.1-.9-2.2-1.4-3l.3 2.6-1-1.7c0 .7 0 1.4-.2 2-.2-.7-.4-1.5-.8-2a8 8 0 01-.4 2l-.2-4.6c-.4 1-.6 2.4-.8 3.5l-.1-2.5c0 1-.2 2.2-.5 3 0-.7-.2-1.4-.4-2L140 10c-.2-.6-.5-1.1-.6-1.7l-.2 1.5-1.5-1.5v1.3c-.7-1.2-1-2.6-1.7-3.7.2.6.1 1.3.2 1.9l-1-4c0 1.5.2 3.3 0 4.8-.2-1-.4-2.3-.8-3.1l-.6 4c-.3-.7-.4-1.7-.5-2.6-.3 1-.6 2.6-1.2 3.5 0-.7-.1-1.4-.4-2l-.5 2.6c0-1.2-.1-2.3-.5-3.3 0 1 0 2.2-.3 3l-.7-2.6c-.1.8-.1 1.6-.4 2.3-.5-1.2-.8-2.7-1.2-3.9V9c-.2-1.2-.4-2.4-.8-3.5 0 .7.1 2-.3 2.7-.3.4-.8.2-1 .5-.2.2-.7 0-1 .4-.2.3 0 1.4-.5 1.8l-.7-3.2c.1 1 0 1.9-.4 2.7-.7-1.4-.7-5.2.2-6.5a11 11 0 00-1.8 6.3c0-.5-.4-1-.5-1.4l-.7.8-.5-.5v.5c-.3-.2-.9-.2-1.1-.5v.5c-.3 0-.8-.3-1-.4 0-.5-.2-1-.1-1.5l-.2 1.1c-.3-.6-.4-1.3-.6-2 0 .6 0 1.2-.3 1.8l-.4-.5v.5l-.8-.7v1l-.7-.6c-.2 0 0 .3-.2.4l-.9-.8v1c-.2-.3-.6-.4-.8-.6v.5c-.5-.5-1-.6-1.2.4-.2-.4-.4-.7-.3-1.5 0 .6-.2 1-.4 1.5l-.2-1.3c-.1.4-.5.8-.6 1.1l-.2-.9-.2 1c-.1-.3-.6-.6-.7-.8l-.2 1c-.2-.3-.5-.4-.7-.8v.7l-.7-.1-.1.7-.7-1.7c0 .8-.1 1.2-.3 1.7l-.5-2.5v2c-.2-.4-.4-1.6-.4-1.7-.1.6-.3 1-.5 1.4l-.2-1-.4 1.2c0-.3-.4-.6-.5-.9l-.3 1c0-.3-.5-1-.6-1.2l-.2 1c0-.3-.5-.6-.7-.8l-.2.7-.7-.7V9c-.3-.3-.7-.9-.8-1.5v1.7c-.5-.7-.7-1.7-1.2-2.3l.3 2c-.4-.6-.6-1.5-1-2.2v2.1l-.3-1.7c-.3 1-.7 1.9-1.3 2.5L97 8.2a3 3 0 01-1 1.8V8.5c-.1.6-.4 1-.6 1.4l-.4-1-.1 1c-.3-.5-.7-.8-1-1.4.2.5.1 1 .2 1.5-.4-.6-.7-1.6-1-2.5l.1 2c-.6-.6-1-1.5-1.3-2.4l.2 2c-.5-.6-.8-1.5-1.3-2.2.1.7.4 1.4.4 2l-1-1.6v2.3L89.4 8c0 .6-.2 1.2-.3 1.7l-.6-.4a4.2 4.2 0 01-.2-1.1c0-.6 0-1.2-.2-1.8 0 .8-.1 1.5-.4 2.2l-.5.5-.3-1.9a7 7 0 01-.2 2.2l-.3.1-.4-1.3-.1 1c-.2-.9 0-1.8-.3-2.6L85 8.2c-.7-1-1.2-2.5-2-3.7 0 1.3.4 2.6.2 4-.5-1.2-1.2-2.7-2-3.6l.2 3.3a6 6 0 01-.6-1.3v1.5l-.5-.1-.2-.7v.6l-.3-.1c0 .4-.3.8-.3 1.1-.1 0-.3 0-.4-.2-.3-2-.4-4.2-.8-6-.5 1.4-.2 3.3-.1 5.1l-.2-.4-.3 1.5a25.4 25.4 0 01-.5-1.6L77 7 77 8.8l-.7-1.5v1.3c0-.2-.2-.4-.3-.5v.4l-.4-.6.1 1.5-.3-.9v.3l-.3-.5.1 1.1-.2-.2-1-3.9c-.1 1 .2 2.1.3 3.2l-.6-.4.1.2-.8-1.4.2 1.6-.1.3-.3-.2-.5-.7V8l-.7-1.4.1.5h-.1l.1 1.2c0-.2-.2-.4-.3-.5v.4l-.6-.6c.3.5.2 1 .3 1.5h-.2l-.1-3.9c-.4 1-.6 2.4-.8 3.5l-.1-2.5c0 .8-.2 1.8-.4 2.5l-.2.1c0-.6-.2-1.1-.4-1.6l-.1 2-.2.1-.4-1-.2 1.4-1.5-1.5v1.3c-.7-1.2-1-2.6-1.7-3.7.2.6.1 1.3.1 1.9-.4-1.3-.5-2.8-.8-4 0 1.5.1 3.3-.2 4.8-.2-1-.3-2.3-.7-3.1l-.7 4L62 7c-.2 1-.6 2.6-1.1 3.5 0-.7-.1-1.4-.4-2a84 84 0 00-.6 2.6c.1-1.2 0-2.3-.4-3.3 0 1 0 2.2-.3 3l-.8-2.6c0 .8 0 1.6-.3 2.3-.5-1.2-.9-2.7-1.2-3.9V9c-.2-1.2-.4-2.4-.8-3.5 0 .7.1 2-.3 2.7-.3.4-.8.2-1 .5-.2.2-.7 0-1 .4-.2.3-.1 1.4-.5 1.8l-.7-3.2c0 1 0 1.9-.4 2.7-.7-1.4-.7-5.2.1-6.5a11 11 0 00-1.7 6.3c0-.5-.4-1-.6-1.4l-.6.8-.6-.5v.5c-.3-.2-.8-.2-1-.5v.5c-.3 0-.9-.3-1-.4l-.2-1.5-.1 1.1c-.3-.6-.4-1.3-.6-2l-.3 1.8-.4-.5v.5l-.8-.7v1l-.7-.6c-.2 0 0 .3-.2.4-.2-.3-.7-.5-1-.8v1c-.1-.3-.5-.4-.7-.6v.5c-.6-.5-1-.6-1.3.4-.1-.4-.3-.7-.2-1.5l-.5 1.5-.1-1.3c-.1.4-.5.8-.6 1.1l-.2-.9-.2 1c-.1-.3-.6-.6-.7-.8l-.2 1c-.2-.3-.5-.4-.7-.8v.7l-.8-.1v.7L35.4 8c.1.8 0 1.2-.2 1.7l-.5-2.5v2l-.5-1.7c0 .6-.3 1-.4 1.4l-.2-1-.4 1.2-.5-.9-.3 1-.6-1.2-.2 1c-.1-.3-.6-.6-.7-.8l-.2.7c-.1-.2-.6-.4-.7-.7V9c-.4-.3-.7-.9-.8-1.5v1.7c-.5-.7-.8-1.7-1.2-2.3l.3 2c-.4-.6-.6-1.5-1-2.2v2.1c0-.4-.3-1.1-.3-1.7-.3 1-.7 1.9-1.3 2.5l-.2-1.4a3 3 0 01-1 1.8V8.5c-.1.6-.4 1-.6 1.4l-.5-1v1c-.3-.5-.7-.8-1-1.4.2.5.1 1 .2 1.5-.5-.6-.8-1.6-1-2.5v2c-.5-.6-1-1.5-1.3-2.4.2.6.3 1.3.3 2-.5-.6-.8-1.5-1.3-2.2l.4 2-1-1.6v2.3c-.2-.6-.5-1-.8-1.5.1.6-.1 1.2-.2 1.7a8 8 0 01-.7-.4c-.2-1 0-2-.3-2.9 0 1.3-.4 2.4-.9 3.3 0-.8-.1-1.7-.3-2.5 0 1-.1 2-.4 3-.1-.6-.3-1.4-.6-2 0 .8-.1 1.6-.4 2.3l-.6-1.7c0 .6 0 1.5-.2 2l-.9-2.4V10L11.5 9l.1.7-1.2-1.9v1c-.4-.5-.7-1.1-.9-1.8v1.5c-.3-.2-.7 0-1-.3 0 .4-.3.8-.3 1.1L7.6 9v.5c-.4-.4-.7-1.2-1-1.7l-.2 1.5-.5-2c0 .6-.2 1-.4 1.6l-.7-1.5v1.9l-.7-1.3v1.7c0-.5-.4-1-.5-1.3l.1 1.1c-.5-.4-1-1.1-1.5-1.3.2.3.2.8.3 1.1-.2-.2-.7-.4-.9-.7v.3c-.8-.3-1-1.3-1.5-2v.4l.1 1.4c-.3-.2-.6-.4-.9-.9l.3 1.5C-.6 9.2-.8 9-1 9l-.1.4c-.8-1.4-2.3.5-2.3.5l.2 4.4v7H459c0-4.2.4-8.8 0-13z"/></g><path d="M318.9 59.1c-.3.4-.7.4-1 0-.5-1-1-1.7-2.2-1.8-.7 0-1.4-.1-2-.3-.7-.2 2.3-1 3.2-.5a4 4 0 011.6 1.5c1-1 4.1-3 3.7-2.4-.9 1.4-2.3 2.3-3.3 3.5M347.5 74.7c-.3 1.4-1 2.6-1.4 4 0 .2-.2.4-.3.4l-2.3 1c-.6.4.9-1.6 1.7-1.9.3-1.3 2.5-4.1 2.3-3.5M324.9 70.8c-.5-.8-1.9-.3-2.4-1.1-.3-.4 1.8-.2 2 0 .2 0 .3 0 .5.2 0-.7 1.2-2.3 1-1.8l-.4 2.6c0 .4-.5.4-.7.1M324 64.4l-2-.5c-.5-.2 2-.3 2-.3.6-.6 2.4-2.3 2.3-1.8-.4 1-1.2 1.8-1.8 2.5l-.4.1M348.3 64.6h-.5c-1-1-2.6-.9-3.7-1.6-.5-.3 1.8-.2 2.6 0l1.4.7c.5-.3 2-1.7 1.7-1.3-.3.9-.8 1.7-1.5 2.2M335.9 85.5v2.1c-.2.7-2 .3-2 .3s.7-.9 1.1-.6h.1V87c0-.5.8-2 .8-1.5M392.7 103.3l-1.6.5-.6.2 1.3-1.3.1-.2 1.3-.9h1c-.3.6-.9 1.2-1.5 1.7zm-1.8 2l-1.4 1.6c-1.3.5-2.7.8-4 1.1l4.5-3.6 2-.6h.2l-1.6 1.5h.3zm-2.9 2.8c-1.3.8-2.5 1-3.8 1.2l.9-.9 4-1-1 .7zm-5.9 1.7c-.4.2-.8.4-1 .7l-3 .9h-.3l-1.2.3c.4-1.1 2.5-3.3 3.1-4 1.5-1.6 3.3-3.6 5.4-5l2.2-1a13 13 0 01-1.4 4.4 33 33 0 00-3.8 3.7zm-6.6-3.2l.4-1.7.2-.3h.2v.1c0 .3.3.4.4.2l.2-.4c0 .1 0 .3-.2.4-.4.8-.6 1.6-.7 2.4l-.5-.7zm0 2.5c-.3.7-1.5 3.3-2.5 3.5-1.6.3-2.2-2.2-2.3-3 0-1.9 1-2.4 2-4l.3-.3.1-.1h.3l.2-.2c1.1.7 1.6 1.8 2.3 2.8l-.4 1.3zm-10.7 5.4c-1-.6-2.3-.9-3.3-1.5-1.2-.7-1-1.5-1.6-2.4l-.5-.6-1.3-4.5c.2-.1.2-.3 0-.4l.5.1c.2.1.5 0 .4-.3l-.3-.6.2-.3.4.7c.2.2.6-.1.4-.4l-.4-.5.6.2c.3 0 .5-.4.2-.5l-.4-.1c.5-.3 1-.8 1.5-1.3a14 14 0 015.5 3.4c.1 1.6 1.4 2.7 2.2 4.2.7 1.4.1 5 1.8 5.6-.5 3.2-5-.3-5.9-.8zm-9.6-7.3l-.2-.1v-.1-.7h.6l.5-.4 1-.6c-.4.3-.8.6-.5 1 .3.6 1-.2 1.1-.4v-.2l1.1 3.8c-1-.8-2.4-1.5-3.6-2.3zm-4 1.7l-.8-.8.9-.4a6 6 0 001.7-.1c.5-.1.4-.6-.1-.5a4 4 0 01-.8 0l.3-.2.4-.1 1.4 1c1.7.8 4 1.7 4.1 3.4-2.5.1-4.8-1.6-7.1-2.3zm-1.9-.2l.3-.3.4-.1.5.5-1.2-.1zm-3 1.4l.6-1h.2l.4-.2h.1c.2.2.3 0 .4 0l-.2.3s.2 0 .3.2a8 8 0 002 .7c-1.2.3-2.5.2-3.8 0zm7.5-15.6c.1 0 .2 0 .2-.2v-.2l.2-.3v.6c-.2.1-.3.3-.1.5l.1.1-.7.2.3-.7zm.5 11.3l.6-.5-.3 1.4-.5-.5c.2-.1.3-.3.2-.4zm3.2-3.8c.2 0 .4.2.5.3-.3 0-.4.4 0 .4h.1v.1h-.4a3 3 0 00-1.5 0v-.2l1.3-.6zm1.6 1v-.2l1-.3c.2 0 .2-.4 0-.5l.2-.2.5.2c-.6.5-1.2 1-1.8 1.1h-.2l.3-.2zm2-7l.4-.3v-.5l-.3-.1V94.8c.1.2.4.3.5.1l.2-.3-.6 1.5-.3-.1zm1.4 6.4l-1-.5.5-.4.5.9zm0-1.1l.2-.3h.1c.2 0 .2-.3.1-.4.4 0 .8-.2 1.1-.3l-.1.4-.4.4c-.3.3.3.5.6.2h.1l.8.2c.2 0 .4-.1.5-.3.2-.1.3-.2.2-.4v-.4l.2.2.8-.4c.1 1 .3 1.8.7 2.7a4.8 4.8 0 00-.7 2 12 12 0 00-3.7-2.3v-.1l-.7-1.2h.2zm5.3-1.6l.3-.1-.5 1.3-.1-1 .3-.2zm1.4-.3c.3 0 .5-.3.4-.4l.7-.3.8.1-.4 1c-1 .7-2 1.5-2.8 2.3v-.3c0-.8.4-1.5.6-2.3h.7zm2.2 5.3l-.6.3-.3-.3.4-.3.1-.2.4.5zm.3-4.4l.6-.5.5-.2c0 .3-.2.5 0 .8h.3l1-.1-.5.5c-.2.2 0 .6.3.4l.2-.2-.4.6h.2l-.2.2-.1.1-.1-.2c0-.2-.4-.3-.5 0l-.3 1v-.7c0-.3-.3-.3-.4 0-.2 0-.4.2-.5.3v-.1c-.1-.3-.6-.2-.6 0v1.3l-.2-.4c-.2-.2-.6 0-.5.3l.2.3h-.2l-.2-.2h-.2c-.3 0-.5.4-.2.5l-.7.3c-.3 0-.2.5.1.4 1.6-.2.7 0-.2.9-.2.2 0 .5.3.4 1-.5.7-.7.7-.3-.3.5-.1.6.3.5h.4l.6-.3c-.7 1-1.5 1.7-2.7 1.1-2.3-1.2 1.4-5.4 3-6.7zm0-2l1-.2v.5l-.8.5-.2-.3v-.5zm3.6 7l.1.2-.1.6c-.3-.4-.7-.9-1.2-1.2a7 7 0 011-.2l.2.6zm0-3.5l1.2-1v.9l-1.3.7v-.6zm2.6 2.8l.1.2c0 .2 0 .5.3.4.3 0 .5-.2.8-.3 0 .1.3.1.4 0l.2-.5.1-.3.1-.1h.2l.4.6.3.1c-1 1-2.2 2-3 2.3-.5-.8-.3-1.6 0-2.4zm2.3-5.2l.3.2c0 .4.3.5.5.3h.2c.2.2.5.1.8.2v.5l-.2.2-.6.2c-.3.1-.2.6.1.5l1-.3-1.1 1c-.5 0-.9-.2-1-.5l.5-.2-.5-.5v-.5c0-.3-.4-.3-.4 0l-.2.4a3 3 0 00-.6 0l1.2-1.5zm1.7-1l.4 1.2-.1.2-.7-.1-.3-.2.7-1zm.6 4.4l-1.5 1.7v-1c0-.1-.1-.3-.3-.3h-.4c.2-.3.3-.5.2-.6h.5c0 .1.2.2.3.1h.3l.9.1zm.7-1.9l.8-.2-.5.6h-.1l-.3.1v-.4zm.4-9.5c0 .1.3.1.4 0 .9-2.2.6-1.9.8-.4v.2c-.1 0-.3.2-.2.4h-1.4l.4-.2zm3.3 9.3l.5-.4-.1 1-1.6.7a3 3 0 001.2-1.3zm2.5 0l1.1-.5h.1l3.2-1.6c.2.4-.6 1.3-1.4 2.3l-2.6 2.4-.1.3-.7.4v.2l-2 1.2c.4-.8.6-1.6.8-2.5l1.6-2.2zm-1.1-1l.7-.4v.1l.4.2-.9 1.2-.4.2.2-1.3zm2.7-1.2l.6-.1a6 6 0 01-.8 1.4h-.1l-.5-.2.8-1zm1-.2c.9-.1 1.4 0 1.6 0-.7.5-1.4.9-2.2 1.2l.6-1.2zm-53.6 9.6c-.8-.2-1.5-.2-.1-.6h.4l-.3.6zm-1.2-3.1l1-.7c-1.4 1.4-1.5 1.8-1 .7zm-.7-.2c-.2 0-.2.1-.1.2-1.5 1.5-.8.8-.4-.2h.2l.4-.2-.1.2zm70.8-7l-.6.2.9-1c.2-.3-.2-.5-.5-.4l-1.1.4c.1-.2-.1-.4-.4-.3-.8.3-1.5.1-2.2.1v-.3c0-.2-.2-.4-.5-.2-.4.3-.9.4-1.4.6-.2 0-.3.1-.3.2 0 .2 0 .3-.2.5h-.5v-.1c.4-.3.9-.7.4-1-.2 0-.6.1-.6.3l-.1.1-.2.2h-.3c-.3 0-.5.2-.6.4 0-.1 0-.2-.3-.2h-.2l.3-.3-1.2-.4.7-.2c.3 0 .4-.3.3-.4-.3-.3 0-.6.2-1 .1-.1 0-.3-.2-.3h-.4l1.1-.5-.1.1c-.4.3 0 .7.5.4.3-.2.6-.5 1-.6.3-.1.4-.5 0-.6a6 6 0 00-1.8.3v-.2c.5 0 .8-.6.3-.6h-.6-.6s.2-.1.2-.3c0-.1 0-.3-.2-.3h-.5V92l-.5-.4 1-.7c-.9-.6-2.3-.4-3.6-.3l.4-.3c.2-.2 0-.5-.2-.4l-1.2.3c-.3 0 0-.2.7-1 .2-.1 0-.4-.3-.3l-1.8.9-.4.1.5-.7c.2-.2-.2-.5-.4-.3l-.9.8h-.4l.2-.5c.1-.2-.2-.5-.4-.3l-.6.6c.1-.3 0-.4-.2-.4 0-.2-.3-.4-.5-.1l-.7 1v-1h-.1l-.1-.1h-.3a5 5 0 00-.4.7l-1.3 1-.1-2c0-.3-.4-.3-.5 0-.4 1.1-.2 2.4-.5.4 0-.2-.4-.2-.5 0-1 2.4-.5 1.6-.5.6 0-.2-.4-.4-.5-.1v.2c-.2-.1-.3-.1-.4 0-.9.9-.6.4-.6-.9 0-.2-.3-.3-.5 0a6 6 0 00-.3.6v-.8c0-.2-.2-.3-.3-.2-.9.6-.8 1-.7.5.3-.2.2-.5 0-.5h-.4l-.6.2-.2-.1v-1c0-.2-.3-.3-.5-.2a5 5 0 00-1.8 1h-.2l.5-.4c.2-.2 0-.5-.2-.5l-1.2.1c0-.2 0-.3-.2-.4 0-.2.2-.3.3-.4.1-.2 0-.4-.3-.4l-2.8.4c-.2 0-.4.3-.2.5h-.8V87c-.1-.2-.4-.2-.6-.1-.2 0-.3.2-.4.3l-.2.2c-1-.3-2.1.2-3 .6-.2.2-.2.4 0 .5l-.4.2V88c0-.3-.4-.3-.5 0a7 7 0 01-.5 1c-.1 0-.2 0-.3.2V89.5l-.2-.4a.3.3 0 00-.5.1l-.1 1.2-.2-.3a.3.3 0 00-.4.1l-.1.5-.2-.5c-.1-.3-.5-.2-.5.1v1.4h-.1c-.2.2-.2.5 0 .5h.1v.1l-.3-.2c.1-.2-.1-.5-.3-.3 0 0-.4-.2-.6-.1-.3.2-.3.7-.3 1 0 .2.1.3.3.3h.4l-.3.3c-.2-.1-.4 0-.4.2h-.2c0-.3-.5-.3-.6 0v.2l-.2-.8c-.1-.2-.5-.2-.5.1v.3l-.2-.1-.3.1v-.6c0-.2-.4-.3-.5 0l-.7 1.6v-.4c-.1-.1-.3-.2-.4 0-.2-.2-.5 0-.4.2l.3.9.2 1H358.7l-.3.3c-.4 0-.4.4-.2.5l-.7.1v-.2l.3-.4c.2-.3.3-.3.3-.6 0-.2-.3-.2-.5-.2l-.2-.3c-.1 0-.3-.1-.4 0 0-.2.2-.3.4-.4.1 0 .1-.3 0-.4l-.5-.1-.7.2h-.2v-.8c0-.2-.4-.3-.5 0v-2c0-.2-.4-.3-.5 0-.3 1.3-.2 4-.5.8 0-.3-.4-.3-.5 0-.5 1.3-.1.8-.3-.5 0-.3-.3-.3-.4 0-.6 1.7-.6 1-.8-.3 0-.3-.4-.2-.5 0-.4 1-.3 2.5-.5.7 0-.2-.4-.2-.5 0l-.2 1.2-.5.2v-.4c-.1-.2-.4-.2-.5 0-1 1.9-1.1.9-2.4-.6-.1-.1-.4 0-.4.2l.1 1-.1-.4c-.2-.2-.6 0-.5.2l.5 1c-.2-.1-.5 0-.5.2v.6l-.5.3-.5-.8c-.2-.2-.5-.1-.5.1 0 .6-.2.8-.4.7-.2-.1-.3-.3-.4-.6-.1-.1-.3 0-.4 0l-.7-.5c-.1-.1-.3 0-.4.2 0 .6.3 1.1.4 1.3l-.2-.2c-.1-.2-.4 0-.4.1 0 2.2.3 2.1-1 .4-.2-.2-.6 0-.5.2.4 1 .9 1.6 1.6 1.9l-1.2.6-.2-.4c0-.2-.4-.2-.4 0l-.3.7v-.2c0-.1-.2-.2-.4-.1h-.1l-.2.4v.2l-.9-1c-.2-.3-.5 0-.4.2l.3.6v.2a2 2 0 00-.7-.4c-.3 0-.5.3-.2.5l.8.4c-.5 0-.9.2-1.2.4h-.4l-.4-1-.4.1-.1.4-.2-.6c-.1-.3-.5-.2-.5 0v.9l-.3-1c-.1-.2-.5 0-.4.2.2 1.1.4 1.5.3 1.6h-.2l-.8-.1a119 119 0 01-1.3.2c-.3 0-.4.4-.1.5l1 .2c-.4.3-.6.3-1.1.4-.3 0-.5.5-.2.5-.3 0-.5.4-.6.6v.4l-.1.1.4.2h.4l1.2-.2-.2.2-.7 1c-.2.1 0 .5.3.3.7-.5 2.2-2.1 1-.3-.2.2 0 .4.3.3 1-.6.9-.7.4.4-.1.3.1.5.4.3l1.2-1-.4.5c0 .2.2.5.4.3l1-.6h.3l.3.2-.1.2-.6.3-.2.3c-.2.2-.5.3-1 .4-.2.1-.1.5.1.5h.6-.2c-.2.1-.1.5 0 .5 1.8.3 1 .7 1.1 1.1h-.6c-.2-.1-.3 0-.3.1h-.3c-.3 0-.3.5 0 .5h.7c-.3.3-.1.6.1.5l.1.3c-.4.4-.8.8-1.1 1.4-.1.2.1.5.3.3 1.8-1.2 1.6-1.4.4.4-.1.3.2.5.4.3l.9-.8c.2.2.5.2.6 0l-.4 1c-.1.4.3.5.5.3l.3-.6v.1c-.1.3.3.5.4.2l.3-.5c.1.2.4.2.5 0 .6-1.1.7-1 .3.6-.1.3.3.4.4.1l.6-1.6v.5c0 .3.3.4.4.2l.5-1.1v-.2.4c0 .2.4.3.5.1l.5-1h.3v.4c0 .2.4.4.5.1.4-1 .3-1.4.3-.4 0 .3.3.4.4.2l.3-.6h.3c0 .2.3.3.4 0 1.5.3 3 .4 4.6 0 1.8.4 4 .7 5.4 1.5l8.4 5c2.2 1.3 2.6 2.8 3.7 4.6.3.6.8 1 1.3 1.6l.3.4 6.6-.9c-.7-.5-1.6-1-2.4-2-1.8-2.2.1-4.8 3.3-6.5 3.3-1.8 7.5-3 10.6-5 .7-.3 1.4-.9 2.2-1.5l2.7-.8-1 .6-1.5.3c-.5 0-.4.6.1.5l1.4-.3H392.2c.6-.4 1-.7 1.6-.9.3.2.6.5 1 .5 0 .2.1.5.3.3l.7-.5v.2c-.1.3.2.5.4.3l.6-.8.4-.1c.1 0 .2 0 .3-.2l.2-.2c.1-.2 0-.3-.2-.4h-.7l-.1-.2c.6-.4 1.3-.4 2.2-.3l.4-.1.5-.5 2.1-.4c.3 0 .5 0 .7.2.4 0 .8-.3.5-.5a8 8 0 00.9-.5l-.8-.5.9-.4.2-.6.8-.4c.2-.2 0-.5-.3-.5l-1 .1c0-.1-.1-.3-.4-.2h-1 .2c.5-.3.6-.7.8-1.1 0-.2-.2-.4-.5-.3h-.2l.1-.6h.1l.2.1c.5.2 1.2.3 1.8.3.5 0 .8.2 1.3 0 .1 0 .2 0 .3-.2l.3-1 .6-.2c.5-.1.4-.7-.1-.5zM443.6 83l-.8 1.2v-.1-.6c0-.2-.3-.3-.4-.2l-.2-.6c.3 0 .6 0 .6.3 0 .2.2.3.3.2l.7-.4v.2h-.2zm-4.2 1.7v-.3-.3-.5-.2c.2 0 .5.2.9.6h-.2c-.5.7-.7.9-.7.7zM438 83l-.3.4c-.6.5-.7.7-.2-.4l.2-.1c.4-.6.4-.3.3.1zm5.3-1l-.1-.2.5-.3c-.3 0-.2.5.1.5l.2-.1v.4l-.2.1c-.5.4-.7.3-.6-.4zm2.6-2.2l-.1.1c-.4-.3-.7-.8.3-.7.1.2.1.4-.2.6zm-.9-2.3l.5-.5c1 .5 1.5.8-.5.5zm-.7-2.6c.6.3.9.5.2.7-.2 0-.3-.4-.2-.7zm3.3 2.6c-.5-.2-1.4-.4-2-.8l.3-.3c.2-.1 0-.4 0-.4l.3-.3v-.4h-.1c-1.4-.7-1.3-.6.1-.6.3 0 .4-.4.1-.4-1.4-.5-1.6-.3 0-.3.2 0 .3-.4 0-.5l-1.2-.2v-.1c.2-.2.1-.4-.1-.5h-.6l.5-.2c.2-.1 0-.5-.1-.5-1.4 0-1.8.4-.6-.6.1-.1 0-.4-.2-.4-1.3.1-1.7.2-.4-.5.2-.2.2-.5-.1-.5l-.8.1-.2-.1.4-.3c.2-.1.1-.5-.1-.5h-.1v-.1c.1-.2 0-.4-.3-.3a5 5 0 00-.5.1c.2-.2 0-.5-.2-.4-1.5.4-.6.2.2-.6.2-.1 0-.4-.1-.4-.8 0-2 .5-1.3 0h.1l.1-.2h.2c.2-.2 0-.6-.2-.5l-.8.1v-.2l.5-.2c.2-.2 0-.6-.2-.5a6 6 0 00-.9.3l.6-.3c.2-.2 0-.5-.1-.5 0-.2-.2-.3-.4-.2-.4 0-.9.2-1.3.4l.1-.3c.1-.2 0-.5-.3-.4l-1.3.4a3 3 0 01-1.2-.4l.5-.3c.2 0 .1-.3 0-.4l.5-.6c.2-.2 0-.5-.2-.4.4-.1-1.9.4-1.8.5h-.3c-.9.3-.7 1-.6 0 0-.3-.3-.4-.4-.2-.3.3-.4.7-.6 1 0 .2.1.4.3.4.4 0 1.1-.3 1.3-.2l-.5.5c-.3.1 0 .6.3.4l.7-.4.8.9h-.3c-.2.2 0 .6.2.5l.7-.2h.2c-.3.2-.1.6.1.5h.2c-.3.3-.2 1-.3 1.2 0 .2.2.3.4.3.7-.7 1.2-1 1.4-1-.5-.1-.5-.5-.3-1l.1-.1v.2c-.1.2 0 .4.3.4h.2v.2h-.2c0 .2-.1.3 0 .4V68.4c-.1.2 0 .4.2.3l.5 1.2c0 .2.4.1.4 0 .3-1.2.3-.9.3-1.9l.3 2.5c0 .1 0 .3.2.2l1.3.1h.2l.6-.2-.3.3-.2.1v.2l-.8.9c-.2.2.1.5.4.3.8-.8 1-.8.3 0 0 .1 0 .3.3.3l.8.1c-.1.2-.1.3 0 .4h.2v.5c-.1.3.3.4.4.2l.7-.6c0 .3 0 .6-.3 1v.3l.1 1.6c0 .1 0 .2.2.2l-.4.5c-.1.2.2.5.4.3l.9-.6v.3l-1 1.7c-.1.2 0 .5.3.4l.2-.1c-.1.2 0 .5.3.3l.6-.3-.4 1c-.1.1 0 .3.1.3v.1c-1.2 0-2.1.4-3 1.1l-.3.1v.2l-.5.4v.2c-.2 0-.4.1-.5.3-.2.1 0 .4.2.4l1-.3v.3c-.1 0-.3 0-.3.3h-.2l-.2.3h-.3v.2l-1.6-1.2c-.2-.1-.5 0-.4.1-.1-.6-.1-.5 0 0l-.3-.2-.3-.6c0-.1-.1-.2-.2-.1 0-.2-.2-.4-.4-.3l-.5.4c0-.2.2-.4.6-.7.1-.2 0-.4-.1-.4-.4-.2-.7-1.9-.6-2.2 0-.2 0-.4-.3-.4l-.4.3c0-.1-.2-.3-.4-.2h-.2v-.2c.1-.3-.4-.5-.4-.2l-.2.4h-.8l-.2.2.1-.3V78c0-.2-.1-.3-.3-.2l.2-.6c.3-.2 0-.6-.2-.4-1 .6-.7.5-1.4 1.1v-.7c0-.3-.5-.3-.5 0 0 .8 0 1.4.7 1.5l-.2.5c0 .2.2.4.4.3l1.1-.4-.5 1.3c0 .2.1.5.4.3.7-.4 1.2-1 1.5-1.7l.4-.4c0 .1 0 .3.2.2.7 0 .7 1.2.6 1.8-1.1.8-.5.5-.3-.7 0-.2-.3-.4-.4-.2l-.1.2c-.2.3.3.5.4.2-.1.3-.5.6-.7 1.3 0 .2.2.4.4.3.6-.4.6-.5.3 0l-.1.1v.2l-.6.9c0 .2.2.4.4.3l1-.5.2.1-.8 1.6c-.1.2.1.5.3.3l.4-.3h.6v.2c-.2.2 0 .5.3.4 1-.5 1-.8.9.4 0 .3.2.4.4.3v-.1c.1.1.3.2.5 0l.8-.8-.2.9c-.1.3.3.4.4.2l.3-.4c0 .3.3.3.5.1l.3-.7.3.3H442.5l.4-.5.2-.2.5-.8c0 .3.4.4.5.1.2-1 0 .2.3 1 0 .3.5.2.4-.1-.2-1.2-.3-2-.1-2h.1l.2.1c0 .2.2.3.4.6.2.2.6 0 .4-.3l-.2-.4c.2 0 .3-.2.2-.3l-.4-.5v-.1c0-.2.3-.1.8.2.3 0 .5-.1.4-.4l-.2-.4.2-.2.4.2c.2.1.5-.2.3-.4a1 1 0 01-.3-.1c.2-.2 0-.5-.1-.5V80c.1 0 .3-.3.1-.4l-.4-.4c.5 0 .5-.7.5-1l-.1-.2h.6c.3 0 .3-.4 0-.5zM429.4 75.7c-.3-.4-.9 0-1.2-.4a.3.3 0 00-.4 0l-.8.8c0-.3-.2-.5-.4-.3l-.1.1c-.1-.2-.4-.2-.5 0v-.4h-.1c-.2 0-.4 0-.4.3l-.1.2-.3.3-.1.1-.1-.1-1-.4-.6-.1.1-.1.3-.3c.2-.2-.1-.5-.4-.3l-.9.7.1-.3c.3 0 .3-.5 0-.5-.6 0-.6.8-.5 1.2v.3h.4l.5-.4h.1c.5.4 1.1.3 1.6.6v.1c-.2.2 0 .5.3.4l.8-.2v.3c.1.3.5.2.5 0l.2-.1 1.6-1.4.5.3c.4 0 .4-.1.3.3-.1.3.4.5.4.2.1-.3.4-.7.2-1M417 71.2h-.3c-.3 0-.3.5 0 .5h.3c.3 0 .3-.5 0-.5" fill="#000"/><path d="M432.2 59.7c-.3-.2-.6-.4-.7-.8.7 0 1.3 0 .7.8zm-5.3-1.3l-.6.1c-.2 0-.3.1-.3.2l-.1.1v-.2c.2-.2 0-.4-.2-.3v-.4-.3h.2l-.1.3c-.2.2.1.4.3.3 1-.5 1.1-.6.7 0-.1 0 0 .2 0 .2zm-2.7-1.2l-.2.3c-.2 0-.4-.4-.9-.5l.2-.1h.3l.6-.2v.5zm-7.4-2l-.7.2.3-.5c.2-.1 0-.4-.1-.4.2-.3.3-.4.2.2 0 .2.2.4.4.3v.3zm-7 .7l-1.4-.7V55c1.1-1.4 1.6-3.6.9 0V55.3h.8c0 .2-.1.5-.3.7zm-4.3-.7c-1.4-.2-1.2.7-1.5-.8l-.2-.1c.7-1 .8-1.3.7.2v.1l.1.4c.5.2.4.2.9.2zm31.7 9l-1 .2.4-.2c.3-.1.1-.5-.2-.4h-.3.1c.3 0 .4-.4.1-.5.3-.2.2-.6-.1-.5h-1c-1-.2-1.2-.4 1.6-.3.3 0 .3-.4 0-.5-.6-.2-1.1 0-.5-.3.3 0 .2-.4 0-.4l-.2-.4h.3l.6.1c.2 0 .4-.4.1-.5-1-.2-1.1-.4-.3-.5.3 0 .2-.5 0-.5l-1.3.2c-.2-.2-.2-.4 0-.5 0-.2 0-.4-.2-.4-1-.3-.8-.3-1.6-.3 0-.1 0-.3-.3-.2l-2.2-.4c.2-.2-.1-.5-.3-.4l-.3.2-.4.1v.3H429.5l.1-.5c.1-.1 0-.4-.3-.3l-.9.4c-.1-.2-.3-.2-.4-.2H427.8l.2-.1c.1-.3-.2-.5-.4-.4-.9.7-1 .6-.6-.1.1-.3-.2-.5-.4-.4l-.6.3v-.1c0-.2-.3-.3-.4-.1l-.6.5-.1-.1.6-.9c.1-.2-.2-.4-.4-.3-1 .5-1.2 1-.6 0 0-.1-.1-.4-.3-.3l-.5.3h-.3c-.3.1-.3 0-.2-.2l.2-.4c.2-.2 0-.5-.2-.4h-.3c-.3.1-.6.2-.7.4-.1 0-.2 0 0-.3.1-.2 0-.5-.3-.4-1 .7-1.3.6-1.2-.4a.3.3 0 00-.3-.3l-1.5.3h-.4c0-.2 0-.4-.3-.3l-.5.2v-.2c0-.2-.2-.4-.4-.3l-.1.1s-.2-.2-.3 0c-1.2.8-.7 0-.4-1 0-.3-.3-.4-.4-.3-1 .8-1.3 1.4-.9 0 .1-.2-.2-.4-.4-.2h-.3c0-.2-.2-.5-.4-.3l-.5.7h-.3l.2-.4c.1-.2-.2-.5-.4-.3l-1 1.4-.4-.3c0-.3-.1-.5-.3-.4-.5-.3-1 .1-1 .7v.1l-.2.1-.2.2.1.4c-.2.3-.2-.1.1-2 0-.2-.3-.4-.4-.1l-.8 1.8-.2-.2.2-.7c0-.2-.2-.4-.4-.2-.7.6-.8 1.3-.6.5 0-.3-.2-.5-.4-.3l-.9.8h-.1l-.1-.1v-.8c0-.2-.3-.3-.5 0l-.5.6h-.4c-.1 0-.2-.3-.1-.8 0-.2-.3-.4-.5-.1-.6 1.7-.8 2-.5 1 0-.3-.2-.5-.4-.3-.7.6-.5.9-.4 0 0-.3-.2-.5-.4-.3-.7.8-.4 1.1-.6.4 0-.2-.3-.3-.4 0-.4 1-.6 1.1-.6.3 0-.2-.3-.4-.4-.1-.5 1-.4 1.8-.8.7-.1-.2-.4-.1-.5 0l-.3 1.2v-1c0-.3-.4-.4-.4-.1-.6 2-.4 1.2-.3-.2 0-.2-.2-.3-.4-.2-1.2.8-.6.6-.4-.2.1-.3-.2-.5-.4-.3-.7 1-.2.3.2-.4 0-.3-.3-.6-.5-.3v.2c0-.2-.1-.4-.3-.3-.8.3-.9.8-.5-.2.1-.2-.2-.4-.3-.3-.7.6-.8.9-.4.1 0-.2-.1-.5-.4-.3-.8.5-.6.6-.4-.2.1-.2-.1-.4-.3-.3-.6.4-.9 1-.9.4 0-.1-.2-.3-.4-.2-.3.4-.4.4-.4 0v-.4s-.3-.1-.4 0c-.6.5-.6.7-.8-.2 0-.1-.3-.2-.4 0-.3.2-.9 1.4-.9.6 0-.2-.2-.3-.3-.2-.7.4-.6.5-.4 0 0-.2-.2-.4-.4-.2-.3.3-.7.5-1.1.6 0-.2-.3-.3-.5 0 0-.2-.3-.3-.4-.1-.2.3-.4.3-.6 0h-.5l-.1 1.2-.2-.6c0-.2-.4-.3-.4 0-.1.7 0 2.2-.6.7 0-.2-.4-.2-.4 0-.4 1.1-.1 1.8-.3.8 0-.3-.5-.2-.5 0 0 1.5.2 1.5-.5.4-.2-.2-.5-.1-.5.1.2 1.3.6 1.4-.3.4-.2-.2-.5 0-.4.2.4 1.3.8 1.6-.2 1-.2-.2-.4.1-.3.3.8 1.3.7 1.6-.2 1-.2-.2-.4 0-.3.3.5 1.1.7 1-.5.6-.2 0-.4.2-.2.4l.6 1c-.2-.3-.6 0-.4.2l.1.5c-.1-.2-.4 0-.4.1.2.9 0 1-.5.2-.2-.3-.6 0-.5.2l.3.7c-.1 0-.3 0-.3.2.1 1 .6 2.4-.6 1-.2-.1-.4 0-.4.3.3 1.5.2.6-.5-.4-.2-.2-.5-.2-.5.1.2 1.9 0 2-.5.2-.1-.3-.5-.2-.5 0v2c0 .4.5.4.5 0 0-1.7.1-.3.5.7.1.2.5 0 .5-.2 0-1.5 0-2 1-.6.2.2.6.1.5-.2-.5-1.2-.5-1 .3-.2.2.1.5 0 .4-.2 0-.5-.8-2.5 0-1.4.2.2.6.1.5-.2 0-.2 0-.4-.2-.5.2.2.5 0 .5-.2 0-1-.3-1 .7-.7.2 0 .4-.2.3-.4-.4-.6-1.3-.7 0-.4.1.1.3-.1.2-.3-.3-.6-1-1.3 0-.7.2.2.4-.1.3-.3-.4-1-.8-1.3.1-.7.2.1.4 0 .4-.3-.3-1-.8-1.5.1-1 .3.2.5 0 .4-.3l-.2-.5c.2.3.5.1.4-.2-.3-1-.2-1 .3.2.1.3.5.1.5-.1l-.1-.8.3-.1c.2-.8.1-2 .6-.5 0 .2.4.2.4 0 .3-.8 0-3.5.3-.9 0 .3.4.4.5.1.2-.7 0-1.8.6-1.3h.3c.3-.4.4-.4.1 0 0 .3.3.3.5.1.3-.5-.2-.8.3-.2.1.1.3.1.4 0 .6-.5.8-1.2.6-.2 0 .2.2.4.4.2.4-.7.6-.8.6-.2 0 .3.2.4.4.2.6-.5.9-1.1 1 0 0 0 .4.2.5 0l.4-.5-.3.5c-.2.3.2.5.4.2l.1-.2h.3c.5-.2.4-.4.4.1 0 .2.3.3.4.2h.4c-.1.1.1.4.3.3.7-.4.8-1 .4-.1 0 .2.1.4.4.3.7-.4.8-.4.4 0-.1.1 0 .4.3.3.7-.3.9-.6.7.2 0 .1 0 .3.2.3l-.2.4c-.1.2.1.5.4.3.8-.8.8-.7 0 .2 0 .3.3.4.5.3.8 0 1 .4.8 1.3 0 .3.4.3.5 0 .6-1.4.3-1 .3.7 0 .3.4.4.4.1 0-.7.2-1.4.6-2 0 .2.3.3.4 0 .4-.7.6-.9.6-.3 0 .2.3.3.4.1l.6-1c0 .4.3.5.4.3.5-1 .5-1.1.3-.2 0 .2.2.4.4.2.6-.5.6-.8.4-.2v.2c-1 .6-2.2 1-3.4 1.4-.2 0-.2.4 0 .4 1.1.2 2.2.3 3.4.3.3 0 .3-.5 0-.5-1 0-3.3.5-1.3-.3 1.7-.8 1.3-.1 2.2.8.9.9 1.6-1 1.8-1.4 0-.2-.1-.3-.3-.4-.5 0-.3-.2.1-.5v.2c0 .2.1.5.3.3l.3-.2.6.3.1.2h.2l-.4.3c-.2 0-.2.4 0 .4.5.1.8.2 1.2 0 .5.3 1 .6 1.4.6a2 2 0 01-.4.2c-.3.2 0 .6.3.5l1-.5c.1-.1.1-.2 0-.4l.2-.1.1-.9.9-.1c.1 0 .2-.3 0-.4l-.2-.2.3-.4.3.1.1.1h.2c1-.5 1 0 1.2.9 0 .1.3.2.4.1l.4.5c.2.2.6-.1.4-.4l-.5-.6v-.2c.2 0 .3-.1.3-.3h.2c1-.9 1-1 .8-.2-.2 0-.3.3-.2.4v.5h.1v.1h.4l-.5.9c-.1.2.2.5.4.3s.7-.4 1-.4v.1l-.1.2c-.2.2 0 .4.2.4v.2c.2.5.6.9.7 1.4.1.3.6.1.5-.2-.2-.7-.7-1.2-.8-1.8l.6-.6v-.1c.8-.4 2.1-.8 1.7 0 0 .2 0 .4.3.3.4 0 2-1.2 1.5-.3-.1.2 0 .4.3.3h.2l-.2.6-.8 1c-.1.2 0 .5.2.4 1 0 1.9.3 2.8.4 0 .1.2.2.3.1h.7c.6 0 .4 0 .3.5l-.5-.2c-.3-.1-.5.3-.2.5l.6.4h.2c.3.2.6.3 1 .3l.2-.1c.3-.6.7-.6 1.1-.9h.1c.3 0 .5-.2.7-.4l.3.4v.2c-.2.2 0 .5.3.3l.1-.2.2-.1v-.1c.3-.2.5-.2.7-.2l.1.1c0 .1.1.3.3.3h.2v.5c0 .3.4.4.5 0v.4c0 .2 0 .3.3.3h2c.9.4 1.5.4 1.7 0l.4.3h-.4c-.2 0-.3.3-.2.4.6.6 1 .5.6.6-.2 0-.2.4 0 .5.7.2.3.1-.9.2l.2-.6c.1-.3-.3-.5-.4-.2l-.3.8h-.5c-.3 0-.3.4 0 .5l.2.1-.1.3c-.2.2 0 .5.2.4a5 5 0 011.2-.1s-.3 0-.4.3l-.7.3c-.3.1-.2.6.2.5h.2a61.5 61.5 0 01.8 0l.3-.1-.8.4v.3c-.1.2 0 .4.1.4h.1c.5 0 1-.3 1.4-.3.2 0 .3 0 .3-.2l.8-.3c.3 0 .2-.5-.1-.4z" fill="#000"/><path d="M392.7 51.3c.3-.6.2-.5 0-.2v.2" fill="#000"/></g></svg>