<?xml version="1.0" encoding="UTF-8"?><svg width="426" height="243" xmlns="http://www.w3.org/2000/svg"><g fill="none" fill-rule="evenodd"><g fill="#000" fill-rule="nonzero"><path d="M114.358 189.267c-72.411-.272-97.744-7.96-101.182-12.137l-.099-145.774c6.235-7.938 53.89-14.623 104.044-14.623 45.45 0 103.32 6.393 109.72 14.31v54.545c0 4.617 2.96 8.356 6.58 8.356 3.618 0 6.579-3.76 6.579-8.356V31.043c0-4.303-1.316-8.377-3.767-11.51C221.017.23 118.141 0 117.105 0c-16.368 0-98.73.961-113.37 19.533C1.381 22.562 0 26.76 0 31.064V177.13c0 4.282 1.382 8.46 3.767 11.51 3.306 4.2 13.374 16.984 110.574 17.36 3.636 0 6.564-3.74 6.58-8.335 0-4.638-2.928-8.377-6.563-8.398zM112.328 216.149L60.58 226.554c-3.636.724-6.077 4.965-5.495 9.475.514 4.054 3.336 6.971 6.557 6.971.349 0 .697-.041 1.046-.124l51.73-10.406c3.636-.724 6.077-4.964 5.495-9.474-.58-4.53-4.117-7.737-7.586-6.847z"/></g><path d="M195.222 77.442c-5.2 1.357-10.86 7.436-14.283 11.984-3.55 4.922-8.155 15.358-8.155 15.358-.955 2.092-3.15 2.54-4.859 1.315 0 0-1.9-1.382-6.152-4.988-1.944-1.735-4.164-2.898-6.087-4.457-2.307-1.87-4.019-4.532-4.9-7.474-.858-2.766-1.357-6.833-1.727-9.839-1.144-16.37 1.758-25.162-.465-37.63-.496-2.632-.993-5.263-2.342-7.79-1.37-2.703-4.04-4.708-7.342-3.405-2.813 1.063-3.172 2.363-4.211 5.183-3.076 7.377-.5 15.675 1.287 23.173 1.895 8.382 1.318 17.785.44 26.148-.188 1.28-.632 3.308-.632 3.308-.592 2.227-2.784 4.111-4.81 4.54 0 0-.852.104-3.453.064-2.965-.174-6.869-10.822-9.235-20.222-3.098-12.542-4.77-26.156-5.588-30.004-.819-3.847-1.597-8.777-4.866-11.427-4.273-3.782-9.64-.97-11.848 3.609-3.184 6.493-.893 11.057 2.32 17.482 7.368 14.89 14.357 42.207 14.357 42.207.602 2.08.053 4.66-1.224 5.535-1.278.875-5.39 2.636-6.652.817 0 0-5.005-6.924-8.087-12.288-3.96-6.872-6.918-14.047-10.24-21.356-2.142-4.762-4.65-11.094-9.752-13.16-3.671-1.703-8.403-.763-9.076 3.627-1.386 9.861 6.159 17.729 11.527 24.787 3.314 4.439 5.99 9.315 8.986 13.972 2.803 4.502 8.453 13.858 8.453 13.858 1.092 1.84 1.29 4.867.292 6.605-.999 1.737-4.85 5.62-6.878 4.613 0 0-4.846-2.815-8.329-5.797-6.003-5.186-12.732-10.64-19.734-14.088-2.412-1.32-7.87-.65-8.949 3.252-1.228 4.1 4.71 8.754 7.53 10.562 6.213 4.082 13.299 6.802 19.386 11.259 3.802 2.764 5.34 4.01 8.844 7.17 2.756 2.712 4.986 8.181 6.487 11.945 2.722 6.665 6.555 13.912 12.791 18.171 5.851 3.948 12.252 5.316 18.925 4.676 14.369-1.405 28.453-16.415 30.167-32.06 1.463-13.46-6.95-28.4-20.89-26.33-10.382 1.455-25.942 14.313-25.275 26.794.422 7.665 6.968 17.27 18.45 12.092 4.26-1.96 8.94-7.559 10.015-12.895.738-3.86-.254-9.122-4.456-9.504-1.748-.144-3.6 1.699-4.279 3.218-.955 2.091-1.206 4.276-1.265 6.616-.248 3.62-4.763 6.328-7.454 4.146-2.5-2.026-3.445-5.5-2.428-8.496 1.122-3.548 3.823-6.93 6.484-9.231 4.384-3.769 12.375-6.365 17.395-2.136 5.02 4.23 5.21 12.82 3.604 19.479-1.882 7.23-6.732 12.85-12.738 16.1-8.286 4.428-12.422 4.577-20 .662-4.078-2.192-7.353-7.712-9.325-12.495-2.23-5.47-1.585-12.907-.062-18.837 2.58-10.008 12.967-18.462 21.724-21.87 7.435-2.887 14.602-2.332 21.582.94 17.482 8.441 20.376 24.956 13.573 44.277-4.239 12.006-13.824 17.131-22.292 25.709-4.17 4.101-2.797 8.24.853 9.766 2.732 1.1 7.054-1.764 9.12-3.274 6.834-4.967 12.406-11.753 17.252-18.809 5.272-7.826 8.437-22.93 8.437-22.93.422-2.206 1.203-5.712 1.625-7.917l3.293-15.48c1.097-5.16 6.989-12.165 10.67-16.027 1.404-1.249 4.3-3.04 5.876-4.31 2.021-1.864 10.735-5.626 12.415-7.447 1.83-2.02 1.693-5.951-.273-7.864-3.333-3.18-7.836-4.6-13.547-3.182z" fill="#005682" fill-rule="nonzero"/><text font-family="GeosansLight" font-size="100"><tspan x="214.5" y="165.7" fill="#005682">share</tspan> <tspan x="424.2" y="165.7" fill="#000"> </tspan> <tspan x="173.2" y="238.7" fill="#000">scree</tspan> <tspan x="379.1" y="238.7" fill="#000">n</tspan></text></g></svg>