<?xml version="1.0" encoding="UTF-8"?><svg viewBox="0 0 493 354" preserveAspectRatio="xMidYMid meet" xmlns="http://www.w3.org/2000/svg"><path d="M493 186.8c-.8 1.5-1.5 3.1-2.6 4.4a8.2 8.2 0 01-5.1 3c-1.4.2-3-.2-4.4-.7l-2.1-1-.6.3-1.1.6 1.2.8-3.3-1a21.6 21.6 0 00-10-1c-3.7.5-7.1 2.3-10.1 4.6-3 2.1-5.6 4.7-8.6 6.8 4.2 2.5 8.4 5.1 12.8 5.5h1v-.2-.2l.5-1.4a8.3 8.3 0 01-.7-3.7c.1-1.6.9-3.3 2-4.4.8-.7 1.8-1.2 2.8-1.7l2.7-1.3c.4 1.4.8 2.8.8 4.3a7 7 0 01-1.6 4.7 8 8 0 01-3.2 2l-2 .5c0 .2 0 .4-.2.6l-.3.8c3-.1 5.9-1 8.9-2.3l4-1.8-2.4 1.6.9.7.4.5c.8-.2 1.5-.3 2.3-.3a9 9 0 014.1.4c1.7.8 3 2.3 3.8 4 .7 1.6 1 3.2 1.2 4.8l-3.4-.1c-1.2 0-2.4 0-3.6-.4-1.7-.6-3.2-2-4-3.6-.6-1-1-2.2-1-4l-1.2-1.2-.3-.3-.5.3a24 24 0 01-9.2 3.4 17 17 0 01-5.1-.2l-.2.7c0 .2 0 .4-.2.6l1.6 1.9a9.4 9.4 0 011.8 4c.2 2-.5 4-1.7 5.7-1 1.4-2.4 2.5-3.7 3.6l-1.7-3.2c-.6-1-1.2-2.2-1.5-3.5a8 8 0 011-5.6c.7-1 1.6-2 3.2-3l.4-1.4a40 40 0 01-10.9-5.3 27.9 27.9 0 01-21.8 2.5 58 58 0 01-1.8-.4c4.6 3.9 7.3 5.2 9.8 6.9 2 1.2 4 2.7 5.6 4.4l1-1c.3-1.6.7-2.7 1.4-3.7 1-1.4 2.5-2.6 4.2-3 1.1-.2 2.3 0 3.4 0l3.3.2c-.4 1.5-.8 3-1.6 4.4-.9 1.5-2.3 3-4 3.4-1.3.4-2.7.3-4 .1a16 16 0 01-2-.5c-.3 0-.4.2-.6.4l-.2.1-.3.2c.8.8 1.4 1.7 2 2.6 1 1.7 1.6 3.5 2.2 5.4-.9-1.8-1.8-3.1-3-4.5a34 34 0 00-9-6.8c-1-.6-2.1-1-3.3-1.6v.3l-.1.7 1.7 1.7c1 1 1.8 2.4 2.2 3.8.4 2 0 4-1 5.8-1 1.5-2.1 2.8-3.4 4l-2-3c-.7-1-1.5-2-1.9-3.3a8 8 0 01.5-5.7 9.8 9.8 0 012.8-3.4l.2-1.1v-.3a93.8 93.8 0 01-15.2-10l-5.2-1.2a40 40 0 00-13.8-.1c-4.3.7-8.3 2.2-14.9 4.8a76.3 76.3 0 0119 7l.7-.7c.2-1.6.5-2.7 1.1-3.7a7 7 0 014-3.2c1.1-.3 2.3-.2 3.4-.2h3.2a17 17 0 01-1.3 4.4c-.8 1.6-2.2 3-3.8 3.7-1.2.4-2.6.4-4 .2-.6 0-1.3-.2-2-.4l-.4.4c3.7 2.2 7.2 4.8 10.5 7.6l.6-.7.1-.1c0-1.6.3-2.7.8-3.7.8-1.4 2.1-2.7 3.6-3.2 1-.4 2.1-.4 3.2-.5l3-.2c-.1 1.5-.3 3-.9 4.3a7 7 0 01-3.3 3.8 8 8 0 01-3.8.5c-.7 0-1.3-.2-2-.3l-.4.4-.3.3c1.5 1.2 2.8 2.5 4.2 3.8-3.4-2.3-6.8-4.6-10.3-6.6l-.2.7 1.3 1.8a8.7 8.7 0 011.4 4c.1 1.8-.7 3.7-2 5.2-1 1.3-2.3 2.2-3.6 3.1l-1.4-3c-.5-1.1-1-2.2-1.2-3.4-.3-1.8.2-3.8 1.3-5.3a9 9 0 013.1-2.6l.4-1a64.6 64.6 0 00-14.5-6.5v.5l-.2.7 1.9 1.9c1 1.3 2 2.7 2.4 4.3.6 2 0 4.5-1.1 6.4-1 1.7-2.3 3-3.7 4.4a159 159 0 00-2.2-3.2c-.8-1.2-1.7-2.4-2.1-3.7-.7-2-.5-4.4.5-6.4a11 11 0 013-3.7l.3-1.4v-.1c-3.6-1-8-1.9-14.7-3.5a90 90 0 01-6.4 2c-4.4 1.1-9 1.6-13.5 1.3a59.8 59.8 0 01-16.6-4.3c-6.8-2.6-13.6-5.7-20.7-6.4-5.4-.7-11 .1-16.7 1a47 47 0 00-20.4 7 30.8 30.8 0 00-9.8 12.7c-4.2 9.8-3.3 20.8-3.7 31.6-.5 14.4-3.3 28.4-1.5 42.3 1.5 11 6 22.1 12.6 31.2 5.2 7 11.7 13 18.1 18.8h-8.9c-2-.1-4.1-.4-6.3-.8a15 15 0 01-6-2.2c-.4-.3-.8-.7-1.4-1-.4-.1-1-.3-1.2-.1-.4.2-.3 1.1-.2 1.9l.4 3.2 1 3 1.4 3-5.2-3a55.3 55.3 0 00-10.3-4.5c-2.8-.9-5.7-1.4-8.7-1.2a17 17 0 00-7.4 2.2c-1.9 1-3.4 2.5-5.2 3.6-1.3.8-2.6 1.5-4.1 1.7-1.2.2-2.5 0-3.5-.5a6.6 6.6 0 01-3-3.1c-.7-1.4-1-2.9-2-4a6.2 6.2 0 00-4.4-1.7c-2.3 0-4.4 1.1-6.5 2.2-2.6 1.2-5.1 2.3-7.8 2.9-2.1.4-4.2.6-6.3.3-2.6-.3-5-1.4-7.5-2.4 2.7-1.8 5.3-3.5 7.9-5.4a89.7 89.7 0 0017.7-15.7 64.1 64.1 0 0014.6-36.3c.6-9.2-1.3-18.4-2.4-27.6-.9-6.8-1.4-13.5-1-20.5.2-3.3.5-6.6.5-10-.1-4.4-.9-8.8-3.3-12.5a48.3 48.3 0 00-31.3-16.5c-6.4-.5-12.6.8-18.5 2.9-6.5 2.2-12.6 5.4-19.2 7a40.8 40.8 0 01-14.5 1c-4.4-.5-8.6-1.8-12.8-3l-14.3 3.4.3 1.5c1.5 1.3 2.5 2.4 3 3.7 1 2 1.2 4.4.6 6.4-.5 1.3-1.3 2.5-2.1 3.7l-2.3 3.3c-1.3-1.4-2.7-2.8-3.6-4.5a9.1 9.1 0 01-1.2-6.4c.4-1.6 1.4-3 2.5-4.3l1.9-1.9-.2-.7v-.5l-2.6.8c-4.2 1.4-8.1 3.4-12 5.6v.2l.4.9c1.5.8 2.5 1.6 3.2 2.6 1 1.6 1.6 3.5 1.3 5.3-.2 1.2-.7 2.3-1.2 3.4l-1.4 3c-1.3-.9-2.7-1.8-3.7-3.1a7.8 7.8 0 01-2-5.2c.1-1.4.7-2.8 1.5-4l1.3-1.8-.2-.6v-.1c-3.5 2-7 4.3-10.3 6.6l4.1-3.8-.3-.3-.4-.4-2 .3a8 8 0 01-3.7-.6 7 7 0 01-3.4-3.7c-.5-1.3-.7-2.8-.9-4.3l3 .2c1.1 0 2.2.1 3.2.5 1.6.5 2.9 1.8 3.6 3.3.5 1 .8 2 .9 3.6l.7.8c3.2-2.8 6.7-5.4 10.4-7.6l-.3-.4-2.1.4c-1.3.2-2.7.2-4-.2-1.6-.6-3-2-3.7-3.7-.7-1.4-1-2.9-1.3-4.4h3.1c1.2 0 2.3 0 3.4.2a7 7 0 014 3.2c.6 1 1 2 1.1 3.7h.1c.2.2.3.4.7.6l5-2.5c4.5-2 9.2-3.3 14-4.4-6.7-2.6-10.7-4.1-15-4.8a39.9 39.9 0 00-19 1.4c-7.6 5.8-12 8.2-15.2 9.9v.3l.3 1.1a9.8 9.8 0 012.8 3.4c.8 1.8 1 4 .4 5.7-.4 1.2-1.1 2.3-1.9 3.3l-2 3a19.5 19.5 0 01-3.3-4 8.3 8.3 0 01-1-5.8A9.3 9.3 0 0167 217a16 16 0 011.7-1.7l-.1-.7v-.3c-1.2.6-2.3 1-3.3 1.6a34 34 0 00-9 6.8 20 20 0 00-3 4.5c.6-1.9 1.2-3.7 2.2-5.4.5-.9 1.2-1.8 1.9-2.6l-.5-.3-.5-.4-2 .5c-1.4.3-2.8.3-4 0-1.7-.6-3.1-2-4-3.5-.8-1.4-1.2-3-1.6-4.4l3.2-.2c1.2 0 2.3-.2 3.4 0 1.7.4 3.3 1.6 4.3 3 .6 1 1 2 1.3 3.7l1 1a31 31 0 015.6-4.4c2.6-1.7 5.2-3 9.8-7l-1.8.5A28 28 0 0150 205c-4 2.8-7.5 4.6-10.8 5.4l.4 1.3c1.5 1 2.5 2 3.1 3.1a8 8 0 011 5.6c-.2 1.3-.9 2.4-1.5 3.5l-1.6 3.2c-1.4-1-2.8-2.2-3.8-3.6a8.2 8.2 0 01-1.6-5.7c.2-1.4 1-2.8 1.8-4l1.5-1.9-.2-.7-.1-.6a17 17 0 01-5.2.2 24 24 0 01-9.7-3.8c0 .2-.2.3-.3.4l-1.1 1.2c-.1 1.8-.4 3-1 4-.9 1.7-2.4 3-4.1 3.6-1.1.3-2.4.4-3.6.4l-3.3.1a18 18 0 011.1-4.7 7.8 7.8 0 013.8-4 9 9 0 014.2-.5c.8 0 1.5.1 2.2.3l.5-.5.8-.7L20 205l4 1.8c3 1.2 6 2.2 9 2.3l-.4-.8-.2-.6-2-.5c-1.1-.4-2.3-1-3.2-2a7 7 0 01-1.6-4.7c0-1.5.4-3 .8-4.3l2.7 1.3c1 .5 2 1 2.8 1.7 1.2 1.1 2 2.8 2 4.4.1 1.2 0 2.3-.6 3.7l.4 1.4v.2l.1.2h1c4.4-.4 8.6-3 12.8-5.5-3-2.1-5.6-4.7-8.6-6.8-3-2.3-6.4-4.1-10-4.7a21.6 21.6 0 00-10.1 1l-3.4 1 1.3-.7-1.1-.6-.6-.3-2.2 1c-1.4.5-2.9 1-4.3.7-2-.2-3.8-1.4-5.1-3-1.2-1.3-1.9-2.9-2.6-4.4l3.5-.9c1.2-.3 2.5-.7 3.7-.6 1.9.1 3.7 1.1 5 2.5 1 1 1.6 2 2.2 3.1a36.3 36.3 0 012.8 1.7 16.3 16.3 0 012.3-1.2c3-1.3 6.4-1.7 9.7-1.2l-.4-1.1-.2-.7-2.4-.6a9.3 9.3 0 01-3.8-2.3 8.2 8.2 0 01-1.9-5.5c0-1.8.5-3.4 1-5.1l3.1 1.6c1.2.5 2.4 1 3.3 2a8 8 0 012.2 5.1 13 13 0 01-.4 3.8 17.2 17.2 0 001.7 3.2c2.3.6 4.2 1.4 6 2.5l1.1.7c2.6 1.8 4.9 4 7.5 5.9a27.3 27.3 0 0011.2 4.9v-.3l.2-.8.2-.7a16 16 0 01-1.6-1.8 9.3 9.3 0 01-1.9-4c-.3-2 .4-4 1.6-5.7 1-1.4 2.3-2.6 3.6-3.7l1.7 3.1c.7 1.1 1.4 2.3 1.6 3.5a8 8 0 01-.9 5.6c-.6 1.2-1.5 2.1-3 3.2l-.5 1.5v.2c3.7.4 7.5 0 11.1-1 1.7-.4 3.3-1 4.8-1.7-4-6.2-8-12.4-13.4-15.5l-.8-.4c-1.8-1-3.9-1.6-6-2l-1 .5-.5.3-.3 2.2a8.5 8.5 0 01-1.5 3.6 7.5 7.5 0 01-4.8 2.4c-1.5.2-3 0-4.6-.2l1-3c.4-1.1.7-2.3 1.4-3.2 1-1.3 2.6-2.2 4.3-2.6a12 12 0 013.4 0l.8-.4-5.9-1.2c-3.3-.8-6.6-1.9-9.8-3l3.5.3-.4-.8-.3-.6-2.2-.5a9 9 0 01-3.7-2 7.8 7.8 0 01-2.2-5 15.1 15.1 0 01.6-5l3.1 1.4c1.1.5 2.3 1 3.2 1.7.7.6 1.2 1.3 1.6 2.1.4.8.7 1.8.8 2.7.1 1.1 0 2.3-.2 3.5l.5 1.1.8 1.6 5 .6c3.2.3 6.4.6 9.5 1.2l-.1-1v-.6l-2-1.4c-1.2-.9-2.3-2-2.9-3.3-.8-1.8-.7-4 0-6a19 19 0 012.5-4.4l2.5 2.5a8 8 0 012.9 8.5c-.4 1.3-1 2.4-1.6 3.4V180.8l.1 1.3c1.5.3 2.8.8 4.1 1.4 7 3 11.8 10 16.7 16.9a50.8 50.8 0 0119-4 34 34 0 01-5.7-7.3h-1.8c-.5.6-1.2 1-1.8 1.6a9.2 9.2 0 01-4 1.7c-2 .3-4.1-.5-5.7-1.7-1.5-1-2.5-2.3-3.6-3.7l3.1-1.6c1.2-.7 2.3-1.3 3.5-1.5a8 8 0 015.5 1.2c1.1.7 2 1.6 3 2.8a5.6 5.6 0 001.2 0l-1.7-3.2a56 56 0 00-5-7.6l-.5.2-1.9.4a10.8 10.8 0 01-3.6 3.2c-2 1-4.3 1.3-6.3.7-1.4-.4-2.6-1.2-3.8-2l-3.3-2.1c1.3-1.4 2.6-2.8 4.3-3.8 1.9-1.2 4.3-1.8 6.4-1.4 1.6.3 3 1.3 4.3 2.3l2 1.9.7-.2 1-.1a39 39 0 00-13-10.2c3 1 6 2.1 8.6 3.6v-.3l.2-.6-1.5-1.7a8.8 8.8 0 01-2-3.7c-.3-1.9.3-3.9 1.3-5.5.9-1.4 2.1-2.5 3.3-3.6l1.8 2.9c.6 1 1.3 2 1.6 3.2.5 1.8.2 3.8-.6 5.4-.6 1.1-1.4 2-2.8 3.1L81 170v.3l.4.3a40 40 0 019.2 9.8l1.2 1.5c2.9 4 5.7 7.7 9.4 10.7 2 1.6 4.3 3 6.6 4.4l3 .6a93 93 0 018.1 2.3c4.5 1.4 8.9 3 13.4 4a35.8 35.8 0 0012 1.3c-1-.8-2.3-1.6-3.5-2.3-2.3-1.5-4.9-2.6-7.2-4-3.4-2.1-6.5-4.7-9.3-7.6l-1.5-1.5-.3.1h-.1l-1.7.6a10.8 10.8 0 01-3.4 3.5 9 9 0 01-5.9 1.3l-.4-.1c-1.3-.3-2.6-1-3.9-1.7l-3.5-1.8c1.2-1.5 2.4-3 4-4.2a9.2 9.2 0 016.3-1.9c1.6.2 3.1 1 4.5 2 .7.5 1.4 1 2 1.7l.8-.2.8-.2-5.2-6c-2.4-3-4.8-6-7.6-8.5l-.4.2-.8.5a9.9 9.9 0 01-2.3 3.7 8 8 0 01-5.2 2.3c-1.3 0-2.5-.4-3.8-.7l-3.4-1c.7-1.5 1.5-3 2.7-4.4a8.2 8.2 0 015.1-2.8c1.5-.2 3 .2 4.4.8l2.1 1 .6-.3h.1c-2.2-1.9-4.6-3.5-7-5.2a26.6 26.6 0 0110 5 54 54 0 014.4 4.3l.1-.4.2-.6c-.5-.5-1-1.1-1.3-1.7a8.4 8.4 0 01-1.5-3.7c-.2-1.8.6-3.6 1.7-5 1-1.3 2.2-2.2 3.5-3.2l1.4 3c.5 1 1 2 1.2 3.1.3 1.7-.2 3.6-1.1 5-.7 1-1.5 1.8-3 2.7 0 .4-.2.7-.3 1l-.2.5 3 3.1a83.6 83.6 0 0013.6 12l.2-.9.2-.7-1.6-2.2c-1-1.3-1.7-2.9-1.8-4.5-.2-2.2.7-4.5 2-6.2 1.3-1.6 2.8-2.7 4.3-3.9l1.8 3.6c.6 1.3 1.3 2.5 1.5 4 .4 2-.2 4.3-1.4 6.1-.8 1.2-1.8 2.2-3.6 3.3l-.6 1.7v.2l2.8 1.6 8 3.7a21 21 0 013.8 2.3l2.2 2h.1c3-1.2 5.7-2.7 8.4-4.2 0-3.7 0-7.3-.7-11a29.4 29.4 0 00-14.7-21.1c-4.2-2.4-8.9-4-13.7-5-3.8-.7-7.8-1-11.7-1.3h-.3c-5.2-.3-10.4-.4-15.6-1.3a55.5 55.5 0 01-22.2-9.1 101.6 101.6 0 01-15.4 6.8v.3l-.1.5-.2.6 1.4 1.5a8 8 0 011.7 3.3 7 7 0 01-1.1 5c-.8 1.2-1.9 2.2-3 3.2l-1.6-2.6c-.5-1-1.1-1.9-1.4-3-.5-1.5-.2-3.3.6-4.7.5-1 1.3-1.9 2.5-2.8 0-.4.2-.7.3-1a29 29 0 01-18-1 15.1 15.1 0 00-.4 1.5c.4.5.9 1 1.2 1.6.7 1 1.3 2.2 1.4 3.5a7 7 0 01-1.6 4.7c-.9 1.2-2 2-3.3 3l-1.3-2.8c-.5-1-1-2-1.1-3-.3-1.6.1-3.3 1-4.7.6-1 1.5-1.7 2.8-2.5l.5-1.4v-.1c-2.7-.9-5.3-1.7-7.9-1.7h-.6c-3 .2-6 1.5-8.9 3l-.3 1c0 .5-.1.6-.2.8l-.1.5 1.2 1.7a8 8 0 011.4 3.5l-.1 1.5a7.8 7.8 0 01-1.5 3.2c-1 1.2-2.1 2-3.3 3l-1.3-2.8c-.5-1-1-2-1.2-3-.3-1.6.1-3.4 1-4.7.7-1 1.5-1.7 2.8-2.6l.5-1.3v-.1l-3.3 2c2.6-3.4 6.7-5.8 10.8-6.7 0-.2-.2-.3-.3-.4l-.5-.6-2.7.3c-1.6 0-3.4-.1-4.8-.8-2-1-3.4-3-4.2-5-.7-1.9-.9-3.8-1-5.7l3.9.4c1.4.1 2.9.2 4.1.7 2 .8 3.5 2.6 4.4 4.5.6 1.3.8 2.7 1 4l1 1.2 1 1h1.2c4.9-.2 9.4 2.1 14 2.8 1.8.2 3.5.3 5.3.1v-.5-.8c-.8-.4-1.5-1-2.2-1.5-1.3-1-2.5-2.3-3.1-3.8-.9-2-.7-4.5 0-6.6.8-1.8 1.9-3.4 3-5l2.7 3c1 1 2 2 2.7 3.3.9 1.8.9 4.2.3 6.2a15 15 0 01-1.9 3.8 10.9 10.9 0 010 1.4v.3c3.6-.5 7.1-1.7 10.4-3.3 3-1.3 5.7-3 8.4-4.6l-.3-.3c-3-2.3-6-5-9.1-7a42.4 42.4 0 00-21.2-7.2 40 40 0 00-5 .2V134.7l-.1.7 1.9 1.5c1 1 2 2.2 2.5 3.6.7 1.9.4 4-.4 5.9-.7 1.6-1.8 3-3 4.3l-2.2-2.8c-.8-1-1.7-2-2.2-3a8 8 0 01-.1-5.8 9.7 9.7 0 012.4-3.7l.1-1.4-2.3.2c-3.4.2-7.6.3-11.4-.4-1.6-.3-3.2-.8-4.7-1.4l-.2.1-1 1.3-.3 2.6c-.3 1.6-.8 3.3-1.8 4.6l-.3.3a9.3 9.3 0 01-5.5 2.8c-2 .3-3.9 0-5.8-.2l1.2-3.8c.4-1.3.8-2.7 1.6-3.8a8.8 8.8 0 015.3-3.4c1.4-.3 2.8-.3 4.2-.2l1.3-.8c-1.6-.8-3-1.8-4.3-2.9-.9-.8-1.7-1.7-2.4-2.7l2.2 1.3a6 6 0 00-.4-1.3c-1.2-.8-2.3-1.6-3.3-2.6a8.8 8.8 0 01-2.3-5.8c0-1.4.5-2.8 1-4.2l1.1-3.7c1.7.9 3.4 1.8 4.8 3.2a9.1 9.1 0 013 5.9c0 1.6-.6 3.3-1.3 4.8-.3.8-.8 1.5-1.3 2.3l.1 1.2v.4l.3.7 2.1 1.1c3 1.4 6.5 2.2 9.8 2.4v-.7l-.2-.6c-1.6-.9-2.8-1.6-3.8-2.7a8.8 8.8 0 01-2.5-5.7c0-1.4.4-2.8.8-4.1l1-3.8c1.8.8 3.5 1.7 5 3 1.6 1.6 2.9 3.6 3 5.8a8 8 0 010 2.2l-1 2.6a19 19 0 01-1.2 2.4 21.6 21.6 0 00.2 1.6c4.2-.1 8.3-1.4 13-1.6 3.7-.1 8 .4 11.6 1.3a45.4 45.4 0 0116.1 7c4.7 3.2 9.3 7.2 14.6 10l1.1.5a34.2 34.2 0 00-6.7-14.2c-5.5-6-15-8.4-23-12.5l-5-3.1-.4.2-1.4.8-1.1 2.4c-.8 1.5-1.8 2.9-3.2 3.8a9.1 9.1 0 01-6.5 1c-1.9-.3-3.6-1.2-5.4-2l2.4-3.2c.8-1.1 1.6-2.3 2.8-3.2 1.6-1.2 4-1.6 6-1.4 1.5.2 2.8.6 4 1.2l1.5-.4h.1c-4.4-3.1-8.3-6.7-12.2-10.3 2.7 1.6 5 3 7 4.4v-.3a9.7 9.7 0 00-.1-1c-1.5-1-2.6-1.9-3.5-3a8.7 8.7 0 01-2-6c.1-1.3.7-2.6 1.2-4l1.5-3.7a29.3 29.3 0 014.5 3.6 9.1 9.1 0 012.6 6c0 1.6-.7 3.3-1.5 4.7-.4.8-1 1.5-1.5 2.3v1l.1.6v.7c4.6 3 8 5.5 12.3 7.4l3.5 1.4v-.3l-.2-1.4c-.8-.9-1.6-1.9-2.2-3a8 8 0 01-.8-5.6c.4-1.2 1.1-2.3 1.8-3.3l2-3c1.2 1.2 2.5 2.4 3.4 3.9 1 1.7 1.6 3.8 1.1 5.8a9.2 9.2 0 01-2 3.8l-1.8 1.8-.2 1.4v.3c4 1.5 8.4 2.8 12.3 4.8a23 23 0 015.8 4c4.7 4.8 7 12.3 9.2 19.5 3.6 1.2 7.3 2 11 2.4 4.5.5 9 .5 13.6.5-1.6-1-3-2.2-4.5-3.4-5.6-4.9-9.7-11.4-13.5-18.3-2.3-4-4.5-8.2-7.8-11l-1-.7-.5.2-.9.4-.3.2-1 1.8a8.5 8.5 0 01-3 2.8c-1.5.9-3.5 1-5.2.5l-1.1-.4c-1.1-.4-2.1-1-3.1-1.6l2.1-2.4c.8-1 1.5-1.8 2.5-2.4a7 7 0 015-.8c1.1.3 2.1.7 3.5 1.4l.3-.1.6-.3c-3.7-2.1-8-3.4-11.6-5.8A26.4 26.4 0 0167 99.6c-.5-1.7-.8-3.4-1.5-4.9a11 11 0 00-1.2-2 16 16 0 01-1.2.9l-1.1 2a8.7 8.7 0 01-3 3c-1.6.8-3.7.9-5.5.4-1.6-.4-3-1.2-4.5-2l2.2-2.5c.8-1 1.5-2 2.6-2.6 1.5-1 3.4-1.2 5.2-.8 1.2.2 2.3.7 3.7 1.4l.3-.2.6-.3a20 20 0 00-4.7-3.5l-4.5-2.3c1.1.2 2.3.5 3.4 1-.1-1-.3-1.4-.6-1.5-1.3-.6-2.6-1.2-3.6-2.2a8.8 8.8 0 01-3-5.4c-.2-1.4 0-2.8.4-4.2l.7-4c1.8.8 3.6 1.5 5.1 2.7a9.1 9.1 0 013.6 5.5c.3 1.6 0 3.3-.5 4.9l-1 2.4c0 .7.3 1.7.5 2.3 3 1.3 5.6 3.2 7.1 5.8.9 1.5 1.4 3.2 2 4.8 0 .3.2.5.3.8l.4-.7.3-.4c-.6-1.7-1-3-1-4.5 0-2.1.7-4.4 2.1-5.9 1-1 2.2-1.7 3.4-2.4l3.4-2c.7 1.7 1.3 3.5 1.5 5.5.2 2.2-.3 4.6-1.7 6.3-1 1.3-2.5 2.2-4 2.8l-2.5 1a10.4 10.4 0 00-1 1.3l-.3.5c2 4.8 5.1 9.3 9.4 12 4.2 2.5 9.5 3.4 13.5 6l.1-.3v-.4l.1-.5c-1.2-1.4-2-2.5-2.6-3.8-.9-1.9-1.2-4.2-.5-6.2.4-1.3 1.3-2.5 2.1-3.6l2.3-3.3c1.4 1.4 2.7 2.8 3.6 4.5 1 2 1.6 4.4 1 6.5-.4 1.6-1.4 3-2.5 4.2l-2 1.8-.2.8-.1.9v.3c3 2.5 5.3 6.2 7.7 9.8 2 3 4 6 6.1 8.8l.5-.6.2-.4c-.6-1.8-1-3.1-1-4.5 0-2.2.6-4.4 2-6 .8-1 2-1.8 3.3-2.5l3.4-2.1c.7 1.8 1.4 3.6 1.5 5.5.3 2.2-.2 4.6-1.5 6.4-1 1.3-2.5 2.2-4 2.9l-2.5 1-.7 1-.2.3v.1c2.2 2.8 4.7 5.4 7.6 7.6 5 3.9 11.2 6.5 17 8.8l1 .3a48 48 0 0118 8.1 32 32 0 0110.3 14.2c1 2.4 1.8 4.9 2.7 7.3l3.7 9.6c2.2-.8 4.4-1.3 6.7-1.7 5.6-1 11.3-1.1 17-1.3h1.7a49.5 49.5 0 01-9.3-13.2h-1.9l-1.3.2c-1.1.9-2.2 1.7-3.5 2.3-2 .9-4.3 1.2-6.3.5-1.3-.5-2.4-1.3-3.6-2.2l-3.2-2.3c1.4-1.3 2.8-2.6 4.5-3.5 2-1 4.4-1.6 6.5-1 1.6.4 3 1.4 4.2 2.6.7.6 1.3 1.2 1.8 2l.8-.1 1.2-.2c-2.3-4.8-4.4-10-7.7-14.2-1.6-2-3.5-4-6-5.8a27.8 27.8 0 00-3.3.5l-.7.2c-.9 1-1.8 2.1-3 3-1.7 1.1-4 1.9-6 1.6-1.4-.2-2.7-.9-4-1.5l-2-1-1.6-.7c1.2-1.5 2.3-3 3.8-4.3 1.8-1.4 4-2.3 6.2-2.2 1.6.2 3.2.9 4.6 1.8.8.5 1.5 1 2.1 1.6l1.1-.2 1-.2c-4.3-3-10-6-18-9.8l-1.7 1-.6.4-.5.3c-.5 1.2-1 2.4-1.7 3.4a8 8 0 01-4.8 3c-1.2.3-2.5 0-3.8 0l-3.5-.5c.5-1.7 1-3.3 2-4.8a8.2 8.2 0 014.7-3.6c1.5-.3 3-.1 4.5.3l2.2.7 1-.4.7-.5-5-2.2a134 134 0 0116.7 5l-.3-1-.5-1a18 18 0 01-2.5-.9c-1.5-.6-3-1.6-4-2.8a9.1 9.1 0 01-1.5-6.4c.1-2 .8-3.8 1.5-5.6 1.1.8 2.2 1.4 3.4 2.1 1.2.8 2.4 1.5 3.4 2.6 1.3 1.5 2 3.8 2 6-.1 1.3-.5 2.7-1 4l.6 1.4c0 .3.2.7.5 1.4l.3 1a45 45 0 0116 10.2 32 32 0 013.5 4.5l.5-1.2.4-.7c-.5-.8-1-1.5-1.3-2.4-.7-1.5-1.2-3.1-1-4.8a9.1 9.1 0 013-5.8c1.3-1.3 3-2.2 4.7-3.1l1.2 3.8c.4 1.3.9 2.7.9 4.1 0 2-1 4.2-2.5 5.8-1 1-2.1 1.8-3.3 2.5l-.6 1.4-.9 2.3c3.2 5.4 5.2 11.3 8.6 16l.7 1 .6-.6.6-.5v-2.6c0-1.7.4-3.4 1.3-4.8a9.2 9.2 0 015.3-3.8c1.9-.5 3.8-.5 5.8-.5l-.8 4c-.2 1.3-.5 2.7-1.1 4a8.9 8.9 0 01-4.9 4c-1.3.4-2.7.5-4.1.6l-1 1-.7.5c2.9 3.2 6.3 6 9.8 8.3h1.7c5.3.5 10.5 1.8 15.6 3.4 3 1 6 2 8.9 3.2-2.8-8.6-5.9-17-10.2-24.7-3.7-6.6-8.4-12.8-13.4-18.6-4.4-5.2-9.1-10.1-13.5-15.2-13.2-4-14.6-4.3-16-4.6a97.7 97.7 0 01-26.3-9.8c-2.5-1.5-5-3.2-7.4-4.9l-.3.3-.6.5.2 2.7c0 1.6-.1 3.4-.9 4.8-1 2-3 3.4-5 4.2-1.9.7-3.8.8-5.7 1l.4-4c.2-1.4.3-2.8.8-4.1.8-2 2.5-3.6 4.5-4.5 1.3-.6 2.7-1 4.8-1l.8-.6a75.7 75.7 0 00-11.6-7.2c-4.2-2-8.8-3.2-13.1-4.7l-1.3 1.5c0 .9-.1 1.8-.3 2.6-.3 1.7-.8 3.3-1.8 4.6a9.2 9.2 0 01-5.8 3.1c-1.9.3-3.8 0-5.7-.1l1.2-3.8c.4-1.4.8-2.8 1.6-4a8.8 8.8 0 015.3-3.3 15 15 0 014.2-.2l1-.6.3-.2a34.3 34.3 0 01-9-4.6A37.6 37.6 0 0196 89.8l-1 .7c-.2.9-.5 1.7-.9 2.5-.7 1.5-1.5 3-2.8 4a9.2 9.2 0 01-6.4 1.7c-2-.2-3.7-.9-5.5-1.5l2-3.4c.8-1.3 1.5-2.5 2.5-3.4 1.6-1.4 3.8-2 6-2 1.4 0 2.7.4 4.5 1 .1-.2.2-.2.4-.3l.6-.5c-3.2-6-6.2-12.3-13.8-18.8a8.8 8.8 0 00-1.3.8 16 16 0 01-.8 2.3 9.2 9.2 0 01-2.4 3.7 8.3 8.3 0 01-5.7 1.6 19 19 0 01-5-1.3l1.7-3c.7-1.2 1.3-2.3 2.2-3.2a8 8 0 015.3-1.9c1.3 0 2.5.3 4 .8l.4-.3c.2 0 .3-.1.6-.4L76 65.4a37 37 0 0112.6 7.3v-.3l.2-.4v-.5a16 16 0 01-2.5-3.8c-.8-2-1-4.3-.3-6.3.5-1.3 1.4-2.4 2.3-3.5l2.4-3.2c1.3 1.4 2.6 2.9 3.4 4.6 1 2 1.5 4.5.8 6.5-.5 1.6-1.5 3-2.7 4.2l-2 1.7a18.7 18.7 0 00-.4 1.6v.5c4.7 4.7 7.4 10 10.5 15.1 0 .2.2.4.3.5l.4-.6.2-.4c-.7-1.7-1.1-3-1.3-4.4-.2-2.2.3-4.5 1.5-6.1.9-1.1 2-2 3.3-2.8l3.2-2.3c.8 1.8 1.6 3.5 1.9 5.5.4 2.2 0 4.6-1.1 6.4-1 1.4-2.3 2.4-3.8 3.2-.8.4-1.6.8-2.5 1l-.6 1.1-.2.4-.2.3c2.5 3.8 5.4 7.3 8.8 9.6a30 30 0 008.3 3.7v-.4-.4l.1-.5a15.2 15.2 0 01-2.8-3.6 8.8 8.8 0 01-.9-6.2c.4-1.3 1.2-2.5 2-3.7l2-3.4c1.5 1.3 2.9 2.7 3.9 4.3 1.2 2 1.8 4.3 1.3 6.4-.3 1.6-1.2 3-2.3 4.4-.5.7-1.2 1.3-1.8 1.9l-.2 1v.5c4.6 1.4 9.5 2.3 14 4l1.9 1v-1.1a10.8 10.8 0 01-2.7-4.1c-.7-2-.7-4.5.2-6.4.6-1.3 1.6-2.3 2.5-3.4 1-1 1.8-2 2.6-3 1.2 1.5 2.4 3 3.2 4.8.8 2 1.1 4.5.4 6.6-.6 1.5-1.7 2.8-3 3.9-.6.6-1.3 1.2-2 1.6v1.6c4.4 2.3 8.4 5.4 12.6 8l.3-1c-.9-1.8-1.2-3.3-1.2-4.7 0-2.2.8-4.4 2.3-6 1-1 2.2-1.6 3.5-2.4l3.4-2c.6 1.8 1.3 3.7 1.4 5.6.2 2.2-.3 4.6-1.7 6.3-1 1.3-2.5 2.2-4 2.8-.9.4-1.7.7-2.6.9l-.2.7v.3l-.2.2 3 1.7c9 4.8 19.6 6.4 30.2 8-1.4-4.7-2.7-9.5-4.2-14.2-1.9-5.9-4-11.7-7.2-16.8-3-5-7-9.3-11.8-12.7v.2l-.6 1 .1 2.6c0 1.7-.3 3.4-1 4.8-1.1 2-3.1 3.3-5.3 4-1.8.6-3.7.7-5.7.8l.6-4c.2-1.4.4-2.8 1-4a8.8 8.8 0 014.7-4.2c1.3-.5 2.7-.7 4.5-.9l.3-.3.4-.8-2-1.3a80 80 0 00-15.5-7l-.3.5-.4.9.2 2.7c.1 1.6 0 3.3-.8 4.8-1 2-2.8 3.5-5 4.3-1.8.7-3.7.9-5.6 1l.4-3.9c0-1.4.2-2.9.7-4.2.8-1.9 2.5-3.5 4.5-4.3 1.3-.6 2.6-1 4.4-1.2l.3-.4.4-.7c-.4 0-.7-.2-1-.3-4.5-1.6-9-3.2-13.3-5.4l-.1.2-.7.9-.1 2.2a8.9 8.9 0 01-1.3 4 7.8 7.8 0 01-4.8 2.9c-1.6.3-3.3.2-4.9.1l.8-3.2c.3-1.2.6-2.4 1.2-3.4 1-1.5 2.6-2.6 4.4-3 1.1-.4 2.3-.5 3.9-.4l.3-.3c0-.2.2-.3.3-.5a36 36 0 01-11.6-10l-.2.2-.8.8c-.3 1.8-.7 3-1.4 4.2-1.1 1.6-2.8 2.9-4.6 3.3-1.3.3-2.6.3-3.9.2l-3.5-.1c.4-1.7.8-3.4 1.6-5 1-1.7 2.5-3.3 4.4-4 1.3-.4 3-.3 4.4 0 .8 0 1.6.3 2.3.5l.6-.5.2-.2.3-.2-1.4-2.3-2.5-4.4 2.5 2.7.2-.7.1-.5c-1-1.5-1.8-2.7-2.2-4-.7-2-.7-4.4.2-6.3.6-1.3 1.6-2.3 2.5-3.4l2.7-3c1.1 1.6 2.3 3.2 3 5 .9 2 1 4.5.3 6.5-.6 1.5-1.8 2.8-3 4l-2.1 1.5c-.3.5-.5 1-.6 1.6l-.1.4a95.3 95.3 0 009 8.4 5 5 0 00.5-1.2c-1-1.5-1.8-2.7-2.2-4-.7-2-.7-4.4.1-6.3.6-1.3 1.6-2.3 2.6-3.4l2.6-3c1.2 1.6 2.4 3.2 3 5 1 2 1.2 4.5.3 6.5-.5 1.5-1.7 2.8-3 4l-2 1.5-.3.5-.4 1.2a31 31 0 004.3 2.5 48 48 0 009.4 3v-.4-.5a15.3 15.3 0 01-3-3.5 8.8 8.8 0 01-1-6.1c.2-1.4 1-2.6 1.7-3.9l2-3.4c1.4 1.2 2.9 2.5 4 4.1 1.2 1.9 2 4.2 1.6 6.4-.2 1.6-1 3-2 4.4l-1.8 2-.2 1v.2l5.3 1.3c3 .8 5.7 1.8 8.5 3l.2-.7.1-.5c-1-1.5-1.8-2.7-2.2-4-.7-2-.7-4.4.2-6.3.6-1.3 1.6-2.3 2.5-3.3l2.7-3c1.1 1.5 2.3 3 3 4.9l.2.4a9 9 0 01.1 6.1c-.6 1.5-1.7 2.8-3 4l-2.1 1.5-.6 1.4a76.1 76.1 0 0117.2 11 43 43 0 014.6 4.8c.6-3.3.5-5.9.4-8.5 0-4.4.4-9 .3-13.5v-1h-.2l-1.3-.2a9.9 9.9 0 01-4 1.5 8 8 0 01-5.6-1.5c-1-.8-1.7-1.8-2.5-2.9l-2.1-2.9c1.6-.7 3.1-1.5 4.9-1.8 2-.3 4.1 0 5.8 1 1.2.8 2.1 2 2.8 3.4.5.7.8 1.4 1 2.1l.8.2h.4c-.2-2.5-.5-5-1.4-7.4a22 22 0 00-4.2-6.7l-1 .3h-.4c-1 1.3-1.8 2-2.8 2.5-1.4.8-3.2 1-4.8.6-1-.3-2-1-2.9-1.5l-2.5-1.6c1-1 2-2.2 3.2-3a7 7 0 015-1 8 8 0 013.3 1.7l1.5 1.4h.5l.3-.1-3.7-3.6a34 34 0 01-4.4-5l-.2-.4a35 35 0 01-1.9 0 9.7 9.7 0 01-4 1.8c-1.9.3-4 0-5.6-1-1-.8-1.9-1.8-2.7-2.7l-2.4-2.7a19 19 0 014.7-2.2c2-.5 4.2-.5 6 .5 1.2.6 2.2 1.8 3 3 .5.7 1 1.4 1.3 2.1l.6.1h.3a26.7 26.7 0 01-3.4-13.7l-1.3-.3c-1.7.8-3 1.1-4.3 1.1-2 0-4-.7-5.3-2-1-.8-1.6-2-2.3-3l-1.8-3.1a19 19 0 015-1.4c2-.1 4.1.3 5.7 1.5 1.2.9 2 2.2 2.6 3.6l.8 2.3.7.1.2.1v-4.2l1 5.1c.5 2.5 1.1 5 2 7.3l.1-.2.6-.4V32c0-1.5.3-3 1-4.3 1.1-1.6 3-2.8 5-3.3a19 19 0 015-.5l-.6 3.5c-.2 1.2-.4 2.5-1 3.7a8 8 0 01-4.3 3.7c-1.2.5-2.5.6-4.4.5l-.8.5-.3.2a22.4 22.4 0 007.6 10l.3-.1.6-.3.5-2.4c.4-1.4 1-2.8 2.1-3.9a8.2 8.2 0 015.5-2.2c1.7 0 3.4.3 5.1.7l-1.4 3.3c-.6 1.2-1 2.4-1.9 3.4a8 8 0 01-5 2.6c-1.3.2-2.6 0-4.4-.6l-.4.2c2 1.8 4 3.4 5.7 5.4.8 1 1.5 2 2.1 3.2l.3-.1h.4l.2-.1 1-2.2a9.3 9.3 0 013-3.4c1.6-1 3.8-1.3 5.8-1 1.7.4 3.3 1.1 4.8 1.9l-2.1 2.9c-.8 1-1.5 2-2.5 2.9a8 8 0 01-5.5 1.4 9.9 9.9 0 01-4.2-1.5l-.3.1-.4.1c3.4 7.4 3 17.9 2 33.5 1.5-6.3 2.8-12 5.1-17.5A49.4 49.4 0 01194.4 57c2-2.4 4.4-4.7 6.3-7.4l1.4-2-1-.4c-1.7.5-3 .7-4.3.5-2-.3-3.9-1.2-5-2.7-.9-1-1.3-2.2-1.8-3.4l-1.4-3.3c1.6-.3 3.3-.7 5-.6 2.1 0 4.2.8 5.6 2.2 1 1 1.6 2.5 2 4l.5 2.3.6.3.4.1a54.3 54.3 0 005-11.4l-1.2-.7c-1.9.2-3.2.2-4.4-.2a7.9 7.9 0 01-4.5-3.5c-.7-1-1-2.3-1.3-3.6l-.9-3.5c1.8 0 3.5-.2 5.2.2 2 .5 4 1.5 5 3.1a9.3 9.3 0 011.4 4.2l.2 2.2v.2l.9.6a67.4 67.4 0 003-16.2l-1.4-.6c-1.8.6-3 .7-4.4.5a8 8 0 01-5-2.7c-.8-1-1.3-2.2-1.8-3.4l-1.4-3.2c1.7-.4 3.4-.8 5.1-.7 2 .1 4.1.8 5.5 2.3 1 1 1.6 2.4 2 3.9.3.8.4 1.6.5 2.3l.7.3.3.1v-2.6A51.6 51.6 0 01212 27h.1l.6-.2.8-2.3a9.5 9.5 0 012.5-3.6 8.2 8.2 0 015.7-1.6c1.7.2 3.4.8 5 1.3l-1.8 3.1c-.7 1.1-1.3 2.3-2.2 3.1a7.9 7.9 0 01-5.1 2h-.2c-1.3 0-2.6-.2-4.3-1a15.2 15.2 0 01-1.3.3 61.3 61.3 0 01-5.8 19h1l1.3-2c.9-1.1 2-2.3 3.3-2.9 1.8-.8 4-.8 5.9-.1a19 19 0 014.5 2.4l-2.5 2.6c-.8.9-1.7 1.9-2.8 2.5a8 8 0 01-5.7.7c-1.3-.3-2.4-1-3.9-2h-1.6c-1 2-2.2 4-3.6 6-2.2 3-5 5.7-7.5 8.7h.3l.7.2 1.8-1.5a9.2 9.2 0 014-1.8c2-.3 4 .4 5.7 1.6 1.4 1 2.5 2.3 3.6 3.7-1 .5-2 1-3 1.7-1.2.6-2.3 1.2-3.6 1.5a8 8 0 01-5.6-1c-1.1-.6-2-1.6-3.1-3l-.8-.3-.7-.3-.6.9c-2.3 3-4.1 6.5-5.4 10a58.1 58.1 0 00-3 24.6 60.3 60.3 0 009 28.8c5 7.7 12.5 13.6 20 19.6-3.7-9.9-7.2-19.8-8.8-30.3a65 65 0 012-31.7 62 62 0 0111.8-19.4c3-3.4 6.2-6.7 8-10.5 2.2-4.6 2.3-9.9 2.3-15.4l-.6-.2-.8-.3c-1.7.7-3 1-4.3.8a8 8 0 01-5.2-2.4c-.8-1-1.4-2.1-2-3.3l-1.6-3.2c1-.3 2.1-.6 3.2-.7l2-.2c2 0 4 .6 5.5 2 1 1 1.8 2.3 2.3 3.7l.6 2.4.6.2.3.1V37c0-5.8.2-11.6 3-16a18 18 0 013.3-4.1l-.6-1.2a9.8 9.8 0 01-3.6-2.5 8 8 0 01-2-5.3c0-1.3.4-2.5.8-3.7L231 .8c1.5.8 3 1.6 4.3 2.8a8.3 8.3 0 012.6 5.3c.1 1.5-.4 3-1 4.3-.3.8-.7 1.5-1.2 2.1l.3.7.1.2c1.3-1.1 2.8-2.1 4.3-3-1.5 1.3-3 2.7-4.2 4.1a21 21 0 00-3.3 4.6c-.5 1-1 2.2-1.2 3.4H232.5c.4-.7 1-1.3 1.5-1.9 1-1.1 2.2-2.1 3.6-2.6 1.8-.7 4-.4 5.9.4 1.6.7 3 1.8 4.3 2.9l-2.8 2.3c-1 .8-1.9 1.7-3 2.2a8 8 0 01-5.8.2 9.9 9.9 0 01-3.6-2.4l-1.1-.1h-.2c-.7 3.6-.5 7.7-.2 11.6l.6 7H232.6c.3-.8.8-1.5 1.2-2.2a9.3 9.3 0 013.1-3c1.8-1 4-1 6-.5a19 19 0 014.6 2.2l-2.3 2.6c-.9 1-1.7 2-2.8 2.7a8 8 0 01-5.6 1 9.6 9.6 0 01-4-1.8h-1.1a27.9 27.9 0 01-1.5 11.7c-1.6 3.6-4.3 7-6.8 10.4-4.5 6.4-8.2 13.1-10 20.4a64.4 64.4 0 00.8 31.7c1 3.7 2.1 7.3 3.5 10.8.4-2.8 1-5.5 1.6-8.3a60.3 60.3 0 016-15.3l-.2-.2a29 29 0 01-.7-.8c-1.8-.2-3.1-.6-4.2-1.3a8 8 0 01-3.5-4.5c-.3-1.2-.3-2.5-.2-3.8V93c1.7.4 3.4.7 5 1.5 1.8 1 3.4 2.5 4 4.3.5 1.4.5 3 .3 4.4l-.5 2.4.4.5.2.2a41 41 0 019.1-10.6v-.2-.2l-.3-1.5a9.2 9.2 0 01-2.5-3.3 7.5 7.5 0 01-.2-5.4c.4-1 1.1-2 1.9-3l2-2.8c1 1.2 2.2 2.4 3 4 .8 1.6 1.2 3.6.7 5.4a8.9 8.9 0 01-2.2 3.6l-1.6 1.5v.7l.1.7a10 10 0 013.5-1.2c-.8.3-1.6.7-2.3 1.2-1.7 1.2-3 2.8-4.3 4.5l-.8 1 .7.2.5.2c.5-.5 1-.9 1.7-1.2a8 8 0 013.5-1.3 7 7 0 014.7 1.6c1.2 1 2 2.1 3 3.3l-2.8 1.3c-1 .5-2 1-3.1 1.1-1.6.3-3.3-.2-4.7-1-1-.7-1.7-1.5-2.5-2.9l-1.3-.5h-.2a52.4 52.4 0 00-7.7 16.4l1 .1h.8l1.6-1.7c1-1 2.4-2 3.8-2.3 1.9-.5 4-.1 5.8.8 1.5.9 2.8 2 4 3.2l-2.8 2.1c-1 .8-2 1.6-3.3 2a8 8 0 01-5.6-.5c-1.2-.5-2.2-1.2-3.1-2l-1.3-.2h-1.3l-1 5.1c-.5 4-.6 7.9-.6 15.9l4.5 8.6c2.7 5 5.6 10 8 15-.2-2-.2-4 .3-6 .7-2.2 2.2-4.2 3.7-6.1l-.9-.7c-2 0-3.2-.1-4.5-.6a8 8 0 01-4.2-3.8c-.5-1.2-.7-2.5-.9-3.8l-.6-3.5c1.8 0 3.5.1 5.2.6 1.9.6 3.8 1.8 4.7 3.5.8 1.3 1 2.9 1 4.4v2.3l.5.5.3.2 2.3-3c1.3-2 2.3-4.1 3.1-7.5l-.2-.1-.7-.5-.6-.5c-1.8 0-3-.1-4.1-.6-1.7-.7-3.2-2-4-3.7-.4-1.1-.5-2.3-.7-3.5l-.5-3.4c1.7.1 3.3.2 4.9.7 1.8.6 3.5 1.8 4.4 3.4.6 1.2.8 2.7.8 4.1v2.3l.4.4.5.4c.5-2.3 1-5.3 1.2-9.1.3 1.6.5 3.3.6 4.9a26.4 26.4 0 01-1.1 9.5h1.2l1.2-1.7c.8-1 1.8-1.9 3-2.3a7 7 0 015 .1c1.4.6 2.5 1.4 3.7 2.3l-2.2 2c-.8.8-1.6 1.6-2.6 2-1.4.8-3.2.9-4.8.4-1-.3-2-.9-3.2-2H245h-.1-.1c-.6 1.7-1.3 3.3-2.1 4.8l-2.6 4.6-.1.2h.5l.7.1 1.7-1.8c1-1 2.3-1.9 3.7-2.3 2-.5 4 0 5.9.9 1.5.8 2.8 2 4 3.2l-2.9 2c-1 .8-2 1.6-3.2 2a8 8 0 01-5.6-.4 13 13 0 01-3.2-2.1l-1.2-.2h-1.2a13 13 0 00-.7 1.7c-.8 2.3-.8 4.8-1 7.2-.1 2.1-.4 4.2-.3 6.2.2 3 1.1 6.1 2.3 9 1.3 3 3 6 4.2 9 1.3 3 2.2 6.2 3.1 9.3l2.5-7.5c3-8 7.2-15.6 12-22.6 2.4-3.2 4.8-6.4 10.3-12.8-3.7-5-7.2-9.5-10.2-14.3l-1.5-2.4a65.4 65.4 0 01-8.3-45.6c.5-15.2 1.4-18.5.7-21.5 0-.7-.3-1.3-.6-1.9l-1 .4a8.8 8.8 0 01-2.6 3 7.2 7.2 0 01-5 1.3c-1-.1-2.1-.7-3.2-1.1-1-.5-2-1-3-1.3 1-1.3 1.9-2.6 3-3.6 1.5-1.2 3.3-2 5-1.8 1.4 0 2.7.6 3.8 1.3l1.8 1.3.6-.2.2-.1c-1.3-2.7-3.4-5.2-4.8-7.9-.5-1-1-2-1.3-3h-.3l-.7.1c-1 1-1.8 1.6-2.8 2a6 6 0 01-4.3 0c-1-.4-1.7-1-2.5-1.6l-2.1-1.7c1-.9 2-1.8 3.2-2.3 1.4-.7 3-1 4.5-.5 1 .3 2 1 2.8 1.9l1.2 1.4h.6l.2-.1c-.8-2.7-1.2-5.5-1.6-8.3 1 4.1 2 8.2 4.3 11.8l1.5 2 .2-.4.3-.5-1-2a8.4 8.4 0 01-.6-3.9 7.5 7.5 0 012.7-4.6c1.2-1 2.6-1.7 4-2.3l.8 3.1c.3 1.1.6 2.3.6 3.4-.1 1.7-1 3.4-2.2 4.7a9 9 0 01-3.4 2l-.8 1.2c2 2.3 4 4.5 4.8 7.1.6 1.8.6 3.7.4 6.9 2.4-8.2 5.3-16.3 6.3-24.7.8-6.3.6-12.9-.3-19.3h-.8l-.5.1a8.7 8.7 0 01-3.3 2.1c-1.7.6-3.6.5-5.2-.2-1-.5-1.9-1.3-2.7-2.1l-2.4-2.1c1.2-1 2.4-2 3.9-2.5 1.7-.7 3.6-1 5.3-.3 1.2.5 2.3 1.4 3.2 2.4l1.3 1.7h1l-.3-1.8a147.8 147.8 0 00-4.2-17.9l2.2 5 .4-.5-.6-2a8.4 8.4 0 010-4 7.4 7.4 0 013.3-4.2c1.4-.8 2.9-1.2 4.4-1.6l.2 3.2c.1 1.1.3 2.3 0 3.4a7.1 7.1 0 01-2.8 4.3 9 9 0 01-3.7 1.4l-.9 1a93.5 93.5 0 015.4 18.3h.1l.6-.3.5-2c.3-1.4.9-2.7 1.8-3.6 1.2-1.3 3.1-2 5-2l2.5.1 2 .4-1.2 3c-.5 1-1 2.2-1.6 3a7.2 7.2 0 01-4.6 2.5 9 9 0 01-3.9-.5l-.8.3-.4.2a63.7 63.7 0 01.4 16.8h1.1l1.4-2c1-1.1 2-2.2 3.4-2.8 1.8-.7 4-.5 6 .2l.5.2c1.4.6 2.6 1.5 3.9 2.4l-2.6 2.5c-1 .8-1.9 1.8-3 2.3a8 8 0 01-5.7.5c-1.3-.3-2.4-1-3.8-2.2h-1.4c-.5 4.5-1.4 9-2.5 13.6h.4l.3.1h.4l1.6-1.7c1.1-1 2.4-2 3.8-2.4 1.9-.5 4-.1 5.8.8 1.6.8 2.9 2 4.1 3.1l-2.8 2.2c-1 .7-2 1.5-3.3 2a8 8 0 01-5.7-.2 9.7 9.7 0 01-3.5-2.7h-1.3l-2 8.8a93.4 93.4 0 00-2.7 30.1 64 64 0 0110-14.1l-.5-.8-.1-.2a8.3 8.3 0 01-3.1-2 6.8 6.8 0 01-1.8-4.6c0-1 .3-2.1.7-3.2l.9-2.9c1.3.7 2.6 1.4 3.7 2.4a7 7 0 012.3 4.5c0 1.2-.4 2.5-.9 3.7l-1 1.8h.1l.2.5.1.2a55.6 55.6 0 019.6-8v-.3c-.2-.5-.2-.8-.2-1.1a8.3 8.3 0 01-1.9-3.2c-.4-1.6-.3-3.4.5-4.9.5-1 1.3-1.7 2-2.5l2-2.2c1 1.2 1.8 2.4 2.3 3.8a7 7 0 01.1 5 7.8 7.8 0 01-2.4 3l-1.6 1V87.5c1.1-.7 2.3-1.4 3.6-2 1.9-.8 3.9-1.6 5.8-1.7.2-.8.4-1 .6-1.3-.3-1.6-.2-2.7.1-3.8.5-1.6 1.6-3 3-3.8.9-.6 2-.8 3-1l3-.8c0 1.5.1 3-.2 4.4a7 7 0 01-2.6 4.3c-1 .7-2.3 1-3.6 1.1l-2 .2-.3.5-.2.1 2.1.3c-.8 0-1.7.1-2.5.3h-.3c-1.9.6-3.7 1.6-5.4 2.7a64.6 64.6 0 00-5 3.7l.4.2 1.4-1c1-.6 2-1 3-1.1a6 6 0 014 1.4c1 .8 1.8 1.8 2.5 2.9l-2.4 1c-.8.4-1.7.8-2.6 1-1.3.2-2.8-.2-4-1a7.1 7.1 0 01-2-2.5c-.3 0-.6-.1-1-.5a44.2 44.2 0 00-11.4 13.7l.5.1 1.7-1.2a8 8 0 013.5-1.3 7 7 0 014.7 1.7c1.2 1 2 2.1 3 3.3l-2.9 1.3c-1 .5-2 1-3 1.1-1.6.3-3.4-.2-4.7-1.1-1-.6-1.7-1.5-2.5-2.8l-1-.5-.6 1.2c-2 3.5-3.5 7.2-5 10.9a51.2 51.2 0 005.1 15.1c3.7 6.6 8.6 12.3 13.5 18 8-6.8 14.3-11.8 19-17.4 1.3-4.6 1.9-7.4 1.3-9.9-.6-2.3-2.2-4.4-3.8-6.6l-.8.4-.2.1a8.3 8.3 0 01-2.2 3c-1.3 1-3 1.7-4.6 1.6-1.1-.1-2.1-.5-3.2-.9l-2.8-1c.7-1.3 1.5-2.5 2.6-3.6a7 7 0 014.5-2c1.3 0 2.5.4 3.7 1l1.7 1 .5-.2.2-.1-1.9-2.9c-1-1.8-1.8-3.8-2.2-6-.3 0-.6-.2-.8-.3l-.4-.1c-1.3.5-2.3.6-3.3.6a6 6 0 01-4-2c-.6-.7-1-1.6-1.5-2.4l-1.2-2.5c1.3-.3 2.6-.7 4-.7 1.5 0 3 .5 4.2 1.5.8.8 1.3 1.9 1.7 3l.5 1.7.3.2h.2l.1.1-.1-1.2a27 27 0 01-.2-4.4l1 3.5v-.2c.2 0 .3-.2.5-.3a12 12 0 01-.3-1.8c0-1.2 0-2.4.5-3.4.6-1.4 1.9-2.4 3.3-3 1.2-.6 2.5-.7 3.9-1l-.2 2.8c0 1 0 2-.4 2.9a6.1 6.1 0 01-3 3.3c-.8.4-1.8.7-3.2.7l-1 .8c.9 2.6 1.8 5.1 3.4 7.4 1.2 1.6 2.6 3.1 4 4.6v-.1l.5-.5-.5-2a8 8 0 01.2-3.7 7 7 0 013.4-3.7c1.4-.7 2.8-1 4.2-1.3l.1 3c0 1.1 0 2.2-.2 3.3-.4 1.5-1.5 3-3 3.9-.8.5-2 .9-3.5 1l-.7.8c1.2 1.5 2.2 3 2.6 4.6.4 1.3.3 2.8.1 5.9 5.4-8.3 8.1-18.5 8.9-28.7.6-8.4-.1-16.8-3-24.5-1.3-3.6-3.1-7-5.4-10.1l-.7-.9a11.8 11.8 0 01-1.4.5c-1 1.5-2 2.5-3.1 3.1-1.7 1-3.8 1.4-5.7 1-1.2-.3-2.3-1-3.4-1.5l-3.2-1.7c1.1-1.4 2.2-2.7 3.7-3.7a8.3 8.3 0 015.6-1.6c1.5.2 2.8 1 4 1.8l1.9 1.5.7-.1.2-.1c-2.4-3-5.2-5.7-7.5-8.8-1.4-1.8-2.6-3.9-3.6-6h-1.5a10 10 0 01-4 2.1c-1 .3-2.2.3-3.3.1-.9-.1-1.6-.4-2.3-.8-1.1-.6-2-1.6-2.9-2.5l-2.5-2.6c1.5-1 3-1.9 4.6-2.4 1.9-.6 4-.7 5.9.1 1.3.6 2.4 1.8 3.3 3 .5.6 1 1.3 1.3 2h.9l-1.2-2.6c-2.2-5.3-3.9-10.9-4.6-16.5a11.5 11.5 0 01-1.3-.3c-1.6.8-3 1-4.2 1a8 8 0 01-5.3-2c-1-.8-1.6-2-2.2-3l-1.9-3.2c1.7-.6 3.3-1.1 5-1.3 2-.1 4.2.3 5.8 1.6 1.1.9 1.9 2.3 2.5 3.6l.8 2.3.6.2h.1a47 47 0 01.6-12.7l.1 2.6h.3l.6-.4.5-2.3c.4-1.4 1-2.9 2-4a8.3 8.3 0 015.5-2.2c1.8 0 3.5.3 5.2.7-.5 1-1 2.1-1.4 3.3-.5 1.1-1 2.3-1.8 3.3a8 8 0 01-5 2.7c-1.4.2-2.7 0-4.4-.5l-1.4.6a68.3 68.3 0 003 16.2c.6-.4.9-.6.9-.8l.1-2.2c.2-1.5.6-3 1.4-4.2 1.1-1.6 3-2.6 5-3 1.7-.5 3.5-.4 5.2-.3l-.9 3.5c-.3 1.3-.6 2.5-1.2 3.6a8 8 0 01-4.5 3.5c-1.3.4-2.6.4-4.4.2l-1.1.6-.2.1a57.6 57.6 0 005 11.4l.4-.1.7-.3c0-.8.2-1.6.5-2.3.4-1.5 1-3 2-4a8.2 8.2 0 015.5-2.2c1.7-.1 3.4.3 5.1.6l-1.4 3.3c-.5 1.2-1 2.4-1.8 3.4a8 8 0 01-5 2.7c-1.3.2-2.6 0-4.4-.5-.3 0-.6.2-1 .4l1.4 2c2 2.7 4.3 5 6.4 7.4a48.7 48.7 0 0110.2 15.2c2.4 5.4 3.7 11.3 5.2 17.5-1-15.6-1.5-26 2-33.5l-.4-.1h-.4a9.9 9.9 0 01-4.1 1.4 8 8 0 01-5.5-1.5c-1-.7-1.8-1.8-2.5-2.8l-2.2-3c1.6-.7 3.2-1.4 4.9-1.7 2-.4 4.2-.1 5.8 1 1.2.7 2.2 2 2.9 3.3l1 2.2h.2l.5.1h.3l2-3.1c1.7-2 3.8-3.6 5.8-5.4l-.5-.2c-1.7.6-3 .8-4.3.6a8 8 0 01-5-2.6c-.9-1-1.4-2.2-1.9-3.4l-1.5-3.3c1.7-.4 3.4-.7 5.2-.7 2 .1 4 .8 5.5 2.2 1 1 1.6 2.5 2 4 .3.7.4 1.5.6 2.3l.6.3h.2a22.4 22.4 0 007.6-10c-.4-.2-.8-.4-1-.7-2 .2-3.2 0-4.5-.4a8 8 0 01-4.3-3.7c-.5-1.2-.7-2.5-1-3.7l-.6-3.5c1.7 0 3.4 0 5.1.5 2 .5 3.8 1.7 4.9 3.4.7 1.2 1 2.7 1 4.2v2.4l.6.4.2.2c.9-2.3 1.5-4.8 2-7.3l.9-5a143.6 143.6 0 01.3 4l.7-.1c.2-.8.4-1.6.8-2.3a9.3 9.3 0 012.6-3.6 8.2 8.2 0 015.7-1.5c1.7.2 3.3.8 5 1.4l-1.9 3c-.6 1.1-1.3 2.3-2.2 3.1a8 8 0 01-5.4 2c-1.3 0-2.6-.3-4.2-1.1-.5 0-1 .2-1.4.3a26.7 26.7 0 01-3.4 13.7h1c.3-.8.7-1.5 1.2-2.1a9.4 9.4 0 013.1-3.1c1.8-1 4-1 6-.5 1.6.4 3.1 1.3 4.6 2.2l-2.3 2.7c-.9 1-1.7 2-2.8 2.6a7.9 7.9 0 01-5.6 1 9.8 9.8 0 01-4-1.8 23.6 23.6 0 01-1.8.1l-.2.4a34 34 0 01-4.5 5l-3.6 3.6h.4l.4.1 1.5-1.4a8 8 0 013.3-1.7 7 7 0 015 1c1.2.8 2.2 2 3.2 3l-2.6 1.6c-1 .6-1.8 1.2-2.9 1.5-1.5.4-3.3.2-4.8-.6-1-.5-1.8-1.2-2.8-2.4l-.4-.1-1-.3c-1.7 2-3.2 4.2-4.2 6.7-.9 2.3-1.2 4.9-1.3 7.5l.4-.1.7-.2 1-2.1a9.4 9.4 0 012.9-3.4c1.6-1 3.8-1.3 5.8-1 1.7.4 3.3 1.1 4.9 1.8l-2.2 3c-.7 1-1.4 2-2.5 2.8A8 8 0 01324 69a9.9 9.9 0 01-4.1-1.5l-1.2.2h-.2v1c-.1 4.6.2 9 .2 13.5 0 2.6-.2 5.3.4 8.5a43 43 0 014.6-4.8 69.3 69.3 0 0117.2-11l-.1-.4-.4-1c-.8-.5-1.5-1-2.1-1.6-1.3-1-2.5-2.4-3-3.9a9 9 0 010-6l.2-.5c.7-1.8 2-3.4 3-5l2.7 3c1 1.1 2 2.1 2.6 3.4.8 1.9.8 4.3.1 6.3-.4 1.3-1.1 2.5-2.2 4a7 7 0 00.4 1.2c2.7-1.2 5.5-2.2 8.5-3l5.3-1.3a70.4 70.4 0 00-.2-1.2l-1.8-2c-1-1.3-1.8-2.8-2-4.4-.4-2.2.4-4.5 1.6-6.4 1.1-1.6 2.6-2.9 4-4.1l2 3.5c.7 1.2 1.4 2.4 1.8 3.8.4 2-.1 4.3-1.2 6.1-.7 1.3-1.7 2.3-3 3.5v.9a32.2 32.2 0 0013.7-5.5c0-.4-.2-.7-.3-1l-.3-.7-2-1.6c-1.3-1-2.5-2.4-3.1-3.9-.8-2-.6-4.5.3-6.5.7-1.8 1.9-3.4 3-5l2.7 3c1 1.1 2 2.1 2.5 3.4.9 1.9.8 4.3.2 6.3-.4 1.3-1.2 2.5-2.2 4v.5l.2.3.2.4a52 52 0 009-8.4v-.4l-.6-1.6c-.8-.5-1.5-1-2.1-1.6-1.3-1-2.5-2.4-3-3.9-.8-2-.6-4.5.2-6.5.8-1.8 2-3.4 3-5l2.7 3c1 1 2 2.1 2.6 3.4.8 1.9.8 4.3.1 6.3-.4 1.3-1.1 2.5-2.2 4l.2.5.2.7 2.4-2.7-2.5 4.4-1.4 2.3.6.4.5.5 2.4-.6c1.4-.2 3-.3 4.4.2 1.9.6 3.4 2.2 4.4 4 .8 1.5 1.2 3.2 1.6 4.9l-3.6.1c-1.3 0-2.6.1-3.8-.2a8 8 0 01-4.6-3.3c-.7-1.1-1.1-2.4-1.4-4.2l-1-1-1.4 1.7a36 36 0 01-10.3 8.3l.4.5.3.3c1.5 0 2.7 0 3.9.3 1.7.5 3.4 1.6 4.3 3 .6 1.1 1 2.3 1.2 3.5l.9 3.2c-1.7.1-3.3.2-5-.1a7.8 7.8 0 01-4.7-2.9 8.8 8.8 0 01-1.3-4l-.2-2.2c-.1-.3-.3-.5-.8-1-4.2 2.1-8.7 3.7-13.3 5.3l-.9.3.4.7.2.4c1.8.3 3.2.6 4.5 1.2 2 .8 3.7 2.4 4.4 4.3.6 1.3.7 2.8.8 4.2 0 1.3.2 2.6.4 4-2-.2-3.9-.4-5.7-1.1-2-.8-4-2.3-5-4.3-.7-1.5-.8-3.2-.8-4.8 0-1 .1-1.8.3-2.7l-.7-1.4a80 80 0 00-17.6 8.3 11.3 11.3 0 00.8 1.1c1.8.2 3.2.4 4.5 1 2 .7 3.8 2.2 4.7 4 .6 1.3.8 2.8 1 4.2l.5 3.9c-2-.1-3.8-.2-5.7-.8-2.1-.7-4.1-2-5.2-4-.8-1.4-1-3.1-1-4.8v-2.6a30 30 0 00-.6-1.2 46.5 46.5 0 00-11.8 12.7c-3.2 5.1-5.3 11-7.1 16.8-1.5 4.7-2.9 9.5-4.2 14.3a96 96 0 0030.2-8.1c1-.5 2-1 3-1.7l-.3-.5-.2-.7c-.8-.2-1.7-.5-2.5-.9-1.5-.6-3-1.5-4-2.8a9.2 9.2 0 01-1.8-6.3c.2-2 .8-3.8 1.5-5.6l3.4 2c1.2.8 2.5 1.5 3.5 2.5a8.8 8.8 0 012.2 5.9c0 1.4-.3 2.9-1.1 4.7l.2 1c4.3-2.6 8.3-5.7 12.7-8v-.5-.3-.8l-2-1.6a10.3 10.3 0 01-3-4c-.8-2-.5-4.4.4-6.5.8-1.8 2-3.3 3.1-4.8l2.6 3c1 1 2 2.1 2.5 3.4 1 2 1 4.3.3 6.4a11 11 0 01-2.7 4v1.2l1.9-1c4.4-1.8 9.4-2.6 14-4v-.7l-.2-.8c-.7-.6-1.3-1.2-1.9-2-1-1.2-2-2.7-2.3-4.3-.4-2.1.2-4.5 1.4-6.4 1-1.6 2.4-3 3.8-4.3l2 3.4c.9 1.2 1.7 2.4 2 3.7.6 2 .2 4.3-.8 6.2-.7 1.3-1.6 2.3-2.9 3.6v.5l.1.2v.6c3-1 5.8-2 8.3-3.7 3.5-2.3 6.3-5.8 8.8-9.6a35.4 35.4 0 01-.6-1c0-.3-.3-.5-.4-.7l-2.4-1.1c-1.5-.8-2.9-1.8-3.8-3.2a9.1 9.1 0 01-1.1-6.5c.3-1.9 1-3.6 1.9-5.4l3.2 2.4c1.2.8 2.4 1.6 3.2 2.7 1.3 1.6 1.7 4 1.5 6-.1 1.5-.6 2.8-1.3 4.5l.3.4.3.6.4-.5c3-5 5.8-10.4 10.5-15.1v-.5l-.1-.4-.4-1.2-2-1.7a10.3 10.3 0 01-2.7-4.2c-.6-2-.2-4.5.8-6.5.9-1.7 2.2-3.2 3.4-4.6l2.4 3.2c1 1 1.8 2.2 2.3 3.5.8 2 .5 4.3-.3 6.3-.5 1.3-1.3 2.4-2.5 3.8v.5l.3.7a37 37 0 0112.6-7.3A62 62 0 00413 69l.6.4.4.3c1.5-.5 2.8-.8 4-.8a8 8 0 015.3 2c1 .8 1.6 2 2.2 3l1.8 3.1c-1.6.6-3.3 1.2-5 1.3-2 .1-4.2-.4-5.7-1.6-1.1-1-2-2.3-2.5-3.7l-.8-2.3-1.3-.8c-7.6 6.5-10.5 12.8-13.8 18.8l.4.3.3.2.4.2c1.7-.5 3-.9 4.5-1 2.1 0 4.4.7 6 2 1 1 1.7 2.3 2.4 3.5l2 3.4c-1.7.6-3.5 1.3-5.5 1.5-2.2.2-4.6-.3-6.3-1.7-1.3-1-2.2-2.5-2.9-4l-.9-2.5a17 17 0 00-1-.7l-1 1.8a37.8 37.8 0 01-9.5 11.7c-2.7 2-5.8 3.4-9 4.6l1.3.8a15 15 0 014.2.2c2 .5 4 1.7 5.3 3.4.8 1.1 1.2 2.5 1.6 3.9l1.2 3.8c-2 .2-3.9.4-5.8.1a9.2 9.2 0 01-5.8-3c-1-1.4-1.5-3-1.8-4.7l-.3-2.6-1.2-1.5c-4.4 1.5-9 2.8-13.2 4.7-4 2-7.8 4.6-11.6 7.2l.9.7c2 0 3.5.3 4.8.9 2 .9 3.6 2.5 4.4 4.5.6 1.3.7 2.7.8 4.1l.5 4c-2-.2-3.9-.3-5.7-1-2.1-.8-4-2.2-5-4.2-.8-1.4-1-3.1-1-4.8 0-1 .1-1.8.3-2.7l-.6-.5-.4-.3a116.5 116.5 0 01-11.8 7.4 98 98 0 01-21.8 7.3c-1.4.3-2.9.6-16 4.6-4.4 5.1-9.1 10-13.5 15.2-5 5.8-9.7 12-13.4 18.6-4.4 7.7-7.5 16-10.2 24.7 3-1.2 5.9-2.3 8.9-3.2a71.3 71.3 0 0117.3-3.4c3.4-2.3 6.9-5 9.7-8.3a16 16 0 00-.6-.6l-1-.9c-1.4 0-2.8-.2-4.2-.7-2-.7-3.9-2-4.8-4-.7-1.2-1-2.6-1.2-4l-.7-3.9c2 0 3.8 0 5.7.6 2.2.6 4.3 1.8 5.4 3.7.8 1.4 1.2 3.1 1.3 4.8v2.6l.6.5.6.6.6-1c3.4-4.7 5.4-10.6 8.6-16l-.9-2.3-.1-.4-.4-1a15 15 0 01-3.4-2.6 8.8 8.8 0 01-2.4-5.7c0-1.4.4-2.8.9-4.1l1.1-3.8c1.7.9 3.4 1.8 4.8 3.1a9.1 9.1 0 013 5.8c.2 1.7-.4 3.3-1 4.8l-1.3 2.4.3.7.6 1.2c1-1.6 2.1-3 3.5-4.5 3.8-4 9-7.4 16-10.2 0-.4.2-.7.3-1l.5-1.4.5-1.4c-.5-1.3-.8-2.7-.9-4 0-2.2.6-4.5 2-6 .9-1 2.2-1.8 3.4-2.6l3.3-2c.7 1.8 1.4 3.6 1.6 5.5.2 2.2-.3 4.6-1.6 6.4-1 1.2-2.4 2.2-4 2.8l-2.5 1-.4 1-.4.9a109.2 109.2 0 0116.8-5l-5 2.2.7.5 1 .4a16 16 0 012.2-.7c1.4-.4 3-.6 4.4-.3 2 .5 3.6 2 4.7 3.6 1 1.5 1.5 3.1 2 4.8l-3.5.4c-1.3.2-2.5.4-3.8.2a8 8 0 01-4.7-3.1c-.8-1-1.3-2.2-1.7-3.4l-1.2-.7-1.6-1-1.5.7c-7.3 3.5-12.5 6.3-16.5 9l1 .3 1 .2 2.2-1.6c1.4-.9 3-1.6 4.6-1.8 2.1-.1 4.4.8 6.1 2.2 1.6 1.2 2.7 2.8 3.8 4.3a378 378 0 00-3.6 1.7c-1.3.6-2.5 1.3-4 1.5-2 .3-4.2-.5-6-1.7-1.1-.8-2-1.8-3-3a15.2 15.2 0 00-4-.6 32.6 32.6 0 00-6 5.8c-3.3 4.3-5.4 9.3-7.6 14.3h1.2l.7.1 1.8-2c1.3-1 2.7-2 4.2-2.5 2.1-.6 4.5 0 6.5 1 1.7.9 3.1 2.2 4.6 3.5l-3.3 2.3c-1.1.9-2.3 1.8-3.6 2.2-2 .7-4.3.4-6.2-.5-1.3-.6-2.4-1.4-3.5-2.3l-1.3-.2h-2c-1 2-2 4-3.2 6-1.7 2.5-3.8 5-6 7.2h1.7c5.7.2 11.4.3 17 1.3 2.2.4 4.5 1 6.7 1.7l3.6-9.6c1-2.4 1.8-5 2.7-7.3a31.8 31.8 0 0114.3-17c4.3-2.4 9.1-4 14.1-5.3l.9-.3a71 71 0 0017-8.8 47 47 0 007.7-7.6v-.1l-.5-.7-.5-.7c-.8-.2-1.6-.5-2.5-1-1.5-.6-3-1.5-4-2.8a9.1 9.1 0 01-1.5-6.4c.2-2 .9-3.7 1.6-5.5l3.3 2c1.3.8 2.5 1.5 3.4 2.6 1.4 1.6 2 3.8 2 6-.1 1.4-.5 2.7-1 4.5l.2.4.4.6c2.2-2.8 4.2-5.7 6.2-8.8 2.3-3.6 4.6-7.3 7.7-9.8v-.3a7.6 7.6 0 00-.4-1.7l-2-1.8a10.4 10.4 0 01-2.5-4.2c-.5-2 0-4.5 1-6.5 1-1.7 2.3-3 3.6-4.5l2.3 3.3c.9 1.1 1.7 2.3 2.2 3.6.6 2 .3 4.3-.6 6.2-.5 1.3-1.4 2.4-2.6 3.8v.5l.1.4.1.3c4-2.6 9.4-3.5 13.6-6 4.2-2.7 7.3-7.2 9.4-12l-.4-.5a8 8 0 00-.4-.7l-.5-.7a18 18 0 01-2.5-.9c-1.6-.6-3-1.5-4-2.8a9.2 9.2 0 01-1.7-6.3c.1-2 .8-3.8 1.4-5.6l3.4 2c1.3.8 2.5 1.5 3.4 2.5 1.4 1.5 2.1 3.8 2 6 0 1.3-.3 2.7-.8 4.5l.2.3.5.7c0-.3.2-.5.3-.8l.6-1.8 1.3-3c1.6-2.6 4.1-4.5 7.2-5.8.1-.6.5-1.6.5-2.3a19 19 0 01-1-2.4c-.5-1.6-.9-3.3-.6-5a9.2 9.2 0 013.6-5.4c1.6-1.2 3.4-2 5.1-2.6l.8 3.9c.3 1.4.6 2.8.4 4.2-.2 2-1.4 4-3 5.4-1 1-2.3 1.6-3.6 2.2-.3.1-.5.5-.6 1.4l3.3-1-4.4 2.4a20 20 0 00-4.8 3.5l.6.3.4.2c1.4-.7 2.5-1.2 3.7-1.4 1.7-.3 3.7-.1 5.2.8 1 .7 1.8 1.6 2.5 2.5L445 97c-1.5.8-3 1.6-4.5 2-1.8.5-4 .4-5.6-.5a8.7 8.7 0 01-2.9-3c-.4-.6-.8-1.2-1.1-2-.2 0-.4-.2-1.2-.7a10 10 0 00-1.2 2 15 15 0 00-.9 2.3l-.7 2.5c-1.7 5.8-5 11.2-9.8 14.5-3.6 2.4-8 3.7-11.6 5.8a7.3 7.3 0 001 .4c1.2-.7 2.3-1.1 3.4-1.4a7 7 0 015 .8c1 .6 1.7 1.5 2.5 2.4l2 2.4a23.5 23.5 0 01-4.1 2c-1.8.4-3.8.4-5.3-.5-1.2-.6-2.1-1.6-2.9-2.8l-1-1.8c-.4-.2-.8-.5-1.3-.6l-.4-.2-1 .8c-3.4 2.7-5.6 6.8-7.8 10.9-3.9 6.8-8 13.4-13.6 18.3-1.4 1.3-2.9 2.4-4.4 3.4 4.6 0 9 0 13.5-.5 3.8-.4 7.5-1.2 11-2.4 2.3-7.3 4.5-14.7 9.3-19.4 1.6-1.7 3.6-3 5.8-4.1 3.8-2 8.2-3.3 12.3-4.8v-.3c0-.5-.2-1-.3-1.4-.6-.6-1.2-1.1-1.7-1.8a9.3 9.3 0 01-2-3.8c-.5-2 0-4 1-5.8 1-1.5 2.2-2.7 3.5-4l2 3c.6 1.1 1.4 2.2 1.7 3.4a8 8 0 01-.7 5.6c-.6 1.1-1.4 2.1-2.3 3l-.1 1.4v.3l3.5-1.4c4.2-1.9 7.6-4.3 12.2-7.4v-.7l.1-1v-.7L445 109c-.8-1.4-1.5-3-1.5-4.7 0-2.2 1-4.4 2.5-6l1-1c1.1-1 2.4-1.8 3.6-2.5l1.4 3.7c.6 1.3 1.1 2.6 1.3 4 .1 2-.7 4.3-2 6-1 1-2 1.9-3.5 3v.4l-.1.8c2-1.4 4.3-2.8 7-4.4-4 3.6-7.9 7.2-12.3 10.3h.1l1.5.4a15 15 0 014-1.2c2.1-.2 4.4.2 6 1.4 1.2.9 2 2 2.9 3.2l2.3 3.2c-1.7.8-3.5 1.7-5.4 2-2.2.4-4.6.1-6.4-1-1.4-1-2.4-2.3-3.2-3.8l-1.2-2.4-1.4-.8-.4-.2a52.4 52.4 0 01-5 3c-8 4.2-17.5 6.5-23 12.6a34.3 34.3 0 00-6.7 14.2l1.1-.5c5.3-2.8 10-6.8 14.6-10a45.4 45.4 0 0127.8-8.3c4.7.2 8.7 1.5 13 1.6a6.8 6.8 0 00.2-1.6 17.7 17.7 0 01-2.2-5c-.1-.7-.2-1.5-.1-2.2a9.2 9.2 0 013-5.8c1.5-1.3 3.2-2.2 5-3l1 3.8c.5 1.3 1 2.7.9 4.1 0 2.1-1.1 4.2-2.6 5.7a14 14 0 01-3.8 2.7 6.2 6.2 0 00-.1 1.3 27 27 0 0011.9-3.5l.2-.7v-.4l.1-1.2-1.3-2.4c-.7-1.5-1.2-3.1-1.2-4.7a9.2 9.2 0 013-5.9c1.4-1.4 3-2.3 4.7-3.2l1.2 3.8c.5 1.3 1 2.7 1 4 0 2.1-1 4.3-2.4 5.9-1 1-2 1.8-3.3 2.5l-.4 1.4 2.2-1.3c-.6 1-1.5 2-2.4 2.7a19.6 19.6 0 01-4.2 2.9l1.3.8c1.3 0 2.8-.1 4.1.2 2.1.5 4.2 1.6 5.3 3.3.8 1.2 1.2 2.6 1.6 4l1.2 3.7c-1.9.3-3.8.5-5.7.2a9 9 0 01-5.8-3.1l-.4-.5c-.7-1.2-1.2-2.7-1.4-4l-.3-2.7-1-1.3-.2-.1c-1.5.6-3.1 1-4.8 1.4a48.5 48.5 0 01-13.7.2l.2 1.4c1.2 1.4 2 2.5 2.4 3.7a8 8 0 01-.1 5.7c-.5 1.2-1.4 2.1-2.2 3.1l-2.3 2.8a19.2 19.2 0 01-3-4.3c-.7-1.8-1-4-.4-5.9a9.4 9.4 0 012.6-3.6l1.9-1.5v-.7l-.1-.7v-.1a40.2 40.2 0 00-13 1 42.6 42.6 0 00-13.2 6c-3.2 2-6 4.7-9.1 7l-.4.3a80 80 0 008.4 4.6c3.3 1.6 6.8 2.8 10.4 3.3v-.3-1.4c-.8-1.2-1.4-2.4-1.8-3.8-.7-2-.6-4.4.3-6.2.6-1.3 1.6-2.3 2.6-3.3l2.8-3a22 22 0 012.9 5c.7 2.1 1 4.6 0 6.6-.5 1.5-1.7 2.7-3 3.8-.7.6-1.4 1-2.2 1.5V156.3c1.7.2 3.4.1 5.2-.1 4.7-.7 9.2-3 14-2.8H457.8l1-1 .9-1.1a15 15 0 011-4c1-2 2.5-3.8 4.4-4.6 1.3-.5 2.8-.6 4.2-.7l4-.4c-.3 1.9-.4 3.8-1.1 5.6-.8 2.1-2.3 4-4.2 5-1.5.8-3.2 1-4.9.9-.9 0-1.8-.1-2.6-.3l-.5.6-.4.4c4.2.9 8.2 3.3 10.8 6.6l-3.3-2v.2l.5 1.3c1.4.9 2.2 1.6 2.8 2.6.9 1.3 1.3 3.1 1 4.7-.1 1-.6 2-1.1 3-.5 1-1 1.9-1.3 2.8-1.2-1-2.4-1.8-3.3-3-.7-1-1.3-2-1.5-3.1-.1-.6-.2-1.1-.1-1.6.1-1.3.7-2.5 1.4-3.5l1.2-1.7-.2-.5-.2-.7-.3-1c-2.9-1.6-5.9-2.9-8.9-3h-.6a25.7 25.7 0 00-7.8 1.7l.5 1.4c1.3.8 2.1 1.6 2.7 2.5 1 1.4 1.4 3.1 1.1 4.7-.2 1-.7 2-1.2 3a34.5 34.5 0 00-1.3 2.8c-1.2-1-2.4-1.8-3.3-3a7 7 0 01-1.6-4.7 8 8 0 011.4-3.5l1.3-1.7-.2-.5c0-.3-.1-.5-.3-.8-1.7.5-3.5 1.1-5.3 1.4a29 29 0 01-12.6-.6c0 .4.2.7.3 1.1 1.2 1 2 1.8 2.5 2.8.7 1.4 1 3.2.6 4.8-.3 1-1 2-1.5 2.9l-1.6 2.6c-1-1-2.1-2-3-3.3a7 7 0 01-1-4.8 8 8 0 011.6-3.4l1.4-1.5-.1-.6v-.4l-.2-.4a46 46 0 01-4-1.4c-4-1.5-7.6-3.5-11.4-5.4a66.8 66.8 0 01-6.5 3.9c-5 2.5-10.3 4.3-15.7 5.2-5.1.9-10.4 1-15.6 1.3h-.2c-4 .3-7.9.6-11.8 1.4-4.8 1-9.5 2.5-13.7 5a29 29 0 00-14.7 21.1c-.6 3.6-.6 7.2-.7 10.9 2.8 1.5 5.5 3 8.4 4.1h.1l2.3-1.9c1.1-1 2.4-1.7 3.8-2.3l8-3.7 2.8-1.6v-.2l-.7-1.7c-1.7-1-2.8-2-3.6-3.3a8.9 8.9 0 01-1.4-6.2c.3-1.4 1-2.6 1.6-4l1.7-3.5c1.6 1.2 3.1 2.3 4.3 3.9 1.4 1.7 2.3 4 2 6.2 0 1.6-.8 3.2-1.8 4.6-.4.7-1 1.4-1.6 2l.3.8.2.8 2.6-1.8c4-2.9 7.5-6.4 11-10.1l3-3v-.1l-.2-.4-.4-1.1a9 9 0 01-3-2.7 7.1 7.1 0 01-1-5c.1-1.1.7-2.1 1.2-3.2l1.4-2.9c1.3 1 2.5 1.9 3.5 3.1a7.4 7.4 0 011.6 5 8.3 8.3 0 01-1.4 3.8l-1.3 1.7c0 .2 0 .4.2.6v.4c1.5-1.5 3-3 4.5-4.2a27 27 0 0110-5c-2.4 1.6-4.8 3.2-7 5.1l.6.4 2.2-1.1c1.4-.6 2.9-1 4.3-.8 2 .1 3.9 1.3 5.2 2.8 1.2 1.3 2 2.9 2.7 4.4l-3.5 1c-1.2.3-2.4.7-3.7.7a8 8 0 01-5.3-2.3c-.9-.9-1.6-2-2.3-3.7l-.8-.5s-.2 0-.3-.2c-2.8 2.6-5.2 5.5-7.6 8.4l-5.3 6.1.8.2.8.2a21 21 0 012-1.7c1.4-1 3-1.8 4.6-2 2.1-.2 4.4.6 6.3 2 1.5 1 2.7 2.6 4 4l-3.6 1.9c-1.2.7-2.5 1.4-3.9 1.7-2 .4-4.4 0-6.2-1.2-1.3-.8-2.3-1.8-3.4-3.5l-1.7-.5h-.2l-.3-.2-1.5 1.6a49 49 0 01-9.2 7.4c-2.4 1.5-5 2.6-7.3 4l-3.5 2.4 1.1.1c3.6.3 7.3-.4 10.9-1.3 4.6-1.2 9-2.7 13.4-4 3.7-1.2 7.3-2.3 11.2-3 2-1.2 4-2.4 5.8-3.8l.8-.6a57 57 0 009.4-10.7l1.1-1.5c2.8-3.7 5.6-7.4 9.3-9.8l.4-.3v-.5l-.3-.9c-1.4-1-2.2-2-2.8-3a7.5 7.5 0 01-.7-5.5 323 323 0 003.4-6.1c1.2 1.1 2.5 2.2 3.3 3.6 1 1.6 1.6 3.6 1.3 5.5-.3 1.3-1 2.6-2 3.7l-1.5 1.7.2.7v.2c2.7-1.5 5.7-2.5 8.7-3.6-2 1.2-4.1 2.4-6 3.8a37.7 37.7 0 00-7 6.4l1 .2h.7l2-1.8c1.2-1 2.7-2 4.3-2.3 2.1-.4 4.5.2 6.4 1.3 1.7 1 3 2.5 4.3 3.9a264 264 0 00-3.3 2c-1.2.9-2.4 1.7-3.8 2-2 .7-4.4.4-6.3-.6-1.3-.6-2.4-1.6-3.7-3.2l-1.9-.4-.5-.2a55 55 0 00-5 7.6l-1.6 3.2h1.1c1-1.2 2-2.1 3-2.8a8 8 0 015.5-1.2c1.3.2 2.4.8 3.5 1.5l3.2 1.6c-1.1 1.4-2.2 2.7-3.6 3.8a8.2 8.2 0 01-5.7 1.6c-1.4-.2-2.8-.9-4-1.7l-1.9-1.6h-1.5-.3a31 31 0 01-5.6 7.3l3.5.2a49.2 49.2 0 0115.5 3.8c4.8-7 9.7-13.9 16.6-17 1.3-.5 2.7-1 4.1-1.3l.1-1.3v-.5-.8a13 13 0 01-1.5-3.4 8 8 0 01.4-5.6c.6-1.1 1.5-2 2.4-3l2.6-2.4c1 1.4 2 2.8 2.5 4.5.6 1.9.8 4 0 5.9a9.3 9.3 0 01-3 3.3c-.6.5-1.2 1-2 1.4v1.6c3-.6 6.3-.9 9.4-1.2l5-.6.9-1.6.4-1.1c-.1-1.2-.3-2.4-.1-3.6.1-1 .5-2.2 1-3.2a6 6 0 011.4-1.5c.9-.8 2-1.2 3.1-1.7l3.1-1.3a33 33 0 01.6 4.8 7.8 7.8 0 01-2.1 5.2 9 9 0 01-3.7 2l-2.3.4-.2.5-.4.9 3.5-.3c-3.3 1.1-6.5 2.2-9.9 3l-5.8 1.2.7.3a12 12 0 013.4.1 7 7 0 014.4 2.6c.6 1 1 2 1.3 3.2l1 3c-1.5.2-3 .4-4.6.2-1.8-.2-3.6-1-4.7-2.4-.8-1-1.3-2.3-1.6-3.6l-.3-2.2-.5-.3-1-.5c-2.4.5-4.7 1.2-6.8 2.4l-1 .6c-4.8 3.3-8.6 9.1-12.4 15 1.6.6 3.2 1.2 4.8 1.6 3.6 1 7.5 1.4 11.2 1l-.5-1.7c-1.5-1-2.4-2-3-3.2a8 8 0 01-1-5.6c.3-1.2 1-2.4 1.6-3.5l1.8-3c1.3 1 2.6 2.2 3.6 3.6a8.2 8.2 0 011.5 5.7c-.2 1.4-1 2.8-1.9 4-.4.7-1 1.3-1.5 1.8l.1.7.3 1 1.4-.2c3.5-.9 6.8-2.5 9.8-4.6 2.6-1.9 4.8-4.1 7.4-6a22.1 22.1 0 017.2-3.1 33 33 0 001.1-2l.2-.3.4-1c-.3-1.2-.5-2.4-.4-3.7a8 8 0 012.2-5.1c.9-1 2-1.5 3.2-2l1.6-.8 1.6-.8c.5 1.7 1 3.3 1 5 0 2-.6 4.2-2 5.7-1 1-2.4 1.7-3.8 2.2-.8.3-1.5.5-2.3.6 0 .3-.2.5-.3.7 0 .3-.2.6-.4 1a18.7 18.7 0 0112.1 2.5 29.2 29.2 0 012.8-1.7c.6-1 1.2-2.2 2.1-3a7.9 7.9 0 015-2.6c1.3 0 2.6.3 3.8.6l3.5.8z" fill="#000" fill-rule="nonzero"/></svg>